<?xml version="1.0" encoding="utf-8"?>
<!-- Generator: Adobe Illustrator 21.0.0, SVG Export Plug-In . SVG Version: 6.00 Build 0)  -->
<svg version="1.1" id="Layer_1" xmlns="http://www.w3.org/2000/svg" xmlns:xlink="http://www.w3.org/1999/xlink" x="0px" y="0px"
	 viewBox="0 0 295.1 65.2" style="enable-background:new 0 0 295.1 65.2;" xml:space="preserve">
<style type="text/css">
	.st0{fill:#FFFFFF;}
</style>
<title>bahia</title>
<path d="M292.5,23.5l-0.4-4l1.3-0.5l0.5,4.5H292.5z M294.4,19.8h0.7v2.8h-0.5L294.4,19.8z"/>
<path d="M291.8,19.9l1.8-1l-0.7-4.4l-2,0.9L291.8,19.9z M293.3,19.5h1.1l0.2,3.7l-0.7,0L293.3,19.5L293.3,19.5z M290.9,40.8V25.4
	h0.9l2.7,3.3v8.4l-2.7,3.6H290.9z"/>
<path d="M286.3,23.6h3.8c0.6,0,1,0.5,1,1v17.6c0,0.6-0.5,1-1,1h-3.8c-0.6,0-1-0.5-1-1V24.7C285.2,24.1,285.7,23.6,286.3,23.6z"/>
<path d="M289.4,43.3V23.6c1.4-0.1,1.6,0.8,1.6,1.2v17.4C291,43,290.5,43.4,289.4,43.3z M286,43.3V23.6c-0.6,0.2-0.9,0.7-0.8,1.3
	v17.2C285.2,42.7,285.5,43.1,286,43.3z M292.1,23.4h2.2v7.3c-0.4,1-1.6,1.3-2.2,0V23.4z"/>
<path d="M291.9,23.4h2.6v1.6h-2.6V23.4z"/>
<path d="M250.3,23.4l0.4-4l-1.3-0.5l-0.6,4.5H250.3z M248.3,19.8h-0.7v2.8h0.5L248.3,19.8z"/>
<path d="M250.9,19.9l-1.8-1l0.7-4.4l2,0.9L250.9,19.9z M249.4,19.4l-1.1,0l-0.2,3.7h0.7L249.4,19.4z M251.8,40.8V25.4h-0.9l-2.7,3.4
	v8.4l2.7,3.6C250.9,40.8,251.8,40.8,251.8,40.8z"/>
<path d="M252.7,23.6h3.8c0.6,0,1,0.5,1,1v17.6c0,0.6-0.5,1-1,1h-3.8c-0.6,0-1.1-0.5-1.1-1V24.6C251.6,24,252.1,23.6,252.7,23.6z"/>
<path d="M253.3,43.3V23.5c-1.4-0.1-1.6,0.8-1.6,1.2v17.4C251.7,43,252.3,43.4,253.3,43.3z M256.7,43.2V23.6c0.6,0.2,0.9,0.7,0.8,1.3
	v17.2C257.5,42.6,257.2,43.1,256.7,43.2z M250.6,23.4h-2.2v7.3c0.4,1,1.6,1.3,2.2,0V23.4z"/>
<path d="M248.2,23.4h2.6V25h-2.6V23.4z"/>
<path d="M250,14.3l1.7,0.7c9.9-14.5,32.7-12.5,39.1,0.2l1.8-0.8C288.6-3.5,253.2-3.2,250,14.3z"/>
<path d="M287.6,6.6l0-1.4l-2-1.7l-0.1-1.2c-4.5-1.3-9.1-2.1-13.8-2.3v0.5h-1V0c-4.6,0.1-9.2,0.8-13.6,2.1l-0.1,1L254.7,5l-0.1,1.5
	C268.3-2.2,280,1.5,287.6,6.6L287.6,6.6z M271.5,43.3c6.9,0.1,12.5-5.4,12.6-12.2c-0.1-6.9-5.8-12.3-12.6-12.2
	c-6.9-0.1-12.5,5.4-12.6,12.2C259,37.9,264.6,43.4,271.5,43.3z"/>
<path class="st0" d="M263.3,30.2v-2.4h5.2c0.1,0,0.1,0,0.1-0.1V26c0-0.1-0.1-0.2-0.2-0.2h-7c-0.1,0-0.1,0-0.1,0.1v10.5
	c0,0.1,0.1,0.2,0.2,0.2h1.8c0.1,0,0.1,0,0.1-0.1v-4.3h4.3c0.1,0,0.1,0,0.1-0.1v-1.7c0-0.1-0.1-0.2-0.2-0.2L263.3,30.2L263.3,30.2z
	 M281.9,25.9c0-0.1-0.1-0.2-0.2-0.2h-1.9l-3.7,7.9l-3.8-7.9c-0.1-0.1-0.1-0.1-0.2-0.1h-1.8c-0.1,0-0.1,0-0.1,0.1v10.5
	c0,0.1,0.1,0.2,0.2,0.2h1.8c0.1,0,0.1,0,0.1-0.1v-6.1l2.9,5.6c0.1,0.1,0.1,0.1,0.2,0.1h1.7c0,0,0.1,0,0.1,0l2.7-5.6v5.8
	c0,0.1,0.1,0.2,0.2,0.2h1.7c0.1,0,0.1,0,0.1-0.1L281.9,25.9L281.9,25.9z"/>
<path d="M116.3,42.3V0h11.6v15.5h21.8V0h11.6v42.3h-11.6V25.7h-21.8v16.6H116.3z M0.1,16.9v25.4h35.6c11.3,0,16.8-11.8,10.9-20.9
	C51.3,15.5,49.3,0,36,0.1H8.3L0,10.4h36.1c1.8,0.9,2.5,3.1,1.6,4.8c-0.3,0.7-0.9,1.2-1.6,1.6L0.1,16.9L0.1,16.9z M11.8,26.9H36
	c2,0.2,2.9,4.3,0,5.1l-24.2,0.1V26.9z M51.1,42.3l24-42.3h12l24,42.3H70.6l6-10.6h12.7L81,16L66,42.4L51.1,42.3L51.1,42.3z
	 M167.3,42.3V0.1h11.6v42.2H167.3L167.3,42.3z M183.2,42.3l24-42.3h12l24,42.3h-40.5l6-10.6h12.7l-8.3-15.8l-15,26.4L183.2,42.3
	L183.2,42.3z"/>
</svg>
