<?xml version="1.0" encoding="utf-8"?>
<!-- Generator: Adobe Illustrator 21.0.0, SVG Export Plug-In . SVG Version: 6.00 Build 0)  -->
<svg version="1.1" id="Capa_1" xmlns="http://www.w3.org/2000/svg" xmlns:xlink="http://www.w3.org/1999/xlink" x="0px" y="0px"
	 viewBox="0 0 342.9 342.9" style="enable-background:new 0 0 342.9 342.9;" xml:space="preserve">
<style type="text/css">
	.st0{fill-rule:evenodd;clip-rule:evenodd;fill:#FFFFFF;}
	.st1{display:none;}
	.st2{display:inline;fill-rule:evenodd;clip-rule:evenodd;stroke:#000000;stroke-width:0.5;stroke-miterlimit:2.6131;}
	
		.st3{display:none;fill-rule:evenodd;clip-rule:evenodd;fill:none;stroke:#000000;stroke-width:0.7498;stroke-linejoin:round;stroke-miterlimit:22.9256;}
	.st4{display:none;fill-rule:evenodd;clip-rule:evenodd;}
	.st5{display:inline;fill-rule:evenodd;clip-rule:evenodd;}
	.st6{display:inline;}
	.st7{fill-rule:evenodd;clip-rule:evenodd;}
	.st8{display:none;fill-rule:evenodd;clip-rule:evenodd;fill:#FFFFFF;}
	.st9{display:inline;fill-rule:evenodd;clip-rule:evenodd;fill:#FFFFFF;}
	.st10{display:inline;fill-rule:evenodd;clip-rule:evenodd;fill:#00AEEF;}
	.st11{fill:#010101;}
	.st12{fill:#FFFFFF;}
</style>
<rect x="-23.5" y="-37.3" class="st0" width="390" height="407"/>
<g class="st1">
	<path class="st2" d="M270.8,15.4c7.8-1.4,18.7-1.6,24.2-0.6l1-0.7c3.2-5.3,6.6-10.1,10.9-13.4l-9.3,18.1L270.8,15.4z"/>
	<path class="st2" d="M320.6,4.9c4.7-0.8,11.4-1,14.7-0.4l0.6-0.4c1.9-3.2,4-6.1,6.6-8.2L337,7L320.6,4.9z"/>
	<path class="st2" d="M320.4,32.4c4.7-0.8,11.4-1,14.7-0.4l0.6-0.4c1.9-3.2,4-6.1,6.6-8.2l-5.7,11L320.4,32.4z"/>
</g>
<path class="st3" d="M187.5,225.3c2.3,0,4.6-0.5,6.2-1.3c0.8-0.4,1-0.4,1.8-0.9c2.5-1.6,4.2-3.4,5.6-6.2c2-3.9,2-9.1,0-13
	c-1.2-2.5-3.6-5.2-6.2-6.5l-1.2-0.6c-1.6-0.8-3.9-1.3-6.2-1.3c-4.5,0-8.2,2.1-10.5,4.4c-2.3,2.3-4.3,6.3-4.3,9.6
	c0,0.4-0.1,0.5-0.1,0.9l0.1,1.7c0.6,4.5,2.6,7.8,6.3,10.5c0.4,0.3,0.7,0.5,1.2,0.7l1.8,0.9C183.8,224.9,185.5,225.3,187.5,225.3z"/>
<path class="st4" d="M185.6,205.4v2.2h-1.7v2.9h1.7v8.1h3.3v-8.2h2.3c0-1,0.2-1.8,0.2-2.8h-2.5c0-2.7-0.3-2.4,2.5-2.4v-2.9
	c-1.8,0-3.9-0.3-5,0.8C185.9,203.7,185.6,204.3,185.6,205.4z"/>
<path class="st3" d="M110.2,225.4h1c7.7,0,14.7-6.9,14.7-14.6v-1c0-7.7-7-14.6-14.7-14.6c-4.4,0-7.1,1.1-10.3,3.6
	c-0.2,0.1-0.3,0.3-0.5,0.5c-2.5,2.1-4.8,6.3-4.8,11c0,4.3,1.6,7.7,4.3,10.6l1.4,1.3C103.6,224,107,225.4,110.2,225.4z"/>
<g class="st1">
	<path class="st5" d="M110.2,207.6c-1.7,0.4-2.5,2-2.1,3.5c1,3.6,6.5,2.2,5.6-1.4C113.3,208.4,111.9,207.2,110.2,207.6z"/>
	<path class="st5" d="M103.6,214.8c0,1.5,1.3,2.8,2.8,2.8h8.9c1.5,0,2.8-1.3,2.8-2.8v-6.5l-4.2,0c1.8,2.6-0.1,5.8-3.1,5.8
		c-1.5,0-2.7-0.9-3.2-1.9c-0.3-0.6-0.5-1.3-0.5-2.1c0.1-0.9,0.4-1.3,0.7-1.9h-4.2V214.8z"/>
	<path class="st5" d="M107.4,206.7h-0.6v-3.6l-0.4,0c0,0.1,0,0-0.1,0.2l0,3.4l-0.6,0l0-3.5c-0.5,0.1-0.5,0.1-0.4,0.5l0,3h-0.6l0-3
		c-0.4,0.1-1,0.9-1.1,1.5c-0.2,0.6-0.1,1.9-0.1,2.6c1.4,0,2.8,0,4.1,0c0.6,0,0.4,0,0.8-0.3c1-0.9,2.7-1.1,4-0.5
		c0.9,0.4,0.8,0.7,1.4,0.7c1.4,0,2.8,0,4.2,0c0-1.2,0.2-2.5-0.4-3.4c-0.5-0.7-1.3-1.3-2.5-1.3c-1.1,0-7.1-0.1-7.8,0L107.4,206.7z"/>
</g>
<path class="st4" d="M110.4,208.3c-2.8,0.6-1.8,4.6,0.9,4.1C114,211.9,113.1,207.7,110.4,208.3z"/>
<path class="st3" d="M134.2,210.2c0,2.5,0.5,4.7,1.4,6.5c0.5,1,1.1,2.1,1.7,2.9l1.4,1.5c3,3,6.6,4.4,11,4.4c4.4,0,8.6-2.1,11.4-5.4
	c3.7-4.4,4.7-10.8,2.2-16c-1-2.1-2.3-3.8-4-5.3c-0.2-0.2-0.3-0.3-0.5-0.4c-5.1-4.2-13.4-4.2-18.5-0.1c-0.9,0.7-1.7,1.4-2.4,2.3
	l-0.8,1C135.3,203.9,134.2,207.3,134.2,210.2z"/>
<path class="st4" d="M149.7,208.1c0,0.3,0.1,0.3,0.1,0.7c-0.6-0.1-0.9-0.1-2-0.4c-1-0.3-2.4-1-3.2-1.7l-1.3-1.2
	c-0.5,1-0.6,2.1-0.1,3.1c0.3,0.5,0.6,0.6,0.9,1c-0.6,0-0.8-0.3-1.3-0.4c0,0.8,0.2,1.5,0.6,2c0.3,0.4,1,1,1.6,1.1
	c-0.1,0.2,0,0.1-0.8,0.1c-0.2,0-0.2,0-0.4-0.1c0.1,1,1.4,2.2,2.8,2.3c-0.2,0.4-1.3,0.8-1.9,1c-0.9,0.3-1.5,0.2-2.6,0.2
	c0.5,0.7,3.2,1.5,4.5,1.5c2.1,0,3.2-0.3,4.8-1.1c0.3-0.1,0.5-0.3,0.8-0.5c2.1-1.5,3.7-4.4,3.7-7c0-0.7-0.1-0.7,0.3-1
	c0.5-0.4,0.9-0.9,1.3-1.4c-0.5,0.1-1,0.4-1.6,0.4c0.1-0.1,0.9-0.7,1.2-1.7c-0.4,0.2-1.5,0.7-2,0.7c-0.2,0-1.7-1.7-3.8-0.6
	C150.5,205.8,149.7,206.9,149.7,208.1z"/>
<path class="st4" d="M212.3,214.1v0.4c0.8,0.7,1.5,0.9,2.7,1.1c0.1,0.7,0.1,1.4,1,1.3c0.8-0.1,1.4-0.3,2.2-0.1
	c1.1,0.3,1.9,1.4,3.4,1.7c2.7,0.6,3.7-1.6,5.6-1.8c2.1-0.2,2.3,1,2.7-1.2c1.2-0.1,2-0.4,2.7-1.1v-0.4c-0.4-0.4-1.7-0.4-2.9-1.5
	c-0.5-0.5-1.8-1.8-1.6-2.9c0.5-0.7,2.1-0.7,2.4-1.5c0.2-0.6-0.3-1-0.8-1c-0.7-0.1-0.9,0.4-1.8,0.3c0-2.4,0.5-4-0.9-5.7
	c-2.3-2.9-7-2.9-9.2,0c-1.3,1.7-0.9,3.4-0.9,5.7c-0.9,0.1-0.9-0.2-1.6-0.3c-0.6,0-1.2,0.3-1.1,0.9c0.3,1.5,3.8,0.4,1.9,3.3
	c-0.1,0.2-0.3,0.5-0.5,0.6c-0.4,0.5-1.2,1.2-1.8,1.5C213.5,213.7,212.6,213.8,212.3,214.1z"/>
<path class="st3" d="M222.6,224.6c2.3,0,4.6-0.5,6.2-1.3c0.8-0.4,1-0.4,1.8-0.9c2.5-1.6,4.2-3.4,5.6-6.2c2-3.9,2-9.1,0-13
	c-1.2-2.5-3.6-5.2-6.2-6.5l-1.2-0.6c-1.6-0.8-3.9-1.3-6.2-1.3c-4.5,0-8.2,2.1-10.5,4.4c-2.3,2.3-4.3,6.3-4.3,9.6
	c0,0.4-0.1,0.5-0.1,0.9l0.1,1.7c0.6,4.5,2.6,7.8,6.3,10.5c0.4,0.3,0.7,0.5,1.1,0.7l1.8,0.9C218.8,224.1,220.5,224.6,222.6,224.6z"/>
<g class="st1">
	<g class="st6">
		<polygon class="st7" points="311.8,150 311.5,146 312.8,145.5 313.3,150 		"/>
		<polygon class="st7" points="313.8,146.4 314.4,146.4 314.4,149.2 313.9,149.2 		"/>
		<polygon class="st7" points="311.2,146.4 313,145.5 312.3,141.1 310.3,142 		"/>
		<polygon class="st7" points="312.7,146 313.8,146 314,149.7 313.2,149.7 		"/>
		<polygon class="st7" points="310.2,167.3 310.2,152 311.1,152 313.9,155.3 313.9,163.7 311.1,167.3 		"/>
		<path class="st7" d="M305.6,150.2h3.8c0.6,0,1,0.5,1,1v17.6c0,0.6-0.5,1-1,1h-3.8c-0.6,0-1-0.5-1-1v-17.6
			C304.6,150.6,305,150.2,305.6,150.2z"/>
		<path class="st7" d="M308.8,169.8v-19.7c1.4-0.1,1.6,0.8,1.6,1.2c0,5.8,0,11.6,0,17.4C310.4,169.6,309.8,169.9,308.8,169.8z"/>
		<path class="st7" d="M305.4,169.8l0-19.6c-0.2,0.1-0.8,0.3-0.8,1.3l0,17.2C304.6,169.4,305,169.7,305.4,169.8z"/>
		<path class="st7" d="M311.5,150h2.2l0,7.3c-0.4,1-1.6,1.3-2.2,0L311.5,150z"/>
		<rect x="311.3" y="150" class="st7" width="2.6" height="1.6"/>
	</g>
	<g class="st6">
		<polygon class="st7" points="269.6,150 270,146 268.7,145.5 268.1,150 		"/>
		<polygon class="st7" points="267.7,146.3 267,146.3 267,149.2 267.5,149.2 		"/>
		<polygon class="st7" points="270.3,146.4 268.4,145.4 269.1,141 271.2,142 		"/>
		<polygon class="st7" points="268.7,146 267.7,146 267.5,149.7 268.2,149.7 		"/>
		<polygon class="st7" points="271.2,167.3 271.2,151.9 270.3,151.9 267.6,155.3 267.6,163.7 270.3,167.3 		"/>
		<path class="st7" d="M275.8,150.1h-3.8c-0.6,0-1,0.5-1,1v17.6c0,0.6,0.5,1,1,1h3.8c0.6,0,1-0.5,1-1v-17.6
			C276.9,150.6,276.4,150.1,275.8,150.1z"/>
		<path class="st7" d="M272.6,169.8v-19.7c-1.4-0.1-1.6,0.8-1.6,1.2c0,5.8,0,11.6,0,17.4C271.1,169.5,271.6,169.9,272.6,169.8z"/>
		<path class="st7" d="M276.1,169.8l0-19.6c0.2,0.1,0.8,0.3,0.8,1.3l0,17.2C276.8,169.4,276.4,169.6,276.1,169.8z"/>
		<path class="st7" d="M270,150h-2.2l0,7.3c0.4,1,1.6,1.3,2.2,0L270,150z"/>
		<rect x="267.6" y="149.9" class="st7" width="2.6" height="1.6"/>
	</g>
	<g class="st6">
		<path class="st7" d="M269.4,140.8l1.7,0.7c9.9-14.5,32.7-12.5,39.1,0.2l1.7-0.8C308,123,272.5,123.3,269.4,140.8z"/>
		<path class="st7" d="M307,133.1l0.1-1.4l-2-1.7l-0.1-1.2c-4.3-1.2-8.4-2.1-13.8-2.3l0,0.5l-1,0l0-0.5c-4.8,0.2-8.9,0.6-13.6,2.1
			l-0.1,1l-2.3,1.8l-0.1,1.5C287.7,124.3,299.4,128,307,133.1z"/>
	</g>
</g>
<path class="st4" d="M290.9,169.9c6.9,0,12.6-5.5,12.6-12.2c0-6.7-5.7-12.2-12.6-12.2c-6.9,0-12.6,5.5-12.6,12.2
	C278.3,164.4,283.9,169.9,290.9,169.9z"/>
<path class="st8" d="M282.6,156.8l0-2.4h5.2c0.1,0,0.1,0,0.1-0.1l0-1.8c0-0.1-0.1-0.2-0.2-0.2h-7c-0.1,0-0.1,0-0.1,0.1l0,10.5
	c0,0.1,0.1,0.2,0.2,0.2h1.8c0.1,0,0.1,0,0.1-0.1l0-4.3h4.3c0.1,0,0.1,0,0.1-0.1l0-1.7c0-0.1-0.1-0.2-0.2-0.2H282.6L282.6,156.8z
	 M301.2,152.5c0-0.1-0.1-0.2-0.2-0.2h-1.8c0,0-0.1,0-0.1,0l-3.7,7.9l-3.8-7.9c0,0-0.2-0.1-0.2-0.1h-1.8c-0.1,0-0.1,0-0.1,0.1l0,10.5
	c0,0.1,0.1,0.2,0.2,0.2h1.8c0.1,0,0.1,0,0.1-0.1l0-6.1l2.9,5.6c0,0,0.2,0.1,0.2,0.1h1.7c0,0,0.1,0,0.1,0l2.7-5.6l0,5.8
	c0,0.1,0.1,0.2,0.2,0.2h1.8c0.1,0,0.1,0,0.1-0.1L301.2,152.5z"/>
<path class="st4" d="M135.7,168.8v-42.3h11.6V142h21.8v-15.5h11.6v42.3h-11.6v-16.6h-21.8v16.6H135.7L135.7,168.8z M19.5,143.5v25.4
	h35.6c11.3,0,16.7-11.8,10.9-20.9c4.8-5.9,2.7-21.4-10.6-21.3H27.7L19.4,137l36.1,0c2.5,1,2.8,5.1,0,6.4L19.5,143.5L19.5,143.5z
	 M31.2,153.5h24.2c2,0.2,2.9,4.3,0,5.1l-24.2,0.1V153.5L31.2,153.5z M70.4,168.9l24-42.3h12l24,42.3h-15l-0.7,0H90l6-10.6h12.7
	l-8.3-15.8l-15,26.4H70.4L70.4,168.9z M186.6,168.9v-42.2h11.6v42.2H186.6L186.6,168.9z M202.5,168.9l24-42.3h12l24,42.3h-15l-0.7,0
	h-24.6l6-10.6h12.7l-8.3-15.8l-15,26.4H202.5z"/>
<path class="st4" d="M182.9,171.5h77.1c2.2,0,3.9,1.8,3.9,3.9v12.4c0,2.2-1.8,3.9-3.9,3.9h-77.1c-2.2,0-3.9-1.8-3.9-3.9v-12.4
	C179,173.3,180.8,171.5,182.9,171.5z"/>
<g class="st1">
	<path class="st9" d="M187.1,178.5c0.2-0.1,2.5,0,2.9,0c1.8,0,2.1-0.2,2.1,0.8v4.4c0,1.4,0.1,1.1-3.3,1.1c-1.8,0-2.1,0.2-2.1-0.8
		v-4.4C186.7,179.1,186.6,178.7,187.1,178.5L187.1,178.5z M182.2,187.1c0.1,0.9,0.9,1.7,1.7,1.9c0.5,0.1,6.6,0,7.2,0
		c1.1,0,2.5,0.1,3.6,0c0.9-0.1,1.7-0.9,1.9-1.7c0.1-0.5,0-6.6,0-7.2c0-1.1,0.1-2.5,0-3.6c-0.1-1-0.9-1.8-1.7-1.9
		c-0.5-0.1-6.6,0-7.3,0c-1.1,0-2.5-0.1-3.6,0c-0.9,0.1-1.7,0.9-1.9,1.7c-0.1,0.5,0,6.6,0,7.2C182.2,184.6,182.1,186.1,182.2,187.1z"
		/>
	<path class="st9" d="M237.6,175.8c-0.3-0.3-0.9-1-1.4-1.2c-0.4-0.1-2.1-0.2-2.5-0.1c-0.7,0.2-0.5,1.2-0.5,2.1V187
		c0,2.4-0.2,2,3.1,2c1.1,0,1.2-0.2,1.2-1.3c0-0.8,0-4.7,0-5.1c0.4,0.4,0.9,0.8,1.3,1.3c0.2,0.2,0.4,0.4,0.7,0.6
		c0.2,0.2,0.4,0.4,0.6,0.7c0.9,0.9,1.7,1.7,2.6,2.6c0.3,0.3,1,1.1,1.4,1.2c0.4,0.1,2.1,0.2,2.5,0.1c0.7-0.2,0.6-1.2,0.6-2v-10.4
		c0-0.8,0.2-1.8-0.5-2c-0.3-0.1-2.1,0-2.6,0c-1.1,0-1.3,0.2-1.3,1.3c0,0.8,0,4.8,0,5.2L237.6,175.8z"/>
	<path class="st9" d="M207.7,181c-1.7-1.7-3.5-3.4-5.2-5.2c-0.3-0.3-0.9-1-1.4-1.2c-0.3-0.1-2.2-0.1-2.5,0c-0.7,0.2-0.5,1.3-0.5,2.1
		V187c0,2.4-0.2,2,3.1,2c1.1,0,1.2-0.2,1.2-1.3c0-0.8,0-4.7,0-5.1c0.4,0.4,0.8,0.9,1.3,1.3l3.9,3.9c0.3,0.3,0.9,1.1,1.4,1.2
		c0.4,0.1,2,0.1,2.4,0.1c0.8-0.1,0.6-1.3,0.6-2v-10.3c0-2.5,0.2-2.1-3.1-2.1c-1.2,0-1.3,0.1-1.3,1.3
		C207.7,176.7,207.8,180.4,207.7,181z"/>
	<path class="st9" d="M253.2,178.5c1.4-0.1,4.3,0,6,0c0.6,0,1.4,0.1,1.8-0.2c0.3-0.3,0.2-1.3,0.2-1.8c0-0.6,0.1-1.4-0.2-1.8
		c-0.3-0.3-1.3-0.2-1.8-0.2h-7.9c-2.3,0-2.5-0.3-2.5,1.4v11.9c0,0.7,0.1,1.1,0.8,1.2c2.6,0.1,5.3,0,7.9,0c4.2,0,3.8,0.4,3.8-2.1
		c0-2.1,0.1-2-2-2c-1.8,0-4.3,0.1-5.9,0l0-1.2c1-0.1,2.3,0,3.3,0c0.6,0,1.1,0.1,1.3-0.4c0.1-0.3,0.1-1.2,0.1-1.6c0-1.7,0.2-2-1.3-2
		c-1,0-2.3,0.1-3.3,0L253.2,178.5z"/>
	<path class="st9" d="M213.6,188.4c0.1,0.5,0.5,0.6,1,0.6h10c0.6,0,0.9-0.1,1-0.6c0.1-0.5,0.1-2.9-0.1-3.2c-0.2-0.4-0.8-0.3-1.4-0.3
		h-5c-1.2,0-1,0.2-1-0.7V176c0-0.6,0.1-1.1-0.3-1.3c-0.3-0.2-2.7-0.1-3.2-0.1c-0.6,0-1,0.1-1,0.6L213.6,188.4z"/>
	<path class="st9" d="M227.1,188.5c0.1,0.7,1.1,0.6,1.8,0.6c2.9,0,2.7,0.3,2.7-2c0-1.2,0.1-11.5,0-11.9c0-0.3-0.3-0.6-0.6-0.6
		c-0.3,0-3.3,0-3.5,0.1c-0.6,0.3-0.4,1.2-0.4,2C227.1,177.7,227,188.1,227.1,188.5z"/>
</g>
<g>
	<g class="st1">
		<g class="st6">
			<polygon class="st7" points="362.7,133.9 362.3,129.5 363.7,129 364.4,133.9 			"/>
			<polygon class="st7" points="364.9,129.9 365.6,129.9 365.6,133 365,133 			"/>
			<polygon class="st7" points="362,130 364,128.9 363.2,124 361,125.1 			"/>
			<polygon class="st7" points="363.7,129.5 364.9,129.5 365.1,133.6 364.3,133.6 			"/>
			<polygon class="st7" points="360.9,153.1 360.9,136.1 361.9,136.1 365,139.8 365,149.1 361.9,153.1 			"/>
			<path class="st7" d="M355.8,134.1h4.2c0.6,0,1.2,0.5,1.2,1.2v19.5c0,0.6-0.5,1.2-1.2,1.2h-4.2c-0.6,0-1.2-0.5-1.2-1.2v-19.5
				C354.7,134.6,355.2,134.1,355.8,134.1z"/>
			<path class="st7" d="M359.4,155.9v-21.8c1.6-0.2,1.8,0.9,1.8,1.3c0,6.4,0,12.8,0,19.2C361.1,155.6,360.5,156,359.4,155.9z"/>
			<path class="st7" d="M355.5,155.8l0-21.7c-0.2,0.1-0.9,0.4-0.9,1.5l0,19C354.7,155.4,355.2,155.7,355.5,155.8z"/>
			<path class="st7" d="M362.3,133.9h2.4l0,8.1c-0.5,1.1-1.7,1.5-2.4,0L362.3,133.9z"/>
			<rect x="362.1" y="133.9" class="st7" width="2.9" height="1.8"/>
		</g>
		<g class="st6">
			<polygon class="st7" points="316,133.9 316.4,129.4 314.9,128.9 314.3,133.9 			"/>
			<polygon class="st7" points="313.8,129.8 313.1,129.8 313.1,133 313.7,133 			"/>
			<polygon class="st7" points="316.7,129.9 314.6,128.8 315.4,124 317.7,125 			"/>
			<polygon class="st7" points="315,129.4 313.8,129.4 313.6,133.6 314.4,133.6 			"/>
			<polygon class="st7" points="317.7,153.1 317.7,136 316.7,136 313.7,139.7 313.7,149.1 316.7,153.1 			"/>
			<path class="st7" d="M322.8,134h-4.2c-0.6,0-1.2,0.5-1.2,1.2v19.5c0,0.6,0.5,1.2,1.2,1.2h4.2c0.6,0,1.2-0.5,1.2-1.2v-19.5
				C324,134.6,323.5,134,322.8,134z"/>
			<path class="st7" d="M319.3,155.8V134c-1.6-0.2-1.8,0.9-1.8,1.3c0,6.4,0,12.8,0,19.2C317.6,155.5,318.2,155.9,319.3,155.8z"/>
			<path class="st7" d="M323.1,155.8l0-21.7c0.2,0.1,0.9,0.4,0.9,1.5l0,19C323.9,155.4,323.5,155.7,323.1,155.8z"/>
			<path class="st7" d="M316.4,133.9h-2.4l0,8.1c0.5,1.1,1.7,1.5,2.4,0L316.4,133.9z"/>
			<rect x="313.7" y="133.8" class="st7" width="2.9" height="1.8"/>
		</g>
		<g class="st6">
			<path class="st7" d="M315.7,123.8l1.9,0.8c10.9-16.1,36.2-13.9,43.3,0.2l1.9-0.9C358.5,104.1,319.2,104.4,315.7,123.8z"/>
			<path class="st7" d="M357.3,115.2l0.1-1.6l-2.2-1.8l-0.1-1.3c-4.7-1.3-9.3-2.3-15.3-2.5l0,0.5l-1.1,0l0-0.6
				c-5.4,0.2-9.8,0.7-15.1,2.3l-0.1,1.1l-2.6,2l-0.1,1.7C336,105.5,348.9,109.6,357.3,115.2z"/>
		</g>
	</g>
	<path class="st4" d="M339.5,155.9c7.7,0,14-6.1,14-13.5c0-7.5-6.3-13.5-14-13.5c-7.7,0-14,6.1-14,13.5
		C325.5,149.8,331.8,155.9,339.5,155.9z"/>
	<path class="st8" d="M330.4,141.4l0-2.7h5.7c0.1,0,0.1,0,0.1-0.1l0-1.9c0-0.1-0.1-0.2-0.2-0.2h-7.8c-0.1,0-0.1,0-0.1,0.1l0,11.6
		c0,0.1,0.1,0.2,0.2,0.2h1.9c0.1,0,0.1,0,0.1-0.1l0-4.8h4.8c0.1,0,0.1,0,0.1-0.1l0-1.9c0-0.1-0.1-0.2-0.2-0.2H330.4L330.4,141.4z
		 M350.9,136.7c0-0.1-0.2-0.2-0.3-0.2h-2c-0.1,0-0.1,0-0.1,0l-4.1,8.8l-4.2-8.7c0,0-0.2-0.1-0.3-0.1h-2c-0.1,0-0.1,0-0.1,0.1l0,11.7
		c0,0.1,0.1,0.2,0.2,0.2h2c0.1,0,0.1,0,0.1-0.1l0-6.8l3.2,6.2c0,0,0.2,0.1,0.2,0.1h1.8c0,0,0.1,0,0.1,0l3-6.2l0,6.5
		c0,0.1,0.1,0.2,0.2,0.2h1.9c0.1,0,0.1,0,0.1-0.1L350.9,136.7z"/>
	<path class="st7" d="M167.6,154.8v-46.8h12.8v17.2h24.2v-17.2h12.8v46.8h-12.8v-18.4h-24.2v18.4H167.6L167.6,154.8z M39,126.7v28.1
		h39.4c12.5,0,18.5-13.1,12.1-23.1c5.3-6.6,3-23.7-11.8-23.6H48.1l-9.2,11.5l39.9,0c2.7,1.1,3.1,5.7,0,7.1L39,126.7L39,126.7z
		 M51.9,137.8h26.8c2.3,0.2,3.2,4.7,0,5.7l-26.8,0.1V137.8L51.9,137.8z M95.4,154.8l26.5-46.8h13.3l26.5,46.8h-16.6l-0.8,0H117
		l6.6-11.7h14l-9.1-17.5L112,154.8H95.4L95.4,154.8z M224.1,154.8V108h12.8v46.8H224.1L224.1,154.8z M241.7,154.8l26.5-46.8h13.3
		l26.5,46.8h-16.6l-0.8,0h-27.3l6.6-11.7h14l-9.1-17.5l-16.6,29.2H241.7z"/>
	<path class="st4" d="M244.3,157.7h61.1c2.4,0,4.3,2,4.3,4.3v13.8c0,2.4-2,4.3-4.3,4.3h-61.1c-2.4,0-4.3-2-4.3-4.3v-13.8
		C240,159.7,241.9,157.7,244.3,157.7z"/>
	<path class="st8" d="M258.1,175.6h-2.9v-6.1h-5.8v6.1h-2.9v-13.8h2.9v5.5h5.8v-5.5h2.9V175.6L258.1,175.6z M272,175.6h-3.1l-1-3.1
		c-0.1-0.3-0.2-0.7-0.4-0.9c-0.2-0.3-0.4-0.5-0.6-0.7c-0.2-0.2-0.5-0.4-0.8-0.5c-0.3-0.1-0.7-0.2-1.1-0.2h-1.1v5.5h-2.8v-13.8l5.8,0
		c0.6,0,1.2,0.1,1.7,0.3c0.5,0.2,1,0.5,1.4,0.8c0.4,0.4,0.7,0.8,0.9,1.3c0.2,0.5,0.3,1,0.3,1.6c0,0.4-0.1,0.8-0.2,1.2
		c-0.1,0.4-0.3,0.7-0.6,1.1c-0.2,0.3-0.5,0.6-0.9,0.9c-0.3,0.2-0.7,0.4-1.1,0.6c0.5,0.2,0.8,0.4,1.1,0.7c0.3,0.3,0.5,0.7,0.7,1.1
		c0.1,0.2,0.2,0.4,0.2,0.6c0.1,0.2,0.1,0.4,0.2,0.6c0.1,0.2,0.2,0.4,0.3,0.7c0.1,0.2,0.2,0.5,0.3,0.8c0.1,0.4,0.3,0.7,0.4,1
		C271.7,175.2,271.8,175.4,272,175.6L272,175.6z M268.2,166c0-0.3-0.1-0.6-0.2-0.9c-0.1-0.3-0.3-0.5-0.5-0.7
		c-0.2-0.2-0.5-0.3-0.8-0.5c-0.3-0.1-0.6-0.2-1-0.2h-2.1v4.3h2.1c0.3,0,0.7,0,1-0.1c0.3-0.1,0.6-0.2,0.8-0.4
		c0.2-0.2,0.4-0.4,0.5-0.7C268.2,166.6,268.2,166.3,268.2,166L268.2,166z M288.4,175.6h-2.8v-9.2l-4.6,7.3l-4.5-7.4v9.3h-2.8v-13.8
		h3.2l4.1,6.8l4.3-6.8h3.1V175.6L288.4,175.6z M304.7,173.1c-0.4,0.5-0.9,0.9-1.4,1.2c-0.5,0.4-1,0.6-1.5,0.9
		c-0.5,0.2-1.1,0.4-1.6,0.5c-0.6,0.1-1.1,0.2-1.7,0.2c-1.1,0-2.1-0.2-3.1-0.6c-1-0.4-1.8-0.9-2.5-1.5c-0.7-0.6-1.3-1.4-1.7-2.3
		s-0.6-1.8-0.6-2.8c0-1,0.2-1.9,0.6-2.8c0.4-0.9,1-1.6,1.7-2.3c0.7-0.6,1.6-1.2,2.5-1.5c1-0.4,2-0.6,3.1-0.6c1.3,0,2.4,0.2,3.5,0.7
		c1,0.5,1.9,1.1,2.6,1.9l-1.9,1.8c-0.6-0.7-1.2-1.2-1.9-1.5c-0.7-0.3-1.5-0.5-2.3-0.5c-0.7,0-1.4,0.1-2,0.4c-0.6,0.2-1.1,0.6-1.6,1
		c-0.5,0.4-0.8,0.9-1.1,1.5c-0.3,0.6-0.4,1.2-0.4,1.8c0,0.6,0.1,1.2,0.4,1.8c0.3,0.6,0.6,1,1.1,1.5s1,0.8,1.6,1
		c0.6,0.2,1.3,0.4,2,0.4c0.7,0,1.3-0.1,1.9-0.3c0.6-0.2,1.1-0.5,1.6-0.9v-1.3h-3v-2.3h5.8V173.1z"/>
</g>
<g class="st1">
	<polygon class="st10" points="212.9,224.8 212.9,322.4 -185.5,322.4 -185.5,242.4 209.7,227.6 	"/>
	<path class="st5" d="M62.2,219.6c-0.7-4.2-0.8-8.7,1.1-12.1c1.1-1.9,2.7-1.9,5.4-2.2c5.5-0.6,4-0.5,4.1,1.5l1.9-2.1
		c1.2,2,0.6,3.2,1,1.9c0-0.1,0.1,0.3,0.2,0.4l0.8-2.4l7.4-0.2l2.8,12.6l-0.7,0.6c-1.8,1.7-1.1,1.5-2.8,2c-1.2,0.3-4.2,0.1-5.6,0.1
		l-1.2-2.4c-1.4,2.4-0.8,2.3-2,2.1c-0.9-0.1-1.4-0.7-1.6-1.6c-0.1-0.2-0.1-0.3-0.3-0.4c-5.7,4.1-2.2,1.2-7.1,2l-0.7-4L62.2,219.6
		L62.2,219.6z M88.5,219.9c-1.1-5.7-0.1-10.3,2.1-14.8l5.9-0.1l1.2,2.4c0.1,0.1,0.2,0.2,0.3,0.3c0.1,0.1,0.3,0.4,0.3,0.3
		c0-0.1,0.2,0.2,0.3,0.3l0.6-0.7c1.4-2-0.1-0.4,1.2-2.2c2.9-0.1,6.3-0.6,8.6,0.6l-1.5,4.7l2.1,0.4c0.1,0,0.6,0.1,0.8,0.2
		c-0.6-2.9-0.9-2.7-0.1-5.9c1.8,0.1,6.9-0.1,8.4,0.8c0.7,0.4-0.2-0.3,0.7,0.7l0.5,0.7c0.2-0.7,0.4-1.5,1.2-1.3l-1.7,6.4
		c-0.2,1.9,0.6,4.4-0.9,6.5l-22.2,0.6C93.9,219.9,90.9,219.9,88.5,219.9L88.5,219.9z M60.5,206.1c-3.7-1.2-8.3-1.5-12.2-2.2l0.2,4.6
		c1.2-1,1-1,2.1-3.1l-1.9,12.5l1.8-2.3l1.7,2.4l0.6-2.8c1.7,0.9,1.1,2.6,2.2,3.3l4.5,1.1C61.7,216.2,60.7,213,60.5,206.1L60.5,206.1
		z M-185.3,244.1c5.8-0.5,1.1,1.1,8.4-0.5c2.1-0.4,7.4-0.3,10-0.5c9.9-0.6,16.2,0.3,26.2-0.4c2.3-0.2,4.8-1.6,11.6-1.8
		c8.8-0.3,18-0.2,26.7-0.6c14.3-0.7,22.6,1,38.4-0.6c10.8-1.1,27.4-3.3,38-2.5c4.3,0.3,8.8-0.3,13.1-0.4c4-0.1,8.1,0.2,12.3,0.2
		c9.8-0.6,12.6-1.4,21.3-0.4l20.8-1.6c5.1-0.2,9.3-0.2,14.3-0.4c10.9-0.9,22.4-1.5,33.5-1.4c5.6,0,11.1,0.3,16.7,0
		c3-0.1,11.7,0.2,14.2-1.9c1.1-1,15.9,0.7,19.1,0.3l31.8-1.4c3.5,0.1,5.5-0.3,8.4-0.8l21.6-0.7l0.9-2.5c0.1,0.1,0.2,0.2,0.2,0.4
		c0.2,0.7,0.8,2.7,2.6,1.9l2.8-2.6l1.6,2.9c1.5-2.5,0.1-2.8,0.5-5.6c0.5-3.1-0.3,0.3,3-3.7c-8.6,0.3-5.8,0.3-6.8,0
		c-0.1,0-0.3-0.2-0.4-0.2c-0.1,0-0.3-0.1-0.4-0.2c-1.7,0.3-2.3,0.5-3.5-0.3l-8.6,0.4l-1.5-2.2l-1.9,2c-6.7-0.6-8.5,0.3-14.9,0.1
		l-0.6-2.2c-0.3,1.2-1,2.1-2.1,2.3l-0.5-3.4l-2.7,2.3c-4.2,2.4-3,0.4-11.8,1.3l-0.1-3.7c-1.2,1.7-0.8,1.1-1.3,3
		c-2.8-3.2-0.3-1.6-2.1-2.5l0.3,2.7c-7.3,0.1-8,1-10.2-2.1l-0.9,2.4l-10.7,0.1l-1-2.4c-2.1,2.3-1.5,2.3-5.1,2.4
		c-8.2,0.1-5.9-0.9-3.5-14.2l28.8,0.9c5.7-0.3-0.9,1.3,9.9,0.2c1.7,2,0.6,1.2,1.5,1.5c2-1.7,3-1.4,5.1-1.1
		c3.9,0.6,13.1,0.3,15.2,0.6c3.7,0.5,1.8,0,2.5,3.3c0.4,1.9-0.4,0.3,0.4,1.1l0.3-3.6l3.1,1l-0.4-1c0-0.1-0.1-0.3-0.1-0.4
		c-0.5-1.3-0.4,0.6-0.1-0.4l5.1,0.2c1.1,0.4-0.7,1.2,2.1,0.6c1.9-0.4,0.7,0.6,1.5-1.2c-1.3,0.1-2.8-1.3-4.2-1.7
		c-4-1.4-13.6,1-16.7-1.4c-3.1,0.7-19.1-0.5-26.3-0.4c-3.5,0-4.2-0.8-7.3-1c-4.9-0.4-4.6,0.7-8.2,1c-2.7,0.2-4.7-1-7.8-1.2
		c-3.2-0.2-5.4,0-8.4-0.2c-7.5-0.6-37.5-1.5-42.3-0.9c-8.9,1.1-22.7-3.3-32,1.3l4,0.6c0.3,7.6,1.5,12.7-1.6,16.4l-12.2,0.2
		c0.6-2,0.5,0.4,0.8-1.3c0-0.2,0.3-0.2,0.4-0.3l-3.2-0.2c-0.4-2.1-0.2-1.5-1-2.6c-0.5,2-0.2,1.4-1,2.4l-6.9-0.5l1.8,2.4l-13.2,0.3
		c-6.3,0.2-7.3,1.2-10.6-2.6l-1.5,2.6l-3.9,0l-0.4-1.5c0-0.2-0.1-0.2-0.2-0.4c-2.3,0-5.8-0.4-7.7,0.4c-0.1,0.1-0.3,0.2-0.4,0.2
		l-0.7,0.4c-1.3,0.6-1.2,0.2-3.4,0.1c-1.7-0.1-2.7,0-4.4-0.2c-3-0.3-4.3,0.4-7.9,0.5c-7.6,0.1-3.6-1.2-6.2-2.6
		c-0.9,2.3-1.1,3.2-5.6,2.6l-0.5-4.8l-2.2-0.9c0.8-5.5,1.4-5.8,0.6-10.1l-1.6,0.3l-0.6,15.4l-4-1.6l-0.4,0.7c-0.9,1.1-0.2,0.6-1.3,1
		c-0.8,0.3-2.3,0.2-3.2,0.2c-16.1,0.1-13.6,2.6-14.5-5c-1.5,3.5-0.6,2.6-1.3,5.3l-1.4-1c-3.2-2.8-2.2-0.7-2.6-1.9
		c-0.1-0.2-0.3-0.1-0.4-0.2l0.3-3.5l-0.5-0.2c-4-2.2,0.8,1.1-1.2-0.8c-1.2-1.2-1.2-2.5-1.9-5.1c-0.6-2.1-1.1-5-2.1-7.1
		c-0.1,2.2-0.2,1.5,0.4,3.7c2.1,7.2,0.9,8,3.7,10.1c-1.2,5.4-0.5,2.5-0.3,5.7l-4.1,0.3l-0.3-6.3c-3.2,1.4-2.2,0.2-3,0.5
		c-0.2,7.1,0.9,5.2-1.5,5.7c-3.9,0.8-1.2-1.5-2.3-4.2l-1.1,4.5c-0.5-0.3-1.8-0.8-1.9-1.4c0-0.2-0.2-0.2-0.2-0.3l-4,1.5l-1.7-5.9
		c-1.8,5.6,1.7,5.7-2.6,6.2l-0.9-14.7l3.1-0.6c-1.7-1.4-4.4-2.1-6.3-2.4c-4-0.6-21.5,1.5-23.3,2.6l6.2,0.2l0.2,9l-3.9,0.9
		c2.2,4.5,1.3,4.1-0.1,5.2c-0.7-1.6-0.7-1.3-0.9-3.1c-0.2-1.6-0.1-1.7-0.4-3.1c-1.6,4.6,0.1,2.8-1.1,6.3c-3.7-1.5-4.7-2.3-8.7-0.6
		c-2.2,0.9-2.3,0.7-5,0.7c-5.8,0-22.4,0-25.9,0.7l-1.5,0.8l1.2,1.1l-3.7,1c-0.3-0.8,0.3,0.7,0-0.8l-0.1-0.3c-3.5-0.2-4,0.9-6.2,0.6
		c-0.9-0.1-5-0.1-7.7-0.2c-3.9-0.2,2.2-0.7-0.3-0.6L-185.3,244.1z"/>
</g>
<g>
	<g>
		<g>
			<polygon class="st7" points="322.3,177.7 319.8,149.1 329.1,145.7 333,177.7 			"/>
			<polygon class="st7" points="336.2,151.8 340.9,151.8 340.9,172.1 337.2,172.1 			"/>
			<polygon class="st7" points="317.8,152.2 330.9,145.3 325.8,113.7 311.4,120.5 			"/>
			<polygon class="st7" points="328.6,149.2 336.3,149.2 337.5,175.8 332.4,175.8 			"/>
			<polygon class="st7" points="311,301.9 311,191.8 317.4,191.8 336.9,215.8 336.9,276.1 317.4,301.9 			"/>
			<path class="st7" d="M277.9,178.8h26.9c4.1,0,7.5,3.4,7.5,7.5v125.9c0,4.1-3.4,7.5-7.5,7.5h-26.9c-4.1,0-7.5-3.4-7.5-7.5V186.3
				C270.4,182.2,273.8,178.8,277.9,178.8z"/>
			<path class="st7" d="M300.7,319.7v-141c10.3-1.1,11.6,5.6,11.6,8.4c0,41.5,0,82.9,0,124.4C312.1,317.9,308,320.5,300.7,319.7z"/>
			<path class="st7" d="M276.1,319.5l0-140.4c-1.6,0.4-6,2.4-5.8,9.4l0,123.1C270.9,316.8,273.7,318.7,276.1,319.5z"/>
			<path class="st7" d="M319.7,177.7h15.7l0,52.3c-3.1,7.4-11.2,9.5-15.8,0L319.7,177.7z"/>
			<rect x="318.4" y="177.6" class="st7" width="18.5" height="11.5"/>
		</g>
		<g>
			<polygon class="st7" points="20.3,177.4 22.8,148.8 13.5,145.4 9.6,177.4 			"/>
			<polygon class="st7" points="6.3,151.5 1.6,151.5 1.6,171.8 5.4,171.8 			"/>
			<polygon class="st7" points="24.8,151.9 11.7,144.9 16.8,113.4 31.2,120.2 			"/>
			<polygon class="st7" points="14,148.9 6.3,148.9 5,175.5 10.2,175.4 			"/>
			<polygon class="st7" points="31.6,301.6 31.6,191.5 25.2,191.5 5.7,215.5 5.7,275.8 25.2,301.6 			"/>
			<path class="st7" d="M64.7,178.5H37.7c-4.1,0-7.5,3.4-7.5,7.5v125.9c0,4.1,3.4,7.5,7.5,7.5h26.9c4.1,0,7.5-3.4,7.5-7.5V186
				C72.2,181.9,68.8,178.5,64.7,178.5z"/>
			<path class="st7" d="M41.8,319.4v-141c-10.3-1.1-11.6,5.6-11.6,8.4c0,41.5,0,82.9,0,124.4C30.5,317.5,34.6,320.2,41.8,319.4z"/>
			<path class="st7" d="M66.5,319.2l0-140.4c1.6,0.4,6,2.4,5.8,9.4l0,123.1C71.7,316.4,68.9,318.3,66.5,319.2z"/>
			<path class="st7" d="M22.9,177.4H7.1l0,52.3c3.1,7.4,11.2,9.5,15.8,0L22.9,177.4z"/>
			<rect x="5.7" y="177.3" class="st7" width="18.5" height="11.5"/>
		</g>
		<g>
			<path class="st7" d="M18.6,112.1l12.1,5.1c70.8-103.8,233.8-89.8,279.6,1.4l12.5-5.9C294.9-15.2,41.2-13.3,18.6,112.1z"/>
			<path class="st7" d="M287.5,57l0.4-10.1L273.4,35l-0.7-8.6C242.1,18,212.4,11.6,174,10.3l0,3.5l-6.8,0.2l0.1-3.7
				c-34.7,1.1-63.3,4.6-97.6,15l-0.4,7.2L52.6,45.6l-0.9,10.8C149.5-6,233.2,20.6,287.5,57z"/>
		</g>
	</g>
	<path class="st7" d="M172.3,301.9c40.1,0,72.9-31.7,72.9-70.7c0-38.9-32.7-70.6-72.9-70.6c-40.1,0-72.9,31.7-72.9,70.6
		C99.4,270.2,132.1,301.9,172.3,301.9z"/>
	<path class="st0" d="M135.2,227.5l0-11h23.4c0.4,0,0.3,0,0.4-0.3l0-7.9c0-0.3-0.6-0.8-1-0.8h-31.6c-0.4,0-0.3,0-0.4,0.3l0,47.5
		c0,0.3,0.6,0.8,1,0.8h7.9c0.4,0,0.3,0,0.4-0.3l0-19.5h19.4c0.3,0,0.3,0,0.3-0.3l0-7.7c0-0.3-0.6-0.8-0.9-0.8H135.2L135.2,227.5z
		 M219,208.2c0-0.3-0.7-0.8-1.1-0.8h-8c-0.2,0-0.3,0-0.4,0.1l-16.8,35.9L175.6,208c0-0.1-0.8-0.6-1-0.6h-8.1c-0.4,0-0.3,0-0.3,0.3
		l0,47.5c0,0.3,0.5,0.8,0.9,0.8h8c0.4,0,0.3,0,0.4-0.3l0.1-27.5l13.1,25.3c-0.1,0.1,0.7,0.6,1,0.6h7.5c0.1,0,0.3,0,0.4-0.1
		l12.4-25.1l-0.2,26.4c0,0.3,0.6,0.8,1,0.8h7.9c0.4,0,0.3,0,0.4-0.3L219,208.2z"/>
</g>
<path class="st11" d="M249.2,330.2h-154c-6.6,0-12-5.4-12-12v-29.3c0-6.6,5.4-12,12-12h154c6.6,0,12,5.4,12,12v29.3
	C261.2,324.8,255.8,330.2,249.2,330.2z"/>
<g>
	<path class="st12" d="M131.5,304.3c0,2.5-0.4,4.7-1.3,6.6s-2.1,3.3-3.7,4.4c-1.6,1-3.5,1.5-5.6,1.5c-2.1,0-3.9-0.5-5.5-1.5
		s-2.9-2.5-3.8-4.3s-1.3-4-1.3-6.5V303c0-2.5,0.4-4.7,1.3-6.6s2.1-3.4,3.7-4.4s3.5-1.5,5.5-1.5s3.9,0.5,5.5,1.5
		c1.6,1,2.9,2.4,3.7,4.3s1.3,4.1,1.3,6.6V304.3z M127.1,302.9c0-2.8-0.5-5-1.6-6.5s-2.6-2.3-4.6-2.3c-1.9,0-3.4,0.8-4.5,2.3
		s-1.6,3.6-1.7,6.4v1.5c0,2.8,0.5,5,1.6,6.5s2.6,2.3,4.6,2.3c2,0,3.5-0.8,4.5-2.3s1.6-3.7,1.6-6.6V302.9z"/>
	<path class="st12" d="M156.2,316.4h-4.4l-11.4-18.2v18.2h-4.4v-25.6h4.4l11.4,18.2v-18.2h4.4V316.4z"/>
	<path class="st12" d="M166,312.8h11.6v3.6h-16.1v-25.6h4.4V312.8z"/>
	<path class="st12" d="M185.7,316.4h-4.4v-25.6h4.4V316.4z"/>
	<path class="st12" d="M211.4,316.4H207l-11.4-18.2v18.2h-4.4v-25.6h4.4L207,309v-18.2h4.4V316.4z"/>
	<path class="st12" d="M231.7,305h-10.5v7.8h12.3v3.6h-16.7v-25.6h16.6v3.6h-12.2v7.1h10.5V305z"/>
</g>
</svg>
