<?xml version="1.0" encoding="utf-8"?>
<!-- Generator: Adobe Illustrator 21.0.0, SVG Export Plug-In . SVG Version: 6.00 Build 0)  -->
<svg version="1.1" id="Capa_1" xmlns="http://www.w3.org/2000/svg" xmlns:xlink="http://www.w3.org/1999/xlink" x="0px" y="0px"
	 viewBox="0 0 342.9 342.9" style="enable-background:new 0 0 342.9 342.9;" xml:space="preserve">
<style type="text/css">
	.st0{fill-rule:evenodd;clip-rule:evenodd;fill:#FFCB05;}
	.st1{display:none;}
	.st2{display:inline;fill-rule:evenodd;clip-rule:evenodd;stroke:#000000;stroke-width:0.5;stroke-miterlimit:2.6131;}
	
		.st3{display:none;fill-rule:evenodd;clip-rule:evenodd;fill:none;stroke:#000000;stroke-width:0.7498;stroke-linejoin:round;stroke-miterlimit:22.9256;}
	.st4{display:none;fill-rule:evenodd;clip-rule:evenodd;}
	.st5{display:inline;fill-rule:evenodd;clip-rule:evenodd;}
	.st6{display:inline;}
	.st7{fill-rule:evenodd;clip-rule:evenodd;}
	.st8{display:none;fill-rule:evenodd;clip-rule:evenodd;fill:#FFFFFF;}
	.st9{display:inline;fill-rule:evenodd;clip-rule:evenodd;fill:#FFFFFF;}
	.st10{fill-rule:evenodd;clip-rule:evenodd;fill:#FFFFFF;}
	.st11{display:inline;fill-rule:evenodd;clip-rule:evenodd;fill:#00AEEF;}
</style>
<rect x="-23.5" y="-14.3" class="st0" width="390" height="371.7"/>
<g class="st1">
	<path class="st2" d="M270.8,15.4c7.8-1.4,18.7-1.6,24.2-0.6l1-0.7c3.2-5.3,6.6-10.1,10.9-13.4l-9.3,18.1L270.8,15.4z"/>
	<path class="st2" d="M320.6,4.9c4.7-0.8,11.4-1,14.7-0.4l0.6-0.4c1.9-3.2,4-6.1,6.6-8.2L337,7L320.6,4.9z"/>
	<path class="st2" d="M320.4,32.4c4.7-0.8,11.4-1,14.7-0.4l0.6-0.4c1.9-3.2,4-6.1,6.6-8.2l-5.7,11L320.4,32.4z"/>
</g>
<path class="st3" d="M187.5,225.3c2.3,0,4.6-0.5,6.2-1.3c0.8-0.4,1-0.4,1.8-0.9c2.5-1.6,4.2-3.4,5.6-6.2c2-3.9,2-9.1,0-13
	c-1.2-2.5-3.6-5.2-6.2-6.5l-1.2-0.6c-1.6-0.8-3.9-1.3-6.2-1.3c-4.5,0-8.2,2.1-10.5,4.4c-2.3,2.3-4.3,6.3-4.3,9.6
	c0,0.4-0.1,0.5-0.1,0.9l0.1,1.7c0.6,4.5,2.6,7.8,6.3,10.5c0.4,0.3,0.7,0.5,1.2,0.7l1.8,0.9C183.8,224.9,185.5,225.3,187.5,225.3z"/>
<path class="st4" d="M185.6,205.4v2.2h-1.7v2.9h1.7v8.1h3.3v-8.2h2.3c0-1,0.2-1.8,0.2-2.8h-2.5c0-2.7-0.3-2.4,2.5-2.4v-2.9
	c-1.8,0-3.9-0.3-5,0.8C185.9,203.7,185.6,204.3,185.6,205.4z"/>
<path class="st3" d="M110.2,225.4h1c7.7,0,14.7-6.9,14.7-14.6v-1c0-7.7-7-14.6-14.7-14.6c-4.4,0-7.1,1.1-10.3,3.6
	c-0.2,0.1-0.3,0.3-0.5,0.5c-2.5,2.1-4.8,6.3-4.8,11c0,4.3,1.6,7.7,4.3,10.6l1.4,1.3C103.6,224,107,225.4,110.2,225.4z"/>
<g class="st1">
	<path class="st5" d="M110.2,207.6c-1.7,0.4-2.5,2-2.1,3.5c1,3.6,6.5,2.2,5.6-1.4C113.3,208.4,111.9,207.2,110.2,207.6z"/>
	<path class="st5" d="M103.6,214.8c0,1.5,1.3,2.8,2.8,2.8h8.9c1.5,0,2.8-1.3,2.8-2.8v-6.5l-4.2,0c1.8,2.6-0.1,5.8-3.1,5.8
		c-1.5,0-2.7-0.9-3.2-1.9c-0.3-0.6-0.5-1.3-0.5-2.1c0.1-0.9,0.4-1.3,0.7-1.9h-4.2V214.8z"/>
	<path class="st5" d="M107.4,206.7h-0.6v-3.6l-0.4,0c0,0.1,0,0-0.1,0.2l0,3.4l-0.6,0l0-3.5c-0.5,0.1-0.5,0.1-0.4,0.5l0,3h-0.6l0-3
		c-0.4,0.1-1,0.9-1.1,1.5c-0.2,0.6-0.1,1.9-0.1,2.6c1.4,0,2.8,0,4.1,0c0.6,0,0.4,0,0.8-0.3c1-0.9,2.7-1.1,4-0.5
		c0.9,0.4,0.8,0.7,1.4,0.7c1.4,0,2.8,0,4.2,0c0-1.2,0.2-2.5-0.4-3.4c-0.5-0.7-1.3-1.3-2.5-1.3c-1.1,0-7.1-0.1-7.8,0L107.4,206.7z"/>
</g>
<path class="st4" d="M110.4,208.3c-2.8,0.6-1.8,4.6,0.9,4.1C114,211.9,113.1,207.7,110.4,208.3z"/>
<path class="st3" d="M134.2,210.2c0,2.5,0.5,4.7,1.4,6.5c0.5,1,1.1,2.1,1.7,2.9l1.4,1.5c3,3,6.6,4.4,11,4.4c4.4,0,8.6-2.1,11.4-5.4
	c3.7-4.4,4.7-10.8,2.2-16c-1-2.1-2.3-3.8-4-5.3c-0.2-0.2-0.3-0.3-0.5-0.4c-5.1-4.2-13.4-4.2-18.5-0.1c-0.9,0.7-1.7,1.4-2.4,2.3
	l-0.8,1C135.3,203.9,134.2,207.3,134.2,210.2z"/>
<path class="st4" d="M149.7,208.1c0,0.3,0.1,0.3,0.1,0.7c-0.6-0.1-0.9-0.1-2-0.4c-1-0.3-2.4-1-3.2-1.7l-1.3-1.2
	c-0.5,1-0.6,2.1-0.1,3.1c0.3,0.5,0.6,0.6,0.9,1c-0.6,0-0.8-0.3-1.3-0.4c0,0.8,0.2,1.5,0.6,2c0.3,0.4,1,1,1.6,1.1
	c-0.1,0.2,0,0.1-0.8,0.1c-0.2,0-0.2,0-0.4-0.1c0.1,1,1.4,2.2,2.8,2.3c-0.2,0.4-1.3,0.8-1.9,1c-0.9,0.3-1.5,0.2-2.6,0.2
	c0.5,0.7,3.2,1.5,4.5,1.5c2.1,0,3.2-0.3,4.8-1.1c0.3-0.1,0.5-0.3,0.8-0.5c2.1-1.5,3.7-4.4,3.7-7c0-0.7-0.1-0.7,0.3-1
	c0.5-0.4,0.9-0.9,1.3-1.4c-0.5,0.1-1,0.4-1.6,0.4c0.1-0.1,0.9-0.7,1.2-1.7c-0.4,0.2-1.5,0.7-2,0.7c-0.2,0-1.7-1.7-3.8-0.6
	C150.5,205.8,149.7,206.9,149.7,208.1z"/>
<path class="st4" d="M212.3,214.1v0.4c0.8,0.7,1.5,0.9,2.7,1.1c0.1,0.7,0.1,1.4,1,1.3c0.8-0.1,1.4-0.3,2.2-0.1
	c1.1,0.3,1.9,1.4,3.4,1.7c2.7,0.6,3.7-1.6,5.6-1.8c2.1-0.2,2.3,1,2.7-1.2c1.2-0.1,2-0.4,2.7-1.1v-0.4c-0.4-0.4-1.7-0.4-2.9-1.5
	c-0.5-0.5-1.8-1.8-1.6-2.9c0.5-0.7,2.1-0.7,2.4-1.5c0.2-0.6-0.3-1-0.8-1c-0.7-0.1-0.9,0.4-1.8,0.3c0-2.4,0.5-4-0.9-5.7
	c-2.3-2.9-7-2.9-9.2,0c-1.3,1.7-0.9,3.4-0.9,5.7c-0.9,0.1-0.9-0.2-1.6-0.3c-0.6,0-1.2,0.3-1.1,0.9c0.3,1.5,3.8,0.4,1.9,3.3
	c-0.1,0.2-0.3,0.5-0.5,0.6c-0.4,0.5-1.2,1.2-1.8,1.5C213.5,213.7,212.6,213.8,212.3,214.1z"/>
<path class="st3" d="M222.6,224.6c2.3,0,4.6-0.5,6.2-1.3c0.8-0.4,1-0.4,1.8-0.9c2.5-1.6,4.2-3.4,5.6-6.2c2-3.9,2-9.1,0-13
	c-1.2-2.5-3.6-5.2-6.2-6.5l-1.2-0.6c-1.6-0.8-3.9-1.3-6.2-1.3c-4.5,0-8.2,2.1-10.5,4.4c-2.3,2.3-4.3,6.3-4.3,9.6
	c0,0.4-0.1,0.5-0.1,0.9l0.1,1.7c0.6,4.5,2.6,7.8,6.3,10.5c0.4,0.3,0.7,0.5,1.1,0.7l1.8,0.9C218.8,224.1,220.5,224.6,222.6,224.6z"/>
<g class="st1">
	<g class="st6">
		<polygon class="st7" points="311.8,150 311.5,146 312.8,145.5 313.3,150 		"/>
		<polygon class="st7" points="313.8,146.4 314.4,146.4 314.4,149.2 313.9,149.2 		"/>
		<polygon class="st7" points="311.2,146.4 313,145.5 312.3,141.1 310.3,142 		"/>
		<polygon class="st7" points="312.7,146 313.8,146 314,149.7 313.2,149.7 		"/>
		<polygon class="st7" points="310.2,167.3 310.2,152 311.1,152 313.9,155.3 313.9,163.7 311.1,167.3 		"/>
		<path class="st7" d="M305.6,150.2h3.8c0.6,0,1,0.5,1,1v17.6c0,0.6-0.5,1-1,1h-3.8c-0.6,0-1-0.5-1-1v-17.6
			C304.6,150.6,305,150.2,305.6,150.2z"/>
		<path class="st7" d="M308.8,169.8v-19.7c1.4-0.1,1.6,0.8,1.6,1.2c0,5.8,0,11.6,0,17.4C310.4,169.6,309.8,169.9,308.8,169.8z"/>
		<path class="st7" d="M305.4,169.8l0-19.6c-0.2,0.1-0.8,0.3-0.8,1.3l0,17.2C304.6,169.4,305,169.7,305.4,169.8z"/>
		<path class="st7" d="M311.5,150h2.2l0,7.3c-0.4,1-1.6,1.3-2.2,0L311.5,150z"/>
		<rect x="311.3" y="150" class="st7" width="2.6" height="1.6"/>
	</g>
	<g class="st6">
		<polygon class="st7" points="269.6,150 270,146 268.7,145.5 268.1,150 		"/>
		<polygon class="st7" points="267.7,146.3 267,146.3 267,149.2 267.5,149.2 		"/>
		<polygon class="st7" points="270.3,146.4 268.4,145.4 269.1,141 271.2,142 		"/>
		<polygon class="st7" points="268.7,146 267.7,146 267.5,149.7 268.2,149.7 		"/>
		<polygon class="st7" points="271.2,167.3 271.2,151.9 270.3,151.9 267.6,155.3 267.6,163.7 270.3,167.3 		"/>
		<path class="st7" d="M275.8,150.1h-3.8c-0.6,0-1,0.5-1,1v17.6c0,0.6,0.5,1,1,1h3.8c0.6,0,1-0.5,1-1v-17.6
			C276.9,150.6,276.4,150.1,275.8,150.1z"/>
		<path class="st7" d="M272.6,169.8v-19.7c-1.4-0.1-1.6,0.8-1.6,1.2c0,5.8,0,11.6,0,17.4C271.1,169.5,271.6,169.9,272.6,169.8z"/>
		<path class="st7" d="M276.1,169.8l0-19.6c0.2,0.1,0.8,0.3,0.8,1.3l0,17.2C276.8,169.4,276.4,169.6,276.1,169.8z"/>
		<path class="st7" d="M270,150h-2.2l0,7.3c0.4,1,1.6,1.3,2.2,0L270,150z"/>
		<rect x="267.6" y="149.9" class="st7" width="2.6" height="1.6"/>
	</g>
	<g class="st6">
		<path class="st7" d="M269.4,140.8l1.7,0.7c9.9-14.5,32.7-12.5,39.1,0.2l1.7-0.8C308,123,272.5,123.3,269.4,140.8z"/>
		<path class="st7" d="M307,133.1l0.1-1.4l-2-1.7l-0.1-1.2c-4.3-1.2-8.4-2.1-13.8-2.3l0,0.5l-1,0l0-0.5c-4.8,0.2-8.9,0.6-13.6,2.1
			l-0.1,1l-2.3,1.8l-0.1,1.5C287.7,124.3,299.4,128,307,133.1z"/>
	</g>
</g>
<path class="st4" d="M290.9,169.9c6.9,0,12.6-5.5,12.6-12.2c0-6.7-5.7-12.2-12.6-12.2c-6.9,0-12.6,5.5-12.6,12.2
	C278.3,164.4,283.9,169.9,290.9,169.9z"/>
<path class="st8" d="M282.6,156.8l0-2.4h5.2c0.1,0,0.1,0,0.1-0.1l0-1.8c0-0.1-0.1-0.2-0.2-0.2h-7c-0.1,0-0.1,0-0.1,0.1l0,10.5
	c0,0.1,0.1,0.2,0.2,0.2h1.8c0.1,0,0.1,0,0.1-0.1l0-4.3h4.3c0.1,0,0.1,0,0.1-0.1l0-1.7c0-0.1-0.1-0.2-0.2-0.2H282.6L282.6,156.8z
	 M301.2,152.5c0-0.1-0.1-0.2-0.2-0.2h-1.8c0,0-0.1,0-0.1,0l-3.7,7.9l-3.8-7.9c0,0-0.2-0.1-0.2-0.1h-1.8c-0.1,0-0.1,0-0.1,0.1l0,10.5
	c0,0.1,0.1,0.2,0.2,0.2h1.8c0.1,0,0.1,0,0.1-0.1l0-6.1l2.9,5.6c0,0,0.2,0.1,0.2,0.1h1.7c0,0,0.1,0,0.1,0l2.7-5.6l0,5.8
	c0,0.1,0.1,0.2,0.2,0.2h1.8c0.1,0,0.1,0,0.1-0.1L301.2,152.5z"/>
<path class="st4" d="M135.7,168.8v-42.3h11.6V142h21.8v-15.5h11.6v42.3h-11.6v-16.6h-21.8v16.6H135.7L135.7,168.8z M19.5,143.5v25.4
	h35.6c11.3,0,16.7-11.8,10.9-20.9c4.8-5.9,2.7-21.4-10.6-21.3H27.7L19.4,137l36.1,0c2.5,1,2.8,5.1,0,6.4L19.5,143.5L19.5,143.5z
	 M31.2,153.5h24.2c2,0.2,2.9,4.3,0,5.1l-24.2,0.1V153.5L31.2,153.5z M70.4,168.9l24-42.3h12l24,42.3h-15l-0.7,0H90l6-10.6h12.7
	l-8.3-15.8l-15,26.4H70.4L70.4,168.9z M186.6,168.9v-42.2h11.6v42.2H186.6L186.6,168.9z M202.5,168.9l24-42.3h12l24,42.3h-15l-0.7,0
	h-24.6l6-10.6h12.7l-8.3-15.8l-15,26.4H202.5z"/>
<path class="st4" d="M182.9,171.5h77.1c2.2,0,3.9,1.8,3.9,3.9v12.4c0,2.2-1.8,3.9-3.9,3.9h-77.1c-2.2,0-3.9-1.8-3.9-3.9v-12.4
	C179,173.3,180.8,171.5,182.9,171.5z"/>
<g class="st1">
	<path class="st9" d="M187.1,178.5c0.2-0.1,2.5,0,2.9,0c1.8,0,2.1-0.2,2.1,0.8v4.4c0,1.4,0.1,1.1-3.3,1.1c-1.8,0-2.1,0.2-2.1-0.8
		v-4.4C186.7,179.1,186.6,178.7,187.1,178.5L187.1,178.5z M182.2,187.1c0.1,0.9,0.9,1.7,1.7,1.9c0.5,0.1,6.6,0,7.2,0
		c1.1,0,2.5,0.1,3.6,0c0.9-0.1,1.7-0.9,1.9-1.7c0.1-0.5,0-6.6,0-7.2c0-1.1,0.1-2.5,0-3.6c-0.1-1-0.9-1.8-1.7-1.9
		c-0.5-0.1-6.6,0-7.3,0c-1.1,0-2.5-0.1-3.6,0c-0.9,0.1-1.7,0.9-1.9,1.7c-0.1,0.5,0,6.6,0,7.2C182.2,184.6,182.1,186.1,182.2,187.1z"
		/>
	<path class="st9" d="M237.6,175.8c-0.3-0.3-0.9-1-1.4-1.2c-0.4-0.1-2.1-0.2-2.5-0.1c-0.7,0.2-0.5,1.2-0.5,2.1V187
		c0,2.4-0.2,2,3.1,2c1.1,0,1.2-0.2,1.2-1.3c0-0.8,0-4.7,0-5.1c0.4,0.4,0.9,0.8,1.3,1.3c0.2,0.2,0.4,0.4,0.7,0.6
		c0.2,0.2,0.4,0.4,0.6,0.7c0.9,0.9,1.7,1.7,2.6,2.6c0.3,0.3,1,1.1,1.4,1.2c0.4,0.1,2.1,0.2,2.5,0.1c0.7-0.2,0.6-1.2,0.6-2v-10.4
		c0-0.8,0.2-1.8-0.5-2c-0.3-0.1-2.1,0-2.6,0c-1.1,0-1.3,0.2-1.3,1.3c0,0.8,0,4.8,0,5.2L237.6,175.8z"/>
	<path class="st9" d="M207.7,181c-1.7-1.7-3.5-3.4-5.2-5.2c-0.3-0.3-0.9-1-1.4-1.2c-0.3-0.1-2.2-0.1-2.5,0c-0.7,0.2-0.5,1.3-0.5,2.1
		V187c0,2.4-0.2,2,3.1,2c1.1,0,1.2-0.2,1.2-1.3c0-0.8,0-4.7,0-5.1c0.4,0.4,0.8,0.9,1.3,1.3l3.9,3.9c0.3,0.3,0.9,1.1,1.4,1.2
		c0.4,0.1,2,0.1,2.4,0.1c0.8-0.1,0.6-1.3,0.6-2v-10.3c0-2.5,0.2-2.1-3.1-2.1c-1.2,0-1.3,0.1-1.3,1.3
		C207.7,176.7,207.8,180.4,207.7,181z"/>
	<path class="st9" d="M253.2,178.5c1.4-0.1,4.3,0,6,0c0.6,0,1.4,0.1,1.8-0.2c0.3-0.3,0.2-1.3,0.2-1.8c0-0.6,0.1-1.4-0.2-1.8
		c-0.3-0.3-1.3-0.2-1.8-0.2h-7.9c-2.3,0-2.5-0.3-2.5,1.4v11.9c0,0.7,0.1,1.1,0.8,1.2c2.6,0.1,5.3,0,7.9,0c4.2,0,3.8,0.4,3.8-2.1
		c0-2.1,0.1-2-2-2c-1.8,0-4.3,0.1-5.9,0l0-1.2c1-0.1,2.3,0,3.3,0c0.6,0,1.1,0.1,1.3-0.4c0.1-0.3,0.1-1.2,0.1-1.6c0-1.7,0.2-2-1.3-2
		c-1,0-2.3,0.1-3.3,0L253.2,178.5z"/>
	<path class="st9" d="M213.6,188.4c0.1,0.5,0.5,0.6,1,0.6h10c0.6,0,0.9-0.1,1-0.6c0.1-0.5,0.1-2.9-0.1-3.2c-0.2-0.4-0.8-0.3-1.4-0.3
		h-5c-1.2,0-1,0.2-1-0.7V176c0-0.6,0.1-1.1-0.3-1.3c-0.3-0.2-2.7-0.1-3.2-0.1c-0.6,0-1,0.1-1,0.6L213.6,188.4z"/>
	<path class="st9" d="M227.1,188.5c0.1,0.7,1.1,0.6,1.8,0.6c2.9,0,2.7,0.3,2.7-2c0-1.2,0.1-11.5,0-11.9c0-0.3-0.3-0.6-0.6-0.6
		c-0.3,0-3.3,0-3.5,0.1c-0.6,0.3-0.4,1.2-0.4,2C227.1,177.7,227,188.1,227.1,188.5z"/>
</g>
<g>
	<g class="st1">
		<g class="st6">
			<polygon class="st7" points="382.4,79.7 382,74.8 383.6,74.2 384.3,79.7 			"/>
			<polygon class="st7" points="384.8,75.2 385.7,75.2 385.7,78.8 385,78.8 			"/>
			<polygon class="st7" points="381.7,75.3 383.9,74.1 383,68.7 380.5,69.8 			"/>
			<polygon class="st7" points="383.5,74.8 384.9,74.8 385.1,79.4 384.2,79.4 			"/>
			<polygon class="st7" points="380.5,101.2 380.5,82.2 381.6,82.2 385,86.3 385,96.7 381.6,101.2 			"/>
			<path class="st7" d="M374.8,79.9h4.7c0.7,0,1.3,0.6,1.3,1.3V103c0,0.7-0.6,1.3-1.3,1.3h-4.7c-0.7,0-1.3-0.6-1.3-1.3V81.2
				C373.5,80.5,374.1,79.9,374.8,79.9z"/>
			<path class="st7" d="M378.7,104.3V79.9c1.8-0.2,2,1,2,1.4c0,7.2,0,14.3,0,21.5C380.7,103.9,380,104.4,378.7,104.3z"/>
			<path class="st7" d="M374.4,104.2l0-24.3c-0.3,0.1-1,0.4-1,1.6l0,21.3C373.6,103.7,374,104.1,374.4,104.2z"/>
			<path class="st7" d="M382,79.7h2.7l0,9c-0.5,1.3-1.9,1.6-2.7,0L382,79.7z"/>
			<rect x="381.8" y="79.7" class="st7" width="3.2" height="2"/>
		</g>
		<g class="st6">
			<polygon class="st7" points="330.3,79.7 330.7,74.7 329.1,74.1 328.4,79.7 			"/>
			<polygon class="st7" points="327.8,75.2 327,75.2 327,78.7 327.7,78.7 			"/>
			<polygon class="st7" points="331,75.3 328.8,74.1 329.7,68.6 332.1,69.8 			"/>
			<polygon class="st7" points="329.2,74.7 327.8,74.7 327.6,79.3 328.5,79.3 			"/>
			<polygon class="st7" points="332.2,101.1 332.2,82.1 331.1,82.1 327.7,86.2 327.7,96.7 331.1,101.1 			"/>
			<path class="st7" d="M337.9,79.9h-4.7c-0.7,0-1.3,0.6-1.3,1.3v21.7c0,0.7,0.6,1.3,1.3,1.3h4.7c0.7,0,1.3-0.6,1.3-1.3V81.2
				C339.2,80.4,338.6,79.9,337.9,79.9z"/>
			<path class="st7" d="M334,104.2V79.8c-1.8-0.2-2,1-2,1.4c0,7.2,0,14.3,0,21.5C332,103.9,332.7,104.3,334,104.2z"/>
			<path class="st7" d="M338.2,104.2l0-24.3c0.3,0.1,1,0.4,1,1.6l0,21.3C339.1,103.7,338.7,104,338.2,104.2z"/>
			<path class="st7" d="M330.7,79.7H328l0,9c0.5,1.3,1.9,1.6,2.7,0L330.7,79.7z"/>
			<rect x="327.7" y="79.6" class="st7" width="3.2" height="2"/>
		</g>
		<g class="st6">
			<path class="st7" d="M330,68.4l2.1,0.9c12.2-17.9,40.4-15.5,48.3,0.2l2.2-1C377.7,46.4,333.9,46.7,330,68.4z"/>
			<path class="st7" d="M376.4,58.9l0.1-1.8l-2.5-2.1l-0.1-1.5c-5.3-1.4-10.4-2.6-17-2.8l0,0.6l-1.2,0l0-0.6
				c-6,0.2-10.9,0.8-16.9,2.6l-0.1,1.2l-2.9,2.3l-0.2,1.9C352.6,48,367,52.6,376.4,58.9z"/>
		</g>
	</g>
	<path class="st4" d="M356.5,104.3c8.6,0,15.6-6.8,15.6-15.1c0-8.3-7-15.1-15.6-15.1c-8.6,0-15.6,6.8-15.6,15.1
		C340.9,97.5,347.9,104.3,356.5,104.3z"/>
	<path class="st8" d="M346.3,88.1l0-3h6.4c0.1,0,0.1,0,0.1-0.1l0-2.2c0-0.1-0.2-0.2-0.3-0.2h-8.7c-0.1,0-0.1,0-0.1,0.1l0,13
		c0,0.1,0.2,0.2,0.3,0.2h2.2c0.1,0,0.1,0,0.1-0.1l0-5.3h5.3c0.1,0,0.1,0,0.1-0.1l0-2.1c0-0.1-0.2-0.2-0.3-0.2H346.3L346.3,88.1z
		 M369.3,82.8c0-0.1-0.2-0.2-0.3-0.2h-2.2c-0.1,0-0.1,0-0.1,0l-4.6,9.8l-4.7-9.7c0,0-0.2-0.2-0.3-0.2h-2.2c-0.1,0-0.1,0-0.1,0.1
		l0,13c0,0.1,0.1,0.2,0.3,0.2h2.2c0.1,0,0.1,0,0.1-0.1l0-7.5l3.6,6.9c0,0,0.2,0.2,0.3,0.2h2.1c0,0,0.1,0,0.1,0l3.4-6.9l0,7.2
		c0,0.1,0.2,0.2,0.3,0.2h2.2c0.1,0,0.1,0,0.1-0.1L369.3,82.8z"/>
	<path class="st7" d="M164.6,103V50.7h14.3v19.2h27V50.7h14.3V103h-14.3V82.5h-27V103H164.6L164.6,103z M20.9,71.6V103h44
		c14,0,20.7-14.6,13.5-25.8c5.9-7.3,3.4-26.4-13.1-26.3H31.1L20.8,63.6l44.6,0c3.1,1.3,3.4,6.4,0,7.9L20.9,71.6L20.9,71.6z M35.4,84
		h29.9c2.5,0.3,3.6,5.3,0,6.3l-29.9,0.1V84L35.4,84z M83.9,103.1l29.6-52.3h14.8l29.6,52.3h-18.5l-0.9-0.1h-30.5l7.4-13.1h15.7
		l-10.2-19.6l-18.5,32.7H83.9L83.9,103.1z M227.6,103V50.8h14.3V103H227.6L227.6,103z M247.3,103.1l29.6-52.3h14.8l29.6,52.3h-18.5
		l-0.9-0.1h-30.5l7.4-13.1h15.7l-10.2-19.5l-18.5,32.7H247.3z"/>
	<path class="st7" d="M250.2,106.3h68.2c2.7,0,4.8,2.2,4.8,4.8v15.4c0,2.7-2.2,4.8-4.8,4.8h-68.2c-2.7,0-4.8-2.2-4.8-4.8v-15.4
		C245.4,108.5,247.5,106.3,250.2,106.3z"/>
	<path class="st10" d="M265.7,126.3h-3.2v-6.8H256v6.8h-3.2v-15.4h3.2v6.1h6.5v-6.1h3.2V126.3L265.7,126.3z M281.1,126.3h-3.5
		l-1.2-3.5c-0.1-0.4-0.3-0.7-0.5-1.1c-0.2-0.3-0.4-0.6-0.7-0.8c-0.3-0.2-0.6-0.4-0.9-0.5c-0.4-0.1-0.8-0.2-1.3-0.2h-1.2v6.1h-3.1
		v-15.4l6.5,0c0.7,0,1.3,0.1,1.9,0.3c0.6,0.2,1.1,0.5,1.6,0.9c0.4,0.4,0.8,0.9,1,1.4c0.2,0.5,0.4,1.1,0.4,1.8c0,0.4-0.1,0.9-0.2,1.3
		c-0.1,0.4-0.4,0.8-0.6,1.2c-0.3,0.4-0.6,0.7-1,1c-0.4,0.3-0.8,0.5-1.2,0.6c0.5,0.2,0.9,0.4,1.3,0.8c0.3,0.3,0.6,0.7,0.8,1.2
		c0.1,0.2,0.2,0.4,0.3,0.7c0.1,0.2,0.2,0.4,0.3,0.7c0.1,0.2,0.2,0.5,0.3,0.8c0.1,0.3,0.2,0.6,0.3,0.9c0.2,0.4,0.3,0.8,0.4,1.1
		C280.8,125.8,280.9,126.1,281.1,126.3L281.1,126.3z M276.9,115.6c0-0.4-0.1-0.7-0.2-1c-0.1-0.3-0.3-0.6-0.6-0.8
		c-0.2-0.2-0.5-0.4-0.9-0.5c-0.3-0.1-0.7-0.2-1.1-0.2h-2.3v4.8h2.3c0.4,0,0.7-0.1,1.1-0.2c0.3-0.1,0.6-0.3,0.9-0.5
		c0.2-0.2,0.4-0.5,0.6-0.7C276.9,116.2,276.9,115.9,276.9,115.6L276.9,115.6z M299.5,126.3h-3.1V116l-5.2,8.2l-5-8.3v10.4h-3.1
		v-15.4h3.6l4.6,7.6l4.8-7.6h3.5V126.3L299.5,126.3z M317.7,123.5c-0.5,0.5-1,1-1.5,1.4c-0.5,0.4-1.1,0.7-1.7,1
		c-0.6,0.3-1.2,0.4-1.8,0.6c-0.6,0.1-1.2,0.2-1.9,0.2c-1.2,0-2.4-0.2-3.4-0.6c-1.1-0.4-2-1-2.8-1.7c-0.8-0.7-1.4-1.6-1.9-2.5
		c-0.5-1-0.7-2-0.7-3.2c0-1.1,0.2-2.1,0.7-3.1c0.5-1,1.1-1.8,1.9-2.5c0.8-0.7,1.7-1.3,2.8-1.7c1.1-0.4,2.2-0.6,3.4-0.6
		c1.4,0,2.7,0.3,3.9,0.8c1.2,0.5,2.1,1.3,2.9,2.2l-2.2,2.1c-0.6-0.8-1.3-1.3-2.1-1.7c-0.8-0.3-1.6-0.5-2.6-0.5
		c-0.8,0-1.5,0.1-2.2,0.4c-0.7,0.3-1.3,0.6-1.8,1.1c-0.5,0.5-0.9,1-1.2,1.6c-0.3,0.6-0.4,1.3-0.4,2c0,0.7,0.1,1.4,0.4,2
		c0.3,0.6,0.7,1.2,1.2,1.6s1.1,0.8,1.8,1.1c0.7,0.3,1.4,0.4,2.2,0.4c0.7,0,1.4-0.1,2.1-0.4c0.7-0.3,1.2-0.6,1.8-1v-1.5h-3.4v-2.5
		h6.4V123.5z"/>
</g>
<g class="st1">
	<polygon class="st11" points="212.9,224.8 212.9,322.4 -185.5,322.4 -185.5,242.4 209.7,227.6 	"/>
	<path class="st5" d="M62.2,219.6c-0.7-4.2-0.8-8.7,1.1-12.1c1.1-1.9,2.7-1.9,5.4-2.2c5.5-0.6,4-0.5,4.1,1.5l1.9-2.1
		c1.2,2,0.6,3.2,1,1.9c0-0.1,0.1,0.3,0.2,0.4l0.8-2.4l7.4-0.2l2.8,12.6l-0.7,0.6c-1.8,1.7-1.1,1.5-2.8,2c-1.2,0.3-4.2,0.1-5.6,0.1
		l-1.2-2.4c-1.4,2.4-0.8,2.3-2,2.1c-0.9-0.1-1.4-0.7-1.6-1.6c-0.1-0.2-0.1-0.3-0.3-0.4c-5.7,4.1-2.2,1.2-7.1,2l-0.7-4L62.2,219.6
		L62.2,219.6z M88.5,219.9c-1.1-5.7-0.1-10.3,2.1-14.8l5.9-0.1l1.2,2.4c0.1,0.1,0.2,0.2,0.3,0.3c0.1,0.1,0.3,0.4,0.3,0.3
		c0-0.1,0.2,0.2,0.3,0.3l0.6-0.7c1.4-2-0.1-0.4,1.2-2.2c2.9-0.1,6.3-0.6,8.6,0.6l-1.5,4.7l2.1,0.4c0.1,0,0.6,0.1,0.8,0.2
		c-0.6-2.9-0.9-2.7-0.1-5.9c1.8,0.1,6.9-0.1,8.4,0.8c0.7,0.4-0.2-0.3,0.7,0.7l0.5,0.7c0.2-0.7,0.4-1.5,1.2-1.3l-1.7,6.4
		c-0.2,1.9,0.6,4.4-0.9,6.5l-22.2,0.6C93.9,219.9,90.9,219.9,88.5,219.9L88.5,219.9z M60.5,206.1c-3.7-1.2-8.3-1.5-12.2-2.2l0.2,4.6
		c1.2-1,1-1,2.1-3.1l-1.9,12.5l1.8-2.3l1.7,2.4l0.6-2.8c1.7,0.9,1.1,2.6,2.2,3.3l4.5,1.1C61.7,216.2,60.7,213,60.5,206.1L60.5,206.1
		z M-185.3,244.1c5.8-0.5,1.1,1.1,8.4-0.5c2.1-0.4,7.4-0.3,10-0.5c9.9-0.6,16.2,0.3,26.2-0.4c2.3-0.2,4.8-1.6,11.6-1.8
		c8.8-0.3,18-0.2,26.7-0.6c14.3-0.7,22.6,1,38.4-0.6c10.8-1.1,27.4-3.3,38-2.5c4.3,0.3,8.8-0.3,13.1-0.4c4-0.1,8.1,0.2,12.3,0.2
		c9.8-0.6,12.6-1.4,21.3-0.4l20.8-1.6c5.1-0.2,9.3-0.2,14.3-0.4c10.9-0.9,22.4-1.5,33.5-1.4c5.6,0,11.1,0.3,16.7,0
		c3-0.1,11.7,0.2,14.2-1.9c1.1-1,15.9,0.7,19.1,0.3l31.8-1.4c3.5,0.1,5.5-0.3,8.4-0.8l21.6-0.7l0.9-2.5c0.1,0.1,0.2,0.2,0.2,0.4
		c0.2,0.7,0.8,2.7,2.6,1.9l2.8-2.6l1.6,2.9c1.5-2.5,0.1-2.8,0.5-5.6c0.5-3.1-0.3,0.3,3-3.7c-8.6,0.3-5.8,0.3-6.8,0
		c-0.1,0-0.3-0.2-0.4-0.2c-0.1,0-0.3-0.1-0.4-0.2c-1.7,0.3-2.3,0.5-3.5-0.3l-8.6,0.4l-1.5-2.2l-1.9,2c-6.7-0.6-8.5,0.3-14.9,0.1
		l-0.6-2.2c-0.3,1.2-1,2.1-2.1,2.3l-0.5-3.4l-2.7,2.3c-4.2,2.4-3,0.4-11.8,1.3l-0.1-3.7c-1.2,1.7-0.8,1.1-1.3,3
		c-2.8-3.2-0.3-1.6-2.1-2.5l0.3,2.7c-7.3,0.1-8,1-10.2-2.1l-0.9,2.4l-10.7,0.1l-1-2.4c-2.1,2.3-1.5,2.3-5.1,2.4
		c-8.2,0.1-5.9-0.9-3.5-14.2l28.8,0.9c5.7-0.3-0.9,1.3,9.9,0.2c1.7,2,0.6,1.2,1.5,1.5c2-1.7,3-1.4,5.1-1.1
		c3.9,0.6,13.1,0.3,15.2,0.6c3.7,0.5,1.8,0,2.5,3.3c0.4,1.9-0.4,0.3,0.4,1.1l0.3-3.6l3.1,1l-0.4-1c0-0.1-0.1-0.3-0.1-0.4
		c-0.5-1.3-0.4,0.6-0.1-0.4l5.1,0.2c1.1,0.4-0.7,1.2,2.1,0.6c1.9-0.4,0.7,0.6,1.5-1.2c-1.3,0.1-2.8-1.3-4.2-1.7
		c-4-1.4-13.6,1-16.7-1.4c-3.1,0.7-19.1-0.5-26.3-0.4c-3.5,0-4.2-0.8-7.3-1c-4.9-0.4-4.6,0.7-8.2,1c-2.7,0.2-4.7-1-7.8-1.2
		c-3.2-0.2-5.4,0-8.4-0.2c-7.5-0.6-37.5-1.5-42.3-0.9c-8.9,1.1-22.7-3.3-32,1.3l4,0.6c0.3,7.6,1.5,12.7-1.6,16.4l-12.2,0.2
		c0.6-2,0.5,0.4,0.8-1.3c0-0.2,0.3-0.2,0.4-0.3l-3.2-0.2c-0.4-2.1-0.2-1.5-1-2.6c-0.5,2-0.2,1.4-1,2.4l-6.9-0.5l1.8,2.4l-13.2,0.3
		c-6.3,0.2-7.3,1.2-10.6-2.6l-1.5,2.6l-3.9,0l-0.4-1.5c0-0.2-0.1-0.2-0.2-0.4c-2.3,0-5.8-0.4-7.7,0.4c-0.1,0.1-0.3,0.2-0.4,0.2
		l-0.7,0.4c-1.3,0.6-1.2,0.2-3.4,0.1c-1.7-0.1-2.7,0-4.4-0.2c-3-0.3-4.3,0.4-7.9,0.5c-7.6,0.1-3.6-1.2-6.2-2.6
		c-0.9,2.3-1.1,3.2-5.6,2.6l-0.5-4.8l-2.2-0.9c0.8-5.5,1.4-5.8,0.6-10.1l-1.6,0.3l-0.6,15.4l-4-1.6l-0.4,0.7c-0.9,1.1-0.2,0.6-1.3,1
		c-0.8,0.3-2.3,0.2-3.2,0.2c-16.1,0.1-13.6,2.6-14.5-5c-1.5,3.5-0.6,2.6-1.3,5.3l-1.4-1c-3.2-2.8-2.2-0.7-2.6-1.9
		c-0.1-0.2-0.3-0.1-0.4-0.2l0.3-3.5l-0.5-0.2c-4-2.2,0.8,1.1-1.2-0.8c-1.2-1.2-1.2-2.5-1.9-5.1c-0.6-2.1-1.1-5-2.1-7.1
		c-0.1,2.2-0.2,1.5,0.4,3.7c2.1,7.2,0.9,8,3.7,10.1c-1.2,5.4-0.5,2.5-0.3,5.7l-4.1,0.3l-0.3-6.3c-3.2,1.4-2.2,0.2-3,0.5
		c-0.2,7.1,0.9,5.2-1.5,5.7c-3.9,0.8-1.2-1.5-2.3-4.2l-1.1,4.5c-0.5-0.3-1.8-0.8-1.9-1.4c0-0.2-0.2-0.2-0.2-0.3l-4,1.5l-1.7-5.9
		c-1.8,5.6,1.7,5.7-2.6,6.2l-0.9-14.7l3.1-0.6c-1.7-1.4-4.4-2.1-6.3-2.4c-4-0.6-21.5,1.5-23.3,2.6l6.2,0.2l0.2,9l-3.9,0.9
		c2.2,4.5,1.3,4.1-0.1,5.2c-0.7-1.6-0.7-1.3-0.9-3.1c-0.2-1.6-0.1-1.7-0.4-3.1c-1.6,4.6,0.1,2.8-1.1,6.3c-3.7-1.5-4.7-2.3-8.7-0.6
		c-2.2,0.9-2.3,0.7-5,0.7c-5.8,0-22.4,0-25.9,0.7l-1.5,0.8l1.2,1.1l-3.7,1c-0.3-0.8,0.3,0.7,0-0.8l-0.1-0.3c-3.5-0.2-4,0.9-6.2,0.6
		c-0.9-0.1-5-0.1-7.7-0.2c-3.9-0.2,2.2-0.7-0.3-0.6L-185.3,244.1z"/>
</g>
<g>
	<g>
		<g>
			<polygon class="st7" points="246.7,229 245.4,214.3 250.2,212.5 252.2,229 			"/>
			<polygon class="st7" points="253.9,215.7 256.3,215.7 256.3,226.1 254.4,226.1 			"/>
			<polygon class="st7" points="244.4,215.9 251.1,212.3 248.5,196.1 241.1,199.6 			"/>
			<polygon class="st7" points="250,214.3 253.9,214.3 254.6,228 251.9,228 			"/>
			<polygon class="st7" points="240.9,292.9 240.9,236.3 244.2,236.3 254.2,248.6 254.2,279.7 244.2,292.9 			"/>
			<path class="st7" d="M223.9,229.6h13.9c2.1,0,3.9,1.7,3.9,3.9v64.8c0,2.1-1.7,3.9-3.9,3.9h-13.9c-2.1,0-3.9-1.7-3.9-3.9v-64.8
				C220,231.3,221.8,229.6,223.9,229.6z"/>
			<path class="st7" d="M235.6,302.1v-72.6c5.3-0.6,6,2.9,6,4.3c0,21.3,0,42.7,0,64C241.5,301.1,239.4,302.5,235.6,302.1z"/>
			<path class="st7" d="M222.9,302l0-72.3c-0.8,0.2-3.1,1.3-3,4.9l0,63.3C220.3,300.6,221.7,301.5,222.9,302z"/>
			<path class="st7" d="M245.4,229h8.1l0,26.9c-1.6,3.8-5.8,4.9-8.1,0L245.4,229z"/>
			<rect x="244.7" y="228.9" class="st7" width="9.5" height="5.9"/>
		</g>
		<g>
			<polygon class="st7" points="91.3,228.8 92.6,214.1 87.8,212.4 85.8,228.8 			"/>
			<polygon class="st7" points="84.1,215.5 81.7,215.5 81.7,225.9 83.6,226 			"/>
			<polygon class="st7" points="93.6,215.7 86.9,212.1 89.5,195.9 96.9,199.4 			"/>
			<polygon class="st7" points="88,214.2 84.1,214.2 83.4,227.8 86.1,227.8 			"/>
			<polygon class="st7" points="97.1,292.7 97.1,236.1 93.8,236.1 83.8,248.4 83.8,279.5 93.8,292.7 			"/>
			<path class="st7" d="M114.1,229.4h-13.9c-2.1,0-3.9,1.7-3.9,3.9V298c0,2.1,1.7,3.9,3.9,3.9h13.9c2.1,0,3.9-1.7,3.9-3.9v-64.8
				C118,231.2,116.3,229.4,114.1,229.4z"/>
			<path class="st7" d="M102.4,301.9v-72.6c-5.3-0.6-6,2.9-6,4.3c0,21.3,0,42.7,0,64C96.5,301,98.6,302.3,102.4,301.9z"/>
			<path class="st7" d="M115.1,301.8l0-72.3c0.8,0.2,3.1,1.3,3,4.9l0,63.3C117.7,300.4,116.3,301.4,115.1,301.8z"/>
			<path class="st7" d="M92.6,228.8h-8.1l0,26.9c1.6,3.8,5.8,4.9,8.1,0L92.6,228.8z"/>
			<rect x="83.8" y="228.8" class="st7" width="9.5" height="5.9"/>
		</g>
		<g>
			<path class="st7" d="M90.4,195.3l6.3,2.6c36.4-53.4,120.3-46.2,143.9,0.7l6.4-3C232.6,129.7,102,130.7,90.4,195.3z"/>
			<path class="st7" d="M228.8,166.9l0.2-5.2l-7.4-6.1l-0.4-4.4c-15.7-4.3-31-7.6-50.8-8.3l0,1.8l-3.5,0.1l0.1-1.9
				c-17.9,0.6-32.6,2.4-50.2,7.7l-0.2,3.7l-8.6,6.7l-0.5,5.6C157.8,134.4,200.9,148.1,228.8,166.9z"/>
		</g>
	</g>
	<path class="st7" d="M169.5,302.1c25.6,0,46.4-20.2,46.4-45c0-24.8-20.9-45-46.4-45c-25.6,0-46.4,20.2-46.4,45
		C123.1,281.9,143.9,302.1,169.5,302.1z"/>
	<path class="st10" d="M139.2,253.9l0-8.9h19.1c0.3,0,0.3,0,0.3-0.2l0-6.5c0-0.2-0.5-0.7-0.8-0.7h-25.8c-0.3,0-0.3,0-0.3,0.2l0,38.7
		c0,0.2,0.5,0.7,0.8,0.7h6.5c0.3,0,0.3,0,0.3-0.2l0-15.9h15.8c0.3,0,0.2,0,0.2-0.2l0-6.3c0-0.2-0.5-0.7-0.8-0.7H139.2L139.2,253.9z
		 M207.6,238.2c0-0.2-0.5-0.7-0.9-0.7h-6.6c-0.2,0-0.3,0-0.3,0.1l-13.7,29.3l-14-28.9c0-0.1-0.7-0.5-0.8-0.5h-6.6
		c-0.3,0-0.2,0-0.2,0.2l0,38.8c0,0.2,0.4,0.7,0.8,0.7h6.5c0.3,0,0.3,0,0.3-0.2l0.1-22.5l10.7,20.7c-0.1,0.1,0.6,0.5,0.8,0.5h6.1
		c0.1,0,0.2,0,0.3-0.1l10.1-20.5l-0.1,21.5c0,0.2,0.5,0.7,0.8,0.7h6.5c0.3,0,0.3,0,0.3-0.2L207.6,238.2z"/>
</g>
</svg>
