<svg id="Capa_1" data-name="Capa 1" xmlns="http://www.w3.org/2000/svg" viewBox="0 0 302.5 251.44"><defs><style>.cls-1,.cls-2{fill-rule:evenodd;}.cls-2{fill:#fff;}</style></defs><title>BahiaLogoTransparent</title><path class="cls-1" d="M164.6,103V50.71h14.31V69.88h27V50.71h14.31V103H205.9V82.51h-27V103ZM20.93,71.63V103h44c14,0,20.71-14.59,13.46-25.84,5.89-7.33,3.4-26.43-13.14-26.35H31.07L20.78,63.62l44.59,0c3.05,1.27,3.41,6.36,0,7.91l-44.47.08ZM35.4,84H65.35c2.52.28,3.61,5.28,0,6.33l-29.95.08V84Zm48.5,19.08,29.62-52.28h14.81L158,103.11H139.44l-.9-.05H108.07L115.48,90h15.66l-10.2-19.55-18.51,32.68ZM227.6,103V50.81h14.3V103Zm19.69,0,29.62-52.25h14.81l29.62,52.25H302.84l-.9-.05H271.47L278.87,90h15.66l-10.2-19.54-18.51,32.66Z" transform="translate(-20.78 -50.71)"/><rect x="224.59" y="55.6" width="77.91" height="25.05" rx="4.84" ry="4.84"/><path class="cls-2" d="M265.66,126.32h-3.19v-6.82H256v6.82h-3.19V110.94H256V117h6.47v-6.1h3.19v15.38Zm15.44,0h-3.51l-1.17-3.5a5.41,5.41,0,0,0-.46-1.06,3.38,3.38,0,0,0-.66-.83,2.79,2.79,0,0,0-.94-.54,3.84,3.84,0,0,0-1.28-.19h-1.19v6.12h-3.14V110.94l6.48,0a5.54,5.54,0,0,1,1.95.34,4.8,4.8,0,0,1,1.56.93,4.28,4.28,0,0,1,1,1.41,4.16,4.16,0,0,1,.37,1.75,3.88,3.88,0,0,1-.23,1.31,4.28,4.28,0,0,1-.63,1.17,4.78,4.78,0,0,1-1,1,4.23,4.23,0,0,1-1.24.63,3.18,3.18,0,0,1,1.27.78,3.76,3.76,0,0,1,.77,1.22q.14.33.27.65l.25.68.29.77.34.91q.23.64.42,1.09a5.3,5.3,0,0,0,.42.8Zm-4.15-10.76a2.21,2.21,0,0,0-.22-1,2.45,2.45,0,0,0-.59-.77,2.68,2.68,0,0,0-.87-.51,3.14,3.14,0,0,0-1.08-.18h-2.3v4.79h2.3a3.47,3.47,0,0,0,1.08-.16,2.6,2.6,0,0,0,.87-.47,2.27,2.27,0,0,0,.59-.74,2.15,2.15,0,0,0,.22-1Zm22.53,10.76h-3.12V116l-5.18,8.18-5-8.26v10.36h-3.12v-15.4h3.6l4.56,7.64,4.77-7.64h3.47v15.4Zm18.21-2.83a8.67,8.67,0,0,1-1.52,1.4,9.23,9.23,0,0,1-1.72,1,9,9,0,0,1-1.83.57,9.66,9.66,0,0,1-1.86.18,9.48,9.48,0,0,1-3.43-.62,8.86,8.86,0,0,1-2.8-1.69,8.1,8.1,0,0,1-1.89-2.54,7.42,7.42,0,0,1,0-6.27,7.93,7.93,0,0,1,1.89-2.53,9.13,9.13,0,0,1,2.81-1.7,9.36,9.36,0,0,1,3.43-.63,9,9,0,0,1,6.8,3l-2.15,2.06a5.48,5.48,0,0,0-2.07-1.68,6.25,6.25,0,0,0-2.57-.51,6,6,0,0,0-2.2.4,5.8,5.8,0,0,0-1.8,1.11,5.2,5.2,0,0,0-1.21,1.64,4.76,4.76,0,0,0,0,4,5.31,5.31,0,0,0,1.21,1.65,5.67,5.67,0,0,0,1.8,1.12,5.91,5.91,0,0,0,2.19.4,5.68,5.68,0,0,0,2.09-.39,6.53,6.53,0,0,0,1.76-1v-1.48h-3.37v-2.54h6.43Z" transform="translate(-20.78 -50.71)"/><polygon class="cls-1" points="225.94 178.29 224.66 163.56 229.43 161.82 231.45 178.29 225.94 178.29"/><polygon class="cls-1" points="233.12 164.97 235.54 164.96 235.54 175.4 233.61 175.41 233.12 164.97"/><polygon class="cls-1" points="223.63 165.19 230.35 161.58 227.74 145.36 220.31 148.84 223.63 165.19"/><polygon class="cls-1" points="229.21 163.62 233.16 163.61 233.79 177.3 231.13 177.29 229.21 163.62"/><polygon class="cls-1" points="220.13 242.2 220.13 185.56 223.41 185.56 233.45 197.88 233.45 228.94 223.41 242.2 220.13 242.2"/><rect x="199.24" y="178.87" width="21.58" height="72.49" rx="3.86" ry="3.86"/><path class="cls-1" d="M235.62,302.08V229.51c5.32-.55,6,2.9,6,4.31v64C241.47,301.14,239.37,302.49,235.62,302.08Z" transform="translate(-20.78 -50.71)"/><path class="cls-1" d="M222.94,302V229.72c-.81.2-3.08,1.26-3,4.86v63.33A4.44,4.44,0,0,0,222.94,302Z" transform="translate(-20.78 -50.71)"/><path class="cls-1" d="M245.39,229h8.1v26.93c-1.59,3.8-5.78,4.9-8.11,0Z" transform="translate(-20.78 -50.71)"/><rect x="223.93" y="178.23" width="9.5" height="5.92"/><polygon class="cls-1" points="70.52 178.12 71.8 163.39 67.03 161.65 65.01 178.12 70.52 178.12"/><polygon class="cls-1" points="63.34 164.8 60.92 164.79 60.92 175.23 62.85 175.24 63.34 164.8"/><polygon class="cls-1" points="72.83 165.01 66.11 161.41 68.72 145.19 76.14 148.67 72.83 165.01"/><polygon class="cls-1" points="67.25 163.45 63.3 163.44 62.67 177.13 65.32 177.12 67.25 163.45"/><polygon class="cls-1" points="76.33 242.03 76.33 185.39 73.05 185.39 63.01 197.72 63.01 228.77 73.05 242.03 76.33 242.03"/><rect x="75.64" y="178.7" width="21.58" height="72.49" rx="3.86" ry="3.86"/><path class="cls-1" d="M102.39,301.91V229.34c-5.32-.55-6,2.9-6,4.31v64C96.55,301,98.64,302.32,102.39,301.91Z" transform="translate(-20.78 -50.71)"/><path class="cls-1" d="M115.07,301.82V229.55c.81.2,3.08,1.26,3,4.86l0,63.34A4.44,4.44,0,0,1,115.07,301.82Z" transform="translate(-20.78 -50.71)"/><path class="cls-1" d="M92.62,228.83H84.53v26.93c1.59,3.8,5.78,4.9,8.11,0Z" transform="translate(-20.78 -50.71)"/><rect x="63.03" y="178.06" width="9.5" height="5.92"/><path class="cls-1" d="M90.41,195.25l6.25,2.64c36.42-53.42,120.3-46.2,143.9.7l6.44-3C232.63,129.7,102,130.71,90.41,195.25Z" transform="translate(-20.78 -50.71)"/><path class="cls-1" d="M228.79,166.88l.19-5.22-7.41-6.11-.37-4.42c-15.74-4.3-31-7.62-50.78-8.29l0,1.79-3.5.13.07-1.92c-17.85.56-32.6,2.38-50.21,7.74l-.23,3.71L107.94,161l-.47,5.57C157.78,134.44,200.89,148.15,228.79,166.88Z" transform="translate(-20.78 -50.71)"/><path class="cls-1" d="M169.51,302.13c25.58,0,46.45-20.23,46.45-45s-20.87-45-46.45-45-46.45,20.23-46.45,45S143.92,302.13,169.51,302.13Z" transform="translate(-20.78 -50.71)"/><path class="cls-2" d="M139.24,253.89l0-8.94h19.08c.34,0,.28,0,.29-.23v-6.45c0-.23-.48-.68-.82-.68H131.94c-.34,0-.28,0-.29.23v38.72c0,.23.48.68.82.68h6.45c.34,0,.28,0,.29-.23l0-15.91h15.85c.28,0,.23,0,.24-.23l0-6.28c0-.23-.48-.68-.77-.68Zm68.4-15.68c0-.23-.54-.68-.88-.68h-6.57c-.17,0-.28,0-.32.11L186.2,266.91l-14-28.92c0-.11-.66-.45-.83-.45h-6.62c-.34,0-.23,0-.24.23v38.77a.94.94,0,0,0,.77.68h6.51c.34,0,.28,0,.29-.23l.11-22.47,10.66,20.66c-.09.11.61.45.78.45h6.11a.35.35,0,0,0,.32-.11L200.16,255,200,276.53c0,.23.48.68.82.68h6.45c.34,0,.28,0,.29-.23Z" transform="translate(-20.78 -50.71)"/></svg>