<?xml version="1.0" encoding="utf-8"?>
<!-- Generator: Adobe Illustrator 21.0.0, SVG Export Plug-In . SVG Version: 6.00 Build 0)  -->
<svg version="1.1" id="Capa_1" xmlns="http://www.w3.org/2000/svg" xmlns:xlink="http://www.w3.org/1999/xlink" x="0px" y="0px"
	 viewBox="0 0 342.9 342.9" style="enable-background:new 0 0 342.9 342.9;" xml:space="preserve">
<style type="text/css">
	.st0{fill-rule:evenodd;clip-rule:evenodd;fill:#FFFFFF;}
	.st1{display:none;}
	.st2{display:inline;fill-rule:evenodd;clip-rule:evenodd;stroke:#000000;stroke-width:0.5;stroke-miterlimit:2.6131;}
	
		.st3{display:none;fill-rule:evenodd;clip-rule:evenodd;fill:none;stroke:#000000;stroke-width:0.7498;stroke-linejoin:round;stroke-miterlimit:22.9256;}
	.st4{display:none;fill-rule:evenodd;clip-rule:evenodd;}
	.st5{display:inline;fill-rule:evenodd;clip-rule:evenodd;}
	.st6{display:inline;}
	.st7{fill-rule:evenodd;clip-rule:evenodd;}
	.st8{display:none;fill-rule:evenodd;clip-rule:evenodd;fill:#FFFFFF;}
	.st9{display:inline;fill-rule:evenodd;clip-rule:evenodd;fill:#FFFFFF;}
	.st10{display:inline;fill-rule:evenodd;clip-rule:evenodd;fill:#00AEEF;}
	.st11{fill:#010101;}
	.st12{fill:#FFFFFF;}
</style>
<rect class="st0" width="342.9" height="342.9"/>
<g class="st1">
	<path class="st2" d="M270.8,15.4c7.8-1.4,18.7-1.6,24.2-0.6l1-0.7c3.2-5.3,6.6-10.1,10.9-13.4l-9.3,18.1L270.8,15.4z"/>
	<path class="st2" d="M320.6,4.9c4.7-0.8,11.4-1,14.7-0.4l0.6-0.4c1.9-3.2,4-6.1,6.6-8.2L337,7L320.6,4.9z"/>
	<path class="st2" d="M320.4,32.4c4.7-0.8,11.4-1,14.7-0.4l0.6-0.4c1.9-3.2,4-6.1,6.6-8.2l-5.7,11L320.4,32.4z"/>
</g>
<path class="st3" d="M187.5,225.3c2.3,0,4.6-0.5,6.2-1.3c0.8-0.4,1-0.4,1.8-0.9c2.5-1.6,4.2-3.4,5.6-6.2c2-3.9,2-9.1,0-13
	c-1.2-2.5-3.6-5.2-6.2-6.5l-1.2-0.6c-1.6-0.8-3.9-1.3-6.2-1.3c-4.5,0-8.2,2.1-10.5,4.4c-2.3,2.3-4.3,6.3-4.3,9.6
	c0,0.4-0.1,0.5-0.1,0.9l0.1,1.7c0.6,4.5,2.6,7.8,6.3,10.5c0.4,0.3,0.7,0.5,1.2,0.7l1.8,0.9C183.8,224.9,185.5,225.3,187.5,225.3z"/>
<path class="st4" d="M185.6,205.4v2.2h-1.7v2.9h1.7v8.1h3.3v-8.2h2.3c0-1,0.2-1.8,0.2-2.8h-2.5c0-2.7-0.3-2.4,2.5-2.4v-2.9
	c-1.8,0-3.9-0.3-5,0.8C185.9,203.7,185.6,204.3,185.6,205.4z"/>
<path class="st3" d="M110.2,225.4h1c7.7,0,14.7-6.9,14.7-14.6v-1c0-7.7-7-14.6-14.7-14.6c-4.4,0-7.1,1.1-10.3,3.6
	c-0.2,0.1-0.3,0.3-0.5,0.5c-2.5,2.1-4.8,6.3-4.8,11c0,4.3,1.6,7.7,4.3,10.6l1.4,1.3C103.6,224,107,225.4,110.2,225.4z"/>
<g class="st1">
	<path class="st5" d="M110.2,207.6c-1.7,0.4-2.5,2-2.1,3.5c1,3.6,6.5,2.2,5.6-1.4C113.3,208.4,111.9,207.2,110.2,207.6z"/>
	<path class="st5" d="M103.6,214.8c0,1.5,1.3,2.8,2.8,2.8h8.9c1.5,0,2.8-1.3,2.8-2.8v-6.5l-4.2,0c1.8,2.6-0.1,5.8-3.1,5.8
		c-1.5,0-2.7-0.9-3.2-1.9c-0.3-0.6-0.5-1.3-0.5-2.1c0.1-0.9,0.4-1.3,0.7-1.9h-4.2V214.8z"/>
	<path class="st5" d="M107.4,206.7h-0.6v-3.6l-0.4,0c0,0.1,0,0-0.1,0.2l0,3.4l-0.6,0l0-3.5c-0.5,0.1-0.5,0.1-0.4,0.5l0,3h-0.6l0-3
		c-0.4,0.1-1,0.9-1.1,1.5c-0.2,0.6-0.1,1.9-0.1,2.6c1.4,0,2.8,0,4.1,0c0.6,0,0.4,0,0.8-0.3c1-0.9,2.7-1.1,4-0.5
		c0.9,0.4,0.8,0.7,1.4,0.7c1.4,0,2.8,0,4.2,0c0-1.2,0.2-2.5-0.4-3.4c-0.5-0.7-1.3-1.3-2.5-1.3c-1.1,0-7.1-0.1-7.8,0L107.4,206.7z"/>
</g>
<path class="st4" d="M110.4,208.3c-2.8,0.6-1.8,4.6,0.9,4.1C114,211.9,113.1,207.7,110.4,208.3z"/>
<path class="st3" d="M134.2,210.2c0,2.5,0.5,4.7,1.4,6.5c0.5,1,1.1,2.1,1.7,2.9l1.4,1.5c3,3,6.6,4.4,11,4.4c4.4,0,8.6-2.1,11.4-5.4
	c3.7-4.4,4.7-10.8,2.2-16c-1-2.1-2.3-3.8-4-5.3c-0.2-0.2-0.3-0.3-0.5-0.4c-5.1-4.2-13.4-4.2-18.5-0.1c-0.9,0.7-1.7,1.4-2.4,2.3
	l-0.8,1C135.3,203.9,134.2,207.3,134.2,210.2z"/>
<path class="st4" d="M149.7,208.1c0,0.3,0.1,0.3,0.1,0.7c-0.6-0.1-0.9-0.1-2-0.4c-1-0.3-2.4-1-3.2-1.7l-1.3-1.2
	c-0.5,1-0.6,2.1-0.1,3.1c0.3,0.5,0.6,0.6,0.9,1c-0.6,0-0.8-0.3-1.3-0.4c0,0.8,0.2,1.5,0.6,2c0.3,0.4,1,1,1.6,1.1
	c-0.1,0.2,0,0.1-0.8,0.1c-0.2,0-0.2,0-0.4-0.1c0.1,1,1.4,2.2,2.8,2.3c-0.2,0.4-1.3,0.8-1.9,1c-0.9,0.3-1.5,0.2-2.6,0.2
	c0.5,0.7,3.2,1.5,4.5,1.5c2.1,0,3.2-0.3,4.8-1.1c0.3-0.1,0.5-0.3,0.8-0.5c2.1-1.5,3.7-4.4,3.7-7c0-0.7-0.1-0.7,0.3-1
	c0.5-0.4,0.9-0.9,1.3-1.4c-0.5,0.1-1,0.4-1.6,0.4c0.1-0.1,0.9-0.7,1.2-1.7c-0.4,0.2-1.5,0.7-2,0.7c-0.2,0-1.7-1.7-3.8-0.6
	C150.5,205.8,149.7,206.9,149.7,208.1z"/>
<path class="st4" d="M212.3,214.1v0.4c0.8,0.7,1.5,0.9,2.7,1.1c0.1,0.7,0.1,1.4,1,1.3c0.8-0.1,1.4-0.3,2.2-0.1
	c1.1,0.3,1.9,1.4,3.4,1.7c2.7,0.6,3.7-1.6,5.6-1.8c2.1-0.2,2.3,1,2.7-1.2c1.2-0.1,2-0.4,2.7-1.1v-0.4c-0.4-0.4-1.7-0.4-2.9-1.5
	c-0.5-0.5-1.8-1.8-1.6-2.9c0.5-0.7,2.1-0.7,2.4-1.5c0.2-0.6-0.3-1-0.8-1c-0.7-0.1-0.9,0.4-1.8,0.3c0-2.4,0.5-4-0.9-5.7
	c-2.3-2.9-7-2.9-9.2,0c-1.3,1.7-0.9,3.4-0.9,5.7c-0.9,0.1-0.9-0.2-1.6-0.3c-0.6,0-1.2,0.3-1.1,0.9c0.3,1.5,3.8,0.4,1.9,3.3
	c-0.1,0.2-0.3,0.5-0.5,0.6c-0.4,0.5-1.2,1.2-1.8,1.5C213.5,213.7,212.6,213.8,212.3,214.1z"/>
<path class="st3" d="M222.6,224.6c2.3,0,4.6-0.5,6.2-1.3c0.8-0.4,1-0.4,1.8-0.9c2.5-1.6,4.2-3.4,5.6-6.2c2-3.9,2-9.1,0-13
	c-1.2-2.5-3.6-5.2-6.2-6.5l-1.2-0.6c-1.6-0.8-3.9-1.3-6.2-1.3c-4.5,0-8.2,2.1-10.5,4.4c-2.3,2.3-4.3,6.3-4.3,9.6
	c0,0.4-0.1,0.5-0.1,0.9l0.1,1.7c0.6,4.5,2.6,7.8,6.3,10.5c0.4,0.3,0.7,0.5,1.1,0.7l1.8,0.9C218.8,224.1,220.5,224.6,222.6,224.6z"/>
<g class="st1">
	<g class="st6">
		<polygon class="st7" points="311.8,150 311.5,146 312.8,145.5 313.3,150 		"/>
		<polygon class="st7" points="313.8,146.4 314.4,146.4 314.4,149.2 313.9,149.2 		"/>
		<polygon class="st7" points="311.2,146.4 313,145.5 312.3,141.1 310.3,142 		"/>
		<polygon class="st7" points="312.7,146 313.8,146 314,149.7 313.2,149.7 		"/>
		<polygon class="st7" points="310.2,167.3 310.2,152 311.1,152 313.9,155.3 313.9,163.7 311.1,167.3 		"/>
		<path class="st7" d="M305.6,150.2h3.8c0.6,0,1,0.5,1,1v17.6c0,0.6-0.5,1-1,1h-3.8c-0.6,0-1-0.5-1-1v-17.6
			C304.6,150.6,305,150.2,305.6,150.2z"/>
		<path class="st7" d="M308.8,169.8v-19.7c1.4-0.1,1.6,0.8,1.6,1.2c0,5.8,0,11.6,0,17.4C310.4,169.6,309.8,169.9,308.8,169.8z"/>
		<path class="st7" d="M305.4,169.8l0-19.6c-0.2,0.1-0.8,0.3-0.8,1.3l0,17.2C304.6,169.4,305,169.7,305.4,169.8z"/>
		<path class="st7" d="M311.5,150h2.2l0,7.3c-0.4,1-1.6,1.3-2.2,0L311.5,150z"/>
		<rect x="311.3" y="150" class="st7" width="2.6" height="1.6"/>
	</g>
	<g class="st6">
		<polygon class="st7" points="269.6,150 270,146 268.7,145.5 268.1,150 		"/>
		<polygon class="st7" points="267.7,146.3 267,146.3 267,149.2 267.5,149.2 		"/>
		<polygon class="st7" points="270.3,146.4 268.4,145.4 269.1,141 271.2,142 		"/>
		<polygon class="st7" points="268.7,146 267.7,146 267.5,149.7 268.2,149.7 		"/>
		<polygon class="st7" points="271.2,167.3 271.2,151.9 270.3,151.9 267.6,155.3 267.6,163.7 270.3,167.3 		"/>
		<path class="st7" d="M275.8,150.1h-3.8c-0.6,0-1,0.5-1,1v17.6c0,0.6,0.5,1,1,1h3.8c0.6,0,1-0.5,1-1v-17.6
			C276.9,150.6,276.4,150.1,275.8,150.1z"/>
		<path class="st7" d="M272.6,169.8v-19.7c-1.4-0.1-1.6,0.8-1.6,1.2c0,5.8,0,11.6,0,17.4C271.1,169.5,271.6,169.9,272.6,169.8z"/>
		<path class="st7" d="M276.1,169.8l0-19.6c0.2,0.1,0.8,0.3,0.8,1.3l0,17.2C276.8,169.4,276.4,169.6,276.1,169.8z"/>
		<path class="st7" d="M270,150h-2.2l0,7.3c0.4,1,1.6,1.3,2.2,0L270,150z"/>
		<rect x="267.6" y="149.9" class="st7" width="2.6" height="1.6"/>
	</g>
	<g class="st6">
		<path class="st7" d="M269.4,140.8l1.7,0.7c9.9-14.5,32.7-12.5,39.1,0.2l1.7-0.8C308,123,272.5,123.3,269.4,140.8z"/>
		<path class="st7" d="M307,133.1l0.1-1.4l-2-1.7l-0.1-1.2c-4.3-1.2-8.4-2.1-13.8-2.3l0,0.5l-1,0l0-0.5c-4.8,0.2-8.9,0.6-13.6,2.1
			l-0.1,1l-2.3,1.8l-0.1,1.5C287.7,124.3,299.4,128,307,133.1z"/>
	</g>
</g>
<path class="st4" d="M290.9,169.9c6.9,0,12.6-5.5,12.6-12.2c0-6.7-5.7-12.2-12.6-12.2c-6.9,0-12.6,5.5-12.6,12.2
	C278.3,164.4,283.9,169.9,290.9,169.9z"/>
<path class="st8" d="M282.6,156.8l0-2.4h5.2c0.1,0,0.1,0,0.1-0.1l0-1.8c0-0.1-0.1-0.2-0.2-0.2h-7c-0.1,0-0.1,0-0.1,0.1l0,10.5
	c0,0.1,0.1,0.2,0.2,0.2h1.8c0.1,0,0.1,0,0.1-0.1l0-4.3h4.3c0.1,0,0.1,0,0.1-0.1l0-1.7c0-0.1-0.1-0.2-0.2-0.2H282.6L282.6,156.8z
	 M301.2,152.5c0-0.1-0.1-0.2-0.2-0.2h-1.8c0,0-0.1,0-0.1,0l-3.7,7.9l-3.8-7.9c0,0-0.2-0.1-0.2-0.1h-1.8c-0.1,0-0.1,0-0.1,0.1l0,10.5
	c0,0.1,0.1,0.2,0.2,0.2h1.8c0.1,0,0.1,0,0.1-0.1l0-6.1l2.9,5.6c0,0,0.2,0.1,0.2,0.1h1.7c0,0,0.1,0,0.1,0l2.7-5.6l0,5.8
	c0,0.1,0.1,0.2,0.2,0.2h1.8c0.1,0,0.1,0,0.1-0.1L301.2,152.5z"/>
<path class="st4" d="M135.7,168.8v-42.3h11.6V142h21.8v-15.5h11.6v42.3h-11.6v-16.6h-21.8v16.6H135.7L135.7,168.8z M19.5,143.5v25.4
	h35.6c11.3,0,16.7-11.8,10.9-20.9c4.8-5.9,2.7-21.4-10.6-21.3H27.7L19.4,137l36.1,0c2.5,1,2.8,5.1,0,6.4L19.5,143.5L19.5,143.5z
	 M31.2,153.5h24.2c2,0.2,2.9,4.3,0,5.1l-24.2,0.1V153.5L31.2,153.5z M70.4,168.9l24-42.3h12l24,42.3h-15l-0.7,0H90l6-10.6h12.7
	l-8.3-15.8l-15,26.4H70.4L70.4,168.9z M186.6,168.9v-42.2h11.6v42.2H186.6L186.6,168.9z M202.5,168.9l24-42.3h12l24,42.3h-15l-0.7,0
	h-24.6l6-10.6h12.7l-8.3-15.8l-15,26.4H202.5z"/>
<path class="st4" d="M182.9,171.5h77.1c2.2,0,3.9,1.8,3.9,3.9v12.4c0,2.2-1.8,3.9-3.9,3.9h-77.1c-2.2,0-3.9-1.8-3.9-3.9v-12.4
	C179,173.3,180.8,171.5,182.9,171.5z"/>
<g class="st1">
	<path class="st9" d="M187.1,178.5c0.2-0.1,2.5,0,2.9,0c1.8,0,2.1-0.2,2.1,0.8v4.4c0,1.4,0.1,1.1-3.3,1.1c-1.8,0-2.1,0.2-2.1-0.8
		v-4.4C186.7,179.1,186.6,178.7,187.1,178.5L187.1,178.5z M182.2,187.1c0.1,0.9,0.9,1.7,1.7,1.9c0.5,0.1,6.6,0,7.2,0
		c1.1,0,2.5,0.1,3.6,0c0.9-0.1,1.7-0.9,1.9-1.7c0.1-0.5,0-6.6,0-7.2c0-1.1,0.1-2.5,0-3.6c-0.1-1-0.9-1.8-1.7-1.9
		c-0.5-0.1-6.6,0-7.3,0c-1.1,0-2.5-0.1-3.6,0c-0.9,0.1-1.7,0.9-1.9,1.7c-0.1,0.5,0,6.6,0,7.2C182.2,184.6,182.1,186.1,182.2,187.1z"
		/>
	<path class="st9" d="M237.6,175.8c-0.3-0.3-0.9-1-1.4-1.2c-0.4-0.1-2.1-0.2-2.5-0.1c-0.7,0.2-0.5,1.2-0.5,2.1V187
		c0,2.4-0.2,2,3.1,2c1.1,0,1.2-0.2,1.2-1.3c0-0.8,0-4.7,0-5.1c0.4,0.4,0.9,0.8,1.3,1.3c0.2,0.2,0.4,0.4,0.7,0.6
		c0.2,0.2,0.4,0.4,0.6,0.7c0.9,0.9,1.7,1.7,2.6,2.6c0.3,0.3,1,1.1,1.4,1.2c0.4,0.1,2.1,0.2,2.5,0.1c0.7-0.2,0.6-1.2,0.6-2v-10.4
		c0-0.8,0.2-1.8-0.5-2c-0.3-0.1-2.1,0-2.6,0c-1.1,0-1.3,0.2-1.3,1.3c0,0.8,0,4.8,0,5.2L237.6,175.8z"/>
	<path class="st9" d="M207.7,181c-1.7-1.7-3.5-3.4-5.2-5.2c-0.3-0.3-0.9-1-1.4-1.2c-0.3-0.1-2.2-0.1-2.5,0c-0.7,0.2-0.5,1.3-0.5,2.1
		V187c0,2.4-0.2,2,3.1,2c1.1,0,1.2-0.2,1.2-1.3c0-0.8,0-4.7,0-5.1c0.4,0.4,0.8,0.9,1.3,1.3l3.9,3.9c0.3,0.3,0.9,1.1,1.4,1.2
		c0.4,0.1,2,0.1,2.4,0.1c0.8-0.1,0.6-1.3,0.6-2v-10.3c0-2.5,0.2-2.1-3.1-2.1c-1.2,0-1.3,0.1-1.3,1.3
		C207.7,176.7,207.8,180.4,207.7,181z"/>
	<path class="st9" d="M253.2,178.5c1.4-0.1,4.3,0,6,0c0.6,0,1.4,0.1,1.8-0.2c0.3-0.3,0.2-1.3,0.2-1.8c0-0.6,0.1-1.4-0.2-1.8
		c-0.3-0.3-1.3-0.2-1.8-0.2h-7.9c-2.3,0-2.5-0.3-2.5,1.4v11.9c0,0.7,0.1,1.1,0.8,1.2c2.6,0.1,5.3,0,7.9,0c4.2,0,3.8,0.4,3.8-2.1
		c0-2.1,0.1-2-2-2c-1.8,0-4.3,0.1-5.9,0l0-1.2c1-0.1,2.3,0,3.3,0c0.6,0,1.1,0.1,1.3-0.4c0.1-0.3,0.1-1.2,0.1-1.6c0-1.7,0.2-2-1.3-2
		c-1,0-2.3,0.1-3.3,0L253.2,178.5z"/>
	<path class="st9" d="M213.6,188.4c0.1,0.5,0.5,0.6,1,0.6h10c0.6,0,0.9-0.1,1-0.6c0.1-0.5,0.1-2.9-0.1-3.2c-0.2-0.4-0.8-0.3-1.4-0.3
		h-5c-1.2,0-1,0.2-1-0.7V176c0-0.6,0.1-1.1-0.3-1.3c-0.3-0.2-2.7-0.1-3.2-0.1c-0.6,0-1,0.1-1,0.6L213.6,188.4z"/>
	<path class="st9" d="M227.1,188.5c0.1,0.7,1.1,0.6,1.8,0.6c2.9,0,2.7,0.3,2.7-2c0-1.2,0.1-11.5,0-11.9c0-0.3-0.3-0.6-0.6-0.6
		c-0.3,0-3.3,0-3.5,0.1c-0.6,0.3-0.4,1.2-0.4,2C227.1,177.7,227,188.1,227.1,188.5z"/>
</g>
<g class="st1">
	<polygon class="st10" points="212.9,224.8 212.9,322.4 -185.5,322.4 -185.5,242.4 209.7,227.6 	"/>
	<path class="st5" d="M62.2,219.6c-0.7-4.2-0.8-8.7,1.1-12.1c1.1-1.9,2.7-1.9,5.4-2.2c5.5-0.6,4-0.5,4.1,1.5l1.9-2.1
		c1.2,2,0.6,3.2,1,1.9c0-0.1,0.1,0.3,0.2,0.4l0.8-2.4l7.4-0.2l2.8,12.6l-0.7,0.6c-1.8,1.7-1.1,1.5-2.8,2c-1.2,0.3-4.2,0.1-5.6,0.1
		l-1.2-2.4c-1.4,2.4-0.8,2.3-2,2.1c-0.9-0.1-1.4-0.7-1.6-1.6c-0.1-0.2-0.1-0.3-0.3-0.4c-5.7,4.1-2.2,1.2-7.1,2l-0.7-4L62.2,219.6
		L62.2,219.6z M88.5,219.9c-1.1-5.7-0.1-10.3,2.1-14.8l5.9-0.1l1.2,2.4c0.1,0.1,0.2,0.2,0.3,0.3c0.1,0.1,0.3,0.4,0.3,0.3
		c0-0.1,0.2,0.2,0.3,0.3l0.6-0.7c1.4-2-0.1-0.4,1.2-2.2c2.9-0.1,6.3-0.6,8.6,0.6l-1.5,4.7l2.1,0.4c0.1,0,0.6,0.1,0.8,0.2
		c-0.6-2.9-0.9-2.7-0.1-5.9c1.8,0.1,6.9-0.1,8.4,0.8c0.7,0.4-0.2-0.3,0.7,0.7l0.5,0.7c0.2-0.7,0.4-1.5,1.2-1.3l-1.7,6.4
		c-0.2,1.9,0.6,4.4-0.9,6.5l-22.2,0.6C93.9,219.9,90.9,219.9,88.5,219.9L88.5,219.9z M60.5,206.1c-3.7-1.2-8.3-1.5-12.2-2.2l0.2,4.6
		c1.2-1,1-1,2.1-3.1l-1.9,12.5l1.8-2.3l1.7,2.4l0.6-2.8c1.7,0.9,1.1,2.6,2.2,3.3l4.5,1.1C61.7,216.2,60.7,213,60.5,206.1L60.5,206.1
		z M-185.3,244.1c5.8-0.5,1.1,1.1,8.4-0.5c2.1-0.4,7.4-0.3,10-0.5c9.9-0.6,16.2,0.3,26.2-0.4c2.3-0.2,4.8-1.6,11.6-1.8
		c8.8-0.3,18-0.2,26.7-0.6c14.3-0.7,22.6,1,38.4-0.6c10.8-1.1,27.4-3.3,38-2.5c4.3,0.3,8.8-0.3,13.1-0.4c4-0.1,8.1,0.2,12.3,0.2
		c9.8-0.6,12.6-1.4,21.3-0.4l20.8-1.6c5.1-0.2,9.3-0.2,14.3-0.4c10.9-0.9,22.4-1.5,33.5-1.4c5.6,0,11.1,0.3,16.7,0
		c3-0.1,11.7,0.2,14.2-1.9c1.1-1,15.9,0.7,19.1,0.3l31.8-1.4c3.5,0.1,5.5-0.3,8.4-0.8l21.6-0.7l0.9-2.5c0.1,0.1,0.2,0.2,0.2,0.4
		c0.2,0.7,0.8,2.7,2.6,1.9l2.8-2.6l1.6,2.9c1.5-2.5,0.1-2.8,0.5-5.6c0.5-3.1-0.3,0.3,3-3.7c-8.6,0.3-5.8,0.3-6.8,0
		c-0.1,0-0.3-0.2-0.4-0.2c-0.1,0-0.3-0.1-0.4-0.2c-1.7,0.3-2.3,0.5-3.5-0.3l-8.6,0.4l-1.5-2.2l-1.9,2c-6.7-0.6-8.5,0.3-14.9,0.1
		l-0.6-2.2c-0.3,1.2-1,2.1-2.1,2.3l-0.5-3.4l-2.7,2.3c-4.2,2.4-3,0.4-11.8,1.3l-0.1-3.7c-1.2,1.7-0.8,1.1-1.3,3
		c-2.8-3.2-0.3-1.6-2.1-2.5l0.3,2.7c-7.3,0.1-8,1-10.2-2.1l-0.9,2.4l-10.7,0.1l-1-2.4c-2.1,2.3-1.5,2.3-5.1,2.4
		c-8.2,0.1-5.9-0.9-3.5-14.2l28.8,0.9c5.7-0.3-0.9,1.3,9.9,0.2c1.7,2,0.6,1.2,1.5,1.5c2-1.7,3-1.4,5.1-1.1
		c3.9,0.6,13.1,0.3,15.2,0.6c3.7,0.5,1.8,0,2.5,3.3c0.4,1.9-0.4,0.3,0.4,1.1l0.3-3.6l3.1,1l-0.4-1c0-0.1-0.1-0.3-0.1-0.4
		c-0.5-1.3-0.4,0.6-0.1-0.4l5.1,0.2c1.1,0.4-0.7,1.2,2.1,0.6c1.9-0.4,0.7,0.6,1.5-1.2c-1.3,0.1-2.8-1.3-4.2-1.7
		c-4-1.4-13.6,1-16.7-1.4c-3.1,0.7-19.1-0.5-26.3-0.4c-3.5,0-4.2-0.8-7.3-1c-4.9-0.4-4.6,0.7-8.2,1c-2.7,0.2-4.7-1-7.8-1.2
		c-3.2-0.2-5.4,0-8.4-0.2c-7.5-0.6-37.5-1.5-42.3-0.9c-8.9,1.1-22.7-3.3-32,1.3l4,0.6c0.3,7.6,1.5,12.7-1.6,16.4l-12.2,0.2
		c0.6-2,0.5,0.4,0.8-1.3c0-0.2,0.3-0.2,0.4-0.3l-3.2-0.2c-0.4-2.1-0.2-1.5-1-2.6c-0.5,2-0.2,1.4-1,2.4l-6.9-0.5l1.8,2.4l-13.2,0.3
		c-6.3,0.2-7.3,1.2-10.6-2.6l-1.5,2.6l-3.9,0l-0.4-1.5c0-0.2-0.1-0.2-0.2-0.4c-2.3,0-5.8-0.4-7.7,0.4c-0.1,0.1-0.3,0.2-0.4,0.2
		l-0.7,0.4c-1.3,0.6-1.2,0.2-3.4,0.1c-1.7-0.1-2.7,0-4.4-0.2c-3-0.3-4.3,0.4-7.9,0.5c-7.6,0.1-3.6-1.2-6.2-2.6
		c-0.9,2.3-1.1,3.2-5.6,2.6l-0.5-4.8l-2.2-0.9c0.8-5.5,1.4-5.8,0.6-10.1l-1.6,0.3l-0.6,15.4l-4-1.6l-0.4,0.7c-0.9,1.1-0.2,0.6-1.3,1
		c-0.8,0.3-2.3,0.2-3.2,0.2c-16.1,0.1-13.6,2.6-14.5-5c-1.5,3.5-0.6,2.6-1.3,5.3l-1.4-1c-3.2-2.8-2.2-0.7-2.6-1.9
		c-0.1-0.2-0.3-0.1-0.4-0.2l0.3-3.5l-0.5-0.2c-4-2.2,0.8,1.1-1.2-0.8c-1.2-1.2-1.2-2.5-1.9-5.1c-0.6-2.1-1.1-5-2.1-7.1
		c-0.1,2.2-0.2,1.5,0.4,3.7c2.1,7.2,0.9,8,3.7,10.1c-1.2,5.4-0.5,2.5-0.3,5.7l-4.1,0.3l-0.3-6.3c-3.2,1.4-2.2,0.2-3,0.5
		c-0.2,7.1,0.9,5.2-1.5,5.7c-3.9,0.8-1.2-1.5-2.3-4.2l-1.1,4.5c-0.5-0.3-1.8-0.8-1.9-1.4c0-0.2-0.2-0.2-0.2-0.3l-4,1.5l-1.7-5.9
		c-1.8,5.6,1.7,5.7-2.6,6.2l-0.9-14.7l3.1-0.6c-1.7-1.4-4.4-2.1-6.3-2.4c-4-0.6-21.5,1.5-23.3,2.6l6.2,0.2l0.2,9l-3.9,0.9
		c2.2,4.5,1.3,4.1-0.1,5.2c-0.7-1.6-0.7-1.3-0.9-3.1c-0.2-1.6-0.1-1.7-0.4-3.1c-1.6,4.6,0.1,2.8-1.1,6.3c-3.7-1.5-4.7-2.3-8.7-0.6
		c-2.2,0.9-2.3,0.7-5,0.7c-5.8,0-22.4,0-25.9,0.7l-1.5,0.8l1.2,1.1l-3.7,1c-0.3-0.8,0.3,0.7,0-0.8l-0.1-0.3c-3.5-0.2-4,0.9-6.2,0.6
		c-0.9-0.1-5-0.1-7.7-0.2c-3.9-0.2,2.2-0.7-0.3-0.6L-185.3,244.1z"/>
</g>
<g>
	<g>
		<g>
			<polygon class="st7" points="234.1,93.1 233.1,81.7 236.8,80.4 238.4,93.1 			"/>
			<polygon class="st7" points="239.7,82.8 241.5,82.8 241.5,90.9 240,90.9 			"/>
			<polygon class="st7" points="232.3,83 237.5,80.2 235.5,67.7 229.8,70.4 			"/>
			<polygon class="st7" points="236.6,81.8 239.7,81.8 240.2,92.3 238.1,92.3 			"/>
			<polygon class="st7" points="229.6,142.4 229.6,98.7 232.2,98.7 239.9,108.2 239.9,132.2 232.2,142.4 			"/>
			<path class="st7" d="M216.5,93.6h10.7c1.6,0,3,1.3,3,3v50c0,1.6-1.3,3-3,3h-10.7c-1.6,0-3-1.3-3-3v-50
				C213.5,94.9,214.9,93.6,216.5,93.6z"/>
			<path class="st7" d="M225.6,149.5v-56c4.1-0.4,4.6,2.2,4.6,3.3c0,16.5,0,32.9,0,49.4C230.1,148.7,228.5,149.8,225.6,149.5z"/>
			<path class="st7" d="M215.8,149.4l0-55.7c-0.6,0.2-2.4,1-2.3,3.7l0,48.9C213.7,148.3,214.8,149.1,215.8,149.4z"/>
			<path class="st7" d="M233.1,93.1h6.2l0,20.8c-1.2,2.9-4.5,3.8-6.3,0L233.1,93.1z"/>
			<rect x="232.6" y="93.1" class="st7" width="7.3" height="4.6"/>
		</g>
		<g>
			<polygon class="st7" points="114.2,93 115.2,81.6 111.5,80.3 110,93 			"/>
			<polygon class="st7" points="108.7,82.7 106.8,82.7 106.8,90.8 108.3,90.8 			"/>
			<polygon class="st7" points="116,82.9 110.8,80.1 112.9,67.6 118.6,70.3 			"/>
			<polygon class="st7" points="111.7,81.7 108.7,81.7 108.2,92.2 110.2,92.2 			"/>
			<polygon class="st7" points="118.7,142.3 118.7,98.6 116.2,98.6 108.5,108.1 108.5,132 116.2,142.3 			"/>
			<path class="st7" d="M131.9,93.4h-10.7c-1.6,0-3,1.3-3,3v50c0,1.6,1.3,3,3,3h10.7c1.6,0,3-1.3,3-3v-50
				C134.8,94.8,133.5,93.4,131.9,93.4z"/>
			<path class="st7" d="M122.8,149.3v-56c-4.1-0.4-4.6,2.2-4.6,3.3c0,16.5,0,32.9,0,49.4C118.3,148.6,119.9,149.7,122.8,149.3z"/>
			<path class="st7" d="M132.6,149.3l0-55.7c0.6,0.2,2.4,1,2.3,3.7l0,48.9C134.6,148.2,133.5,148.9,132.6,149.3z"/>
			<path class="st7" d="M115.3,93H109l0,20.8c1.2,2.9,4.5,3.8,6.3,0L115.3,93z"/>
			<rect x="108.5" y="92.9" class="st7" width="7.3" height="4.6"/>
		</g>
		<g>
			<path class="st7" d="M113.6,67.1l4.8,2c28.1-41.2,92.8-35.6,111,0.5l5-2.3C223.3,16.5,122.5,17.3,113.6,67.1z"/>
			<path class="st7" d="M220.3,45.2l0.1-4l-5.7-4.7l-0.3-3.4c-12.1-3.3-23.9-5.9-39.2-6.4l0,1.4l-2.7,0.1l0.1-1.5
				c-13.8,0.4-25.1,1.8-38.7,6l-0.2,2.9l-6.7,5.2l-0.4,4.3C165.5,20.2,198.8,30.7,220.3,45.2z"/>
		</g>
	</g>
	<path class="st7" d="M174.6,142.4c15.9,0,28.9-12.6,28.9-28c0-15.4-13-28-28.9-28c-15.9,0-28.9,12.6-28.9,28
		C145.6,129.8,158.6,142.4,174.6,142.4z"/>
	<path class="st0" d="M159.9,112.9l0-4.4h9.3c0.2,0,0.1,0,0.1-0.1l0-3.1c0-0.1-0.2-0.3-0.4-0.3h-12.6c-0.2,0-0.1,0-0.1,0.1l0,18.8
		c0,0.1,0.2,0.3,0.4,0.3h3.1c0.2,0,0.1,0,0.1-0.1l0-7.7h7.7c0.1,0,0.1,0,0.1-0.1l0-3.1c0-0.1-0.2-0.3-0.4-0.3H159.9L159.9,112.9z
		 M193.1,105.2c0-0.1-0.3-0.3-0.4-0.3h-3.2c-0.1,0-0.1,0-0.2,0.1l-6.7,14.2l-6.8-14.1c0-0.1-0.3-0.2-0.4-0.2h-3.2
		c-0.2,0-0.1,0-0.1,0.1l0,18.9c0,0.1,0.2,0.3,0.4,0.3h3.2c0.2,0,0.1,0,0.1-0.1l0.1-10.9l5.2,10.1c0,0.1,0.3,0.2,0.4,0.2h3
		c0.1,0,0.1,0,0.2-0.1l4.9-10l-0.1,10.5c0,0.1,0.2,0.3,0.4,0.3h3.1c0.2,0,0.1,0,0.1-0.1L193.1,105.2z"/>
</g>
<path class="st11" d="M319.9,320.6h-295c-6.6,0-12-5.4-12-12v-54.5c0-6.6,5.4-12,12-12h295c6.6,0,12,5.4,12,12v54.5
	C331.9,315.2,326.5,320.6,319.9,320.6z"/>
<g>
	<path class="st12" d="M85,283.6c0,5.4-0.9,10.1-2.8,14.2c-1.9,4.1-4.5,7.2-8,9.4c-3.5,2.2-7.4,3.3-11.9,3.3
		c-4.5,0-8.4-1.1-11.9-3.3c-3.5-2.2-6.2-5.3-8.1-9.3c-1.9-4-2.9-8.7-2.9-13.9v-3.1c0-5.4,0.9-10.1,2.8-14.2s4.6-7.2,8-9.4
		c3.5-2.2,7.4-3.3,11.9-3.3s8.4,1.1,11.9,3.2c3.5,2.1,6.1,5.2,8,9.3s2.8,8.7,2.9,14.1V283.6z M75.5,280.7c0-6.1-1.2-10.7-3.5-14
		c-2.3-3.2-5.6-4.9-9.8-4.9c-4.1,0-7.3,1.6-9.7,4.8c-2.3,3.2-3.5,7.8-3.6,13.7v3.2c0,6,1.2,10.7,3.5,14c2.4,3.3,5.6,4.9,9.8,4.9
		c4.2,0,7.5-1.6,9.7-4.8s3.4-7.9,3.4-14.1V280.7z"/>
	<path class="st12" d="M138.1,309.6h-9.5l-24.5-39v39h-9.5v-54.9h9.5l24.6,39.1v-39.1h9.5V309.6z"/>
	<path class="st12" d="M158.9,301.9h24.9v7.7h-34.5v-54.9h9.5V301.9z"/>
	<path class="st12" d="M201.2,309.6h-9.5v-54.9h9.5V309.6z"/>
	<path class="st12" d="M256.5,309.6h-9.5l-24.5-39v39h-9.5v-54.9h9.5l24.6,39.1v-39.1h9.5V309.6z"/>
	<path class="st12" d="M299.9,285.1h-22.6v16.8h26.4v7.7h-35.9v-54.9h35.6v7.7h-26.1v15.2h22.6V285.1z"/>
</g>
<g>
	<g class="st1">
		<g class="st6">
			<polygon class="st7" points="385.1,202.4 384.7,197.5 386.3,196.9 387,202.4 			"/>
			<polygon class="st7" points="387.6,198 388.4,197.9 388.4,201.4 387.7,201.4 			"/>
			<polygon class="st7" points="384.4,198 386.6,196.8 385.7,191.4 383.3,192.5 			"/>
			<polygon class="st7" points="386.2,197.5 387.6,197.5 387.8,202.1 386.9,202.1 			"/>
			<polygon class="st7" points="383.2,223.8 383.2,204.9 384.3,204.9 387.7,209 387.7,219.4 384.3,223.8 			"/>
			<path class="st7" d="M377.5,202.6h4.6c0.7,0,1.3,0.6,1.3,1.3v21.7c0,0.7-0.6,1.3-1.3,1.3h-4.6c-0.7,0-1.3-0.6-1.3-1.3v-21.7
				C376.2,203.2,376.8,202.6,377.5,202.6z"/>
			<path class="st7" d="M381.4,226.9v-24.3c1.8-0.2,2,1,2,1.4c0,7.2,0,14.3,0,21.5C383.4,226.6,382.7,227,381.4,226.9z"/>
			<path class="st7" d="M377.2,226.9l0-24.2c-0.3,0.1-1,0.4-1,1.6l0,21.2C376.3,226.4,376.8,226.7,377.2,226.9z"/>
			<path class="st7" d="M384.7,202.4h2.7l0,9c-0.5,1.3-1.9,1.6-2.7,0L384.7,202.4z"/>
			<rect x="384.5" y="202.4" class="st7" width="3.2" height="2"/>
		</g>
		<g class="st6">
			<polygon class="st7" points="333.1,202.4 333.5,197.4 331.9,196.8 331.2,202.4 			"/>
			<polygon class="st7" points="330.7,197.9 329.9,197.9 329.9,201.4 330.5,201.4 			"/>
			<polygon class="st7" points="333.8,198 331.6,196.8 332.5,191.3 335,192.5 			"/>
			<polygon class="st7" points="332,197.4 330.7,197.4 330.4,202 331.3,202 			"/>
			<polygon class="st7" points="335,223.8 335,204.8 333.9,204.8 330.6,208.9 330.6,219.3 333.9,223.8 			"/>
			<path class="st7" d="M340.7,202.6h-4.6c-0.7,0-1.3,0.6-1.3,1.3v21.7c0,0.7,0.6,1.3,1.3,1.3h4.6c0.7,0,1.3-0.6,1.3-1.3v-21.7
				C342,203.1,341.4,202.6,340.7,202.6z"/>
			<path class="st7" d="M336.8,226.8v-24.3c-1.8-0.2-2,1-2,1.4c0,7.2,0,14.3,0,21.5C334.8,226.5,335.5,227,336.8,226.8z"/>
			<path class="st7" d="M341,226.8l0-24.2c0.3,0.1,1,0.4,1,1.6l0,21.2C341.9,226.3,341.5,226.7,341,226.8z"/>
			<path class="st7" d="M333.5,202.4h-2.7l0,9c0.5,1.3,1.9,1.6,2.7,0L333.5,202.4z"/>
			<rect x="330.6" y="202.3" class="st7" width="3.2" height="2"/>
		</g>
		<g class="st6">
			<path class="st7" d="M332.8,191.1l2.1,0.9c12.2-17.9,40.3-15.5,48.2,0.2l2.2-1C380.4,169.1,336.7,169.5,332.8,191.1z"/>
			<path class="st7" d="M379.1,181.6l0.1-1.7l-2.5-2l-0.1-1.5c-5.3-1.4-10.4-2.6-17-2.8l0,0.6l-1.2,0l0-0.6
				c-6,0.2-10.9,0.8-16.8,2.6l-0.1,1.2l-2.9,2.3l-0.2,1.9C355.3,170.7,369.8,175.3,379.1,181.6z"/>
		</g>
	</g>
	<path class="st4" d="M359.3,226.9c8.6,0,15.6-6.8,15.6-15.1c0-8.3-7-15.1-15.6-15.1c-8.6,0-15.6,6.8-15.6,15.1
		C343.7,220.1,350.7,226.9,359.3,226.9z"/>
	<path class="st8" d="M349.1,210.8l0-3h6.4c0.1,0,0.1,0,0.1-0.1l0-2.2c0-0.1-0.2-0.2-0.3-0.2h-8.6c-0.1,0-0.1,0-0.1,0.1l0,13
		c0,0.1,0.2,0.2,0.3,0.2h2.2c0.1,0,0.1,0,0.1-0.1l0-5.3h5.3c0.1,0,0.1,0,0.1-0.1l0-2.1c0-0.1-0.2-0.2-0.3-0.2H349.1L349.1,210.8z
		 M372.1,205.5c0-0.1-0.2-0.2-0.3-0.2h-2.2c-0.1,0-0.1,0-0.1,0l-4.6,9.8l-4.7-9.7c0,0-0.2-0.2-0.3-0.2h-2.2c-0.1,0-0.1,0-0.1,0.1
		l0,13c0,0.1,0.1,0.2,0.3,0.2h2.2c0.1,0,0.1,0,0.1-0.1l0-7.5l3.6,6.9c0,0,0.2,0.2,0.3,0.2h2c0,0,0.1,0,0.1,0l3.4-6.9l0,7.2
		c0,0.1,0.2,0.2,0.3,0.2h2.2c0.1,0,0.1,0,0.1-0.1L372.1,205.5z"/>
	<path class="st7" d="M167.7,225.7v-52.2H182v19.1h26.9v-19.1h14.3v52.2h-14.3v-20.5H182v20.5H167.7L167.7,225.7z M24.3,194.3v31.3
		h43.9c14,0,20.7-14.6,13.4-25.8c5.9-7.3,3.4-26.4-13.1-26.3H34.5l-10.3,12.8l44.5,0c3,1.3,3.4,6.3,0,7.9L24.3,194.3L24.3,194.3z
		 M38.8,206.7h29.9c2.5,0.3,3.6,5.3,0,6.3l-29.9,0.1V206.7L38.8,206.7z M87.2,225.8l29.6-52.2h14.8l29.6,52.2h-18.5l-0.9-0.1h-30.4
		l7.4-13h15.6l-10.2-19.5l-18.5,32.6H87.2L87.2,225.8z M230.6,225.7v-52.1h14.3v52.1H230.6L230.6,225.7z M250.3,225.7l29.6-52.2
		h14.8l29.6,52.2h-18.5l-0.9-0.1h-30.4l7.4-13h15.6l-10.2-19.5l-18.5,32.6H250.3z"/>
	<path class="st4" d="M253.2,229h68.1c2.7,0,4.8,2.2,4.8,4.8v15.3c0,2.7-2.2,4.8-4.8,4.8h-68.1c-2.7,0-4.8-2.2-4.8-4.8v-15.3
		C248.3,231.1,250.5,229,253.2,229z"/>
	<path class="st8" d="M268.6,248.9h-3.2v-6.8H259v6.8h-3.2v-15.4h3.2v6.1h6.5v-6.1h3.2V248.9L268.6,248.9z M284,248.9h-3.5l-1.2-3.5
		c-0.1-0.4-0.3-0.7-0.5-1.1c-0.2-0.3-0.4-0.6-0.7-0.8c-0.3-0.2-0.6-0.4-0.9-0.5c-0.4-0.1-0.8-0.2-1.3-0.2h-1.2v6.1h-3.1v-15.4l6.5,0
		c0.7,0,1.3,0.1,1.9,0.3c0.6,0.2,1.1,0.5,1.6,0.9c0.4,0.4,0.8,0.9,1,1.4c0.2,0.5,0.4,1.1,0.4,1.7c0,0.4-0.1,0.9-0.2,1.3
		c-0.1,0.4-0.4,0.8-0.6,1.2c-0.3,0.4-0.6,0.7-1,1c-0.4,0.3-0.8,0.5-1.2,0.6c0.5,0.2,0.9,0.4,1.3,0.8c0.3,0.3,0.6,0.7,0.8,1.2
		c0.1,0.2,0.2,0.4,0.3,0.7c0.1,0.2,0.2,0.4,0.3,0.7c0.1,0.2,0.2,0.5,0.3,0.8c0.1,0.3,0.2,0.6,0.3,0.9c0.2,0.4,0.3,0.8,0.4,1.1
		C283.7,248.4,283.9,248.7,284,248.9L284,248.9z M279.9,238.2c0-0.4-0.1-0.7-0.2-1c-0.1-0.3-0.3-0.6-0.6-0.8
		c-0.2-0.2-0.5-0.4-0.9-0.5c-0.3-0.1-0.7-0.2-1.1-0.2h-2.3v4.8h2.3c0.4,0,0.7-0.1,1.1-0.2c0.3-0.1,0.6-0.3,0.9-0.5
		c0.2-0.2,0.4-0.5,0.6-0.7C279.8,238.9,279.9,238.5,279.9,238.2L279.9,238.2z M302.3,248.9h-3.1v-10.3l-5.2,8.2l-5-8.2v10.3H286
		v-15.4h3.6l4.6,7.6l4.8-7.6h3.5V248.9L302.3,248.9z M320.5,246.1c-0.5,0.5-1,1-1.5,1.4c-0.5,0.4-1.1,0.7-1.7,1
		c-0.6,0.3-1.2,0.4-1.8,0.6c-0.6,0.1-1.2,0.2-1.9,0.2c-1.2,0-2.4-0.2-3.4-0.6c-1.1-0.4-2-1-2.8-1.7c-0.8-0.7-1.4-1.6-1.9-2.5
		c-0.5-1-0.7-2-0.7-3.2c0-1.1,0.2-2.1,0.7-3.1c0.5-1,1.1-1.8,1.9-2.5c0.8-0.7,1.7-1.3,2.8-1.7c1.1-0.4,2.2-0.6,3.4-0.6
		c1.4,0,2.7,0.3,3.8,0.8c1.2,0.5,2.1,1.3,2.9,2.2l-2.2,2.1c-0.6-0.8-1.3-1.3-2.1-1.7c-0.8-0.3-1.6-0.5-2.6-0.5
		c-0.8,0-1.5,0.1-2.2,0.4c-0.7,0.3-1.3,0.6-1.8,1.1c-0.5,0.5-0.9,1-1.2,1.6c-0.3,0.6-0.4,1.3-0.4,2c0,0.7,0.1,1.4,0.4,2
		c0.3,0.6,0.7,1.2,1.2,1.6c0.5,0.5,1.1,0.8,1.8,1.1c0.7,0.3,1.4,0.4,2.2,0.4c0.7,0,1.4-0.1,2.1-0.4c0.7-0.3,1.2-0.6,1.8-1v-1.5h-3.4
		V241h6.4V246.1z"/>
</g>
</svg>
