<svg xmlns="http://www.w3.org/2000/svg" viewBox="0 0 295.06 65.22"><defs><style>.a,.b{fill-rule:evenodd;}.b{fill:#fff;}</style></defs><title>bahia</title><polygon class="a" points="292.45 23.45 292.1 19.46 293.4 18.98 293.94 23.45 292.45 23.45"/><polygon class="a" points="294.4 19.84 295.06 19.84 295.06 22.67 294.53 22.67 294.4 19.84"/><polygon class="a" points="291.82 19.9 293.65 18.92 292.94 14.52 290.92 15.46 291.82 19.9"/><polygon class="a" points="293.34 19.47 294.41 19.47 294.58 23.19 293.86 23.18 293.34 19.47"/><polygon class="a" points="290.87 40.81 290.87 25.43 291.76 25.43 294.49 28.77 294.49 37.21 291.76 40.81 290.87 40.81"/><rect x="285.2" y="23.61" width="5.86" height="19.68" rx="1.05" ry="1.05"/><path class="a" d="M338.73-92.15v-19.7c1.44-.15,1.62.79,1.62,1.17V-93.3C340.32-92.4,339.75-92,338.73-92.15Z" transform="translate(-49.29 135.44)"/><path class="a" d="M335.29-92.17v-19.62a1.19,1.19,0,0,0-.81,1.32v17.19A1.2,1.2,0,0,0,335.29-92.17Z" transform="translate(-49.29 135.44)"/><path class="a" d="M341.38-112h2.2v7.31c-0.43,1-1.57,1.33-2.2,0V-112Z" transform="translate(-49.29 135.44)"/><rect x="291.9" y="23.44" width="2.58" height="1.61"/><polygon class="a" points="250.26 23.41 250.61 19.41 249.31 18.94 248.76 23.41 250.26 23.41"/><polygon class="a" points="248.31 19.79 247.65 19.79 247.65 22.63 248.18 22.63 248.31 19.79"/><polygon class="a" points="250.88 19.85 249.06 18.87 249.77 14.47 251.78 15.41 250.88 19.85"/><polygon class="a" points="249.37 19.43 248.3 19.42 248.13 23.14 248.85 23.14 249.37 19.43"/><polygon class="a" points="251.84 40.76 251.84 25.38 250.94 25.38 248.22 28.73 248.22 37.16 250.94 40.76 251.84 40.76"/><rect x="251.65" y="23.57" width="5.86" height="19.68" rx="1.05" ry="1.05"/><path class="a" d="M302.56-92.19v-19.7c-1.44-.15-1.62.79-1.62,1.17v17.38C301-92.45,301.55-92.08,302.56-92.19Z" transform="translate(-49.29 135.44)"/><path class="a" d="M306-92.22v-19.62a1.19,1.19,0,0,1,.81,1.32v17.19A1.2,1.2,0,0,1,306-92.22Z" transform="translate(-49.29 135.44)"/><path class="a" d="M299.91-112h-2.2v7.31c0.43,1,1.57,1.33,2.2,0V-112Z" transform="translate(-49.29 135.44)"/><rect x="248.23" y="23.39" width="2.58" height="1.61"/><path class="a" d="M299.31-121.15l1.7,0.72c9.89-14.5,32.66-12.54,39.07.19l1.75-.82C337.92-138.94,302.47-138.67,299.31-121.15Z" transform="translate(-49.29 135.44)"/><path class="a" d="M336.88-128.85l0.05-1.42-2-1.66-0.1-1.2A56.82,56.82,0,0,0,321-135.38v0.49l-1,0,0-.52a49.07,49.07,0,0,0-13.63,2.1l-0.06,1-2.35,1.83-0.13,1.51C317.6-137.65,329.3-133.93,336.88-128.85Z" transform="translate(-49.29 135.44)"/><path class="a" d="M320.78-92.13a12.45,12.45,0,0,0,12.61-12.23,12.45,12.45,0,0,0-12.61-12.23,12.45,12.45,0,0,0-12.61,12.23A12.45,12.45,0,0,0,320.78-92.13Z" transform="translate(-49.29 135.44)"/><path class="b" d="M312.57-105.23v-2.43h5.18c0.09,0,.08,0,0.08-0.06v-1.75a0.28,0.28,0,0,0-.22-0.18h-7c-0.09,0-.08,0-0.08.06v10.51a0.28,0.28,0,0,0,.22.18h1.75c0.09,0,.08,0,0.08-0.06v-4.32h4.3c0.08,0,.06,0,0.06-0.06V-105a0.28,0.28,0,0,0-.21-0.18h-4.15Zm18.57-4.26a0.3,0.3,0,0,0-.24-0.18h-1.78s-0.08,0-.09,0l-3.71,7.94-3.8-7.85a0.42,0.42,0,0,0-.23-0.12h-1.8c-0.09,0-.06,0-0.06.06v10.53a0.26,0.26,0,0,0,.21.18h1.77c0.09,0,.08,0,0.08-0.06l0-6.1,2.89,5.61a0.33,0.33,0,0,0,.21.12h1.66a0.1,0.1,0,0,0,.09,0l2.74-5.56,0,5.84a0.28,0.28,0,0,0,.22.18H331c0.09,0,.08,0,0.08-0.06v-10.53Z" transform="translate(-49.29 135.44)"/><path class="a" d="M165.59-93.14v-42.3h11.57v15.5H199v-15.5h11.57v42.3H199v-16.59H177.17v16.59H165.59ZM49.42-118.53v25.36H85c11.3,0,16.75-11.8,10.88-20.89,4.76-5.92,2.75-21.37-10.62-21.31H57.62L49.29-125l36.06,0a3.6,3.6,0,0,1,0,6.4l-36,.06h0Zm11.7,10H85.34c2,0.22,2.92,4.27,0,5.12l-24.22.06v-5.18h0Zm39.22,15.43,24-42.28h12l24,42.28h-15l-0.73,0H119.89l6-10.57h12.66l-8.25-15.81-15,26.42h-15Zm116.2-.06v-42.23h11.56v42.23H216.55Zm15.92,0,24-42.25h12l24,42.25h-15l-0.73,0H252l6-10.56h12.66l-8.25-15.8-15,26.41h-15Z" transform="translate(-49.29 135.44)"/><rect x="181.61" y="44.96" width="63" height="20.26" rx="3.91" ry="3.91"/><path class="b" d="M247.32-74.3h-2.58v-5.51h-5.24v5.51h-2.58V-86.74h2.58v4.94h5.24v-4.94h2.58V-74.3h0Zm12.48,0H257L256-77.13a4.38,4.38,0,0,0-.37-0.86,2.73,2.73,0,0,0-.54-0.67,2.26,2.26,0,0,0-.76-0.44,3.1,3.1,0,0,0-1-.16h-1v5h-2.54V-86.74l5.24,0a4.48,4.48,0,0,1,1.58.27,3.88,3.88,0,0,1,1.26.76,3.46,3.46,0,0,1,.83,1.14,3.37,3.37,0,0,1,.3,1.42,3.14,3.14,0,0,1-.18,1.06,3.46,3.46,0,0,1-.51.95,3.87,3.87,0,0,1-.78.77,3.42,3.42,0,0,1-1,.51,2.57,2.57,0,0,1,1,.63,3,3,0,0,1,.63,1q0.12,0.26.22,0.53l0.2,0.55,0.23,0.62,0.27,0.74q0.18,0.51.34,0.88a4.29,4.29,0,0,0,.34.65h0ZM256.44-83a1.79,1.79,0,0,0-.17-0.79,2,2,0,0,0-.47-0.62,2.17,2.17,0,0,0-.71-0.41,2.54,2.54,0,0,0-.87-0.15h-1.86v3.88h1.86a2.81,2.81,0,0,0,.87-0.13,2.11,2.11,0,0,0,.71-0.38,1.83,1.83,0,0,0,.47-0.6,1.74,1.74,0,0,0,.17-0.79h0Zm18.22,8.7h-2.53v-8.31L267.94-76l-4-6.68v8.38H261.4V-86.75h2.91L268-80.57l3.86-6.18h2.81V-74.3h0Zm14.73-2.29a7,7,0,0,1-1.23,1.13,7.46,7.46,0,0,1-1.39.79,7.26,7.26,0,0,1-1.48.46,7.81,7.81,0,0,1-1.5.15,7.67,7.67,0,0,1-2.78-.5,7.16,7.16,0,0,1-2.26-1.37A6.55,6.55,0,0,1,277.22-78a5.85,5.85,0,0,1-.57-2.55,5.8,5.8,0,0,1,.56-2.51,6.41,6.41,0,0,1,1.53-2A7.38,7.38,0,0,1,281-86.48a7.57,7.57,0,0,1,2.78-.51,7.29,7.29,0,0,1,3.12.65,7.32,7.32,0,0,1,2.38,1.74l-1.74,1.67a4.44,4.44,0,0,0-1.68-1.36,5.06,5.06,0,0,0-2.07-.41,4.81,4.81,0,0,0-1.78.33,4.69,4.69,0,0,0-1.45.9,4.2,4.2,0,0,0-1,1.32,3.72,3.72,0,0,0-.36,1.61,3.75,3.75,0,0,0,.36,1.63,4.3,4.3,0,0,0,1,1.33,4.58,4.58,0,0,0,1.45.9,4.78,4.78,0,0,0,1.77.33,4.59,4.59,0,0,0,1.69-.31,5.28,5.28,0,0,0,1.43-.83v-1.2h-2.73v-2.06h5.2v4.16Z" transform="translate(-49.29 135.44)"/></svg>