<svg xmlns="http://www.w3.org/2000/svg" viewBox="0 0 398.37 121.77"><defs><style>.a{fill:#00aeef;}.a,.b{fill-rule:evenodd;}</style></defs><title>muelle</title><polygon class="a" points="398.37 24.17 398.37 121.77 0 121.77 0 41.7 395.14 26.9 398.37 24.17"/><path class="b" d="M91.3-43.94c-0.73-4.18-.76-8.74,1.08-12.06,1.06-1.92,2.69-1.9,5.36-2.19,5.49-.6,4-0.51,4.14,1.46l1.9-2.1c1.24,2,.64,3.23,1,1.9a1.57,1.57,0,0,1,.16.42l0.83-2.37,7.45-.2,2.83,12.58-0.68.64c-1.77,1.71-1.14,1.54-2.84,2a31,31,0,0,1-5.58.1l-1.18-2.4c-1.42,2.37-.82,2.29-2,2.14a1.83,1.83,0,0,1-1.6-1.64,0.71,0.71,0,0,0-.26-0.41c-5.66,4.12-2.18,1.23-7.15,2l-0.7-4L91.3-43.94h0Zm26.3,0.23a22,22,0,0,1,2.09-14.78l5.92-.08,1.19,2.4c0.06,0.08.22,0.23,0.27,0.29s0.25,0.36.29,0.27,0.21,0.16.3,0.26l0.59-.74c1.39-2-.1-0.42,1.24-2.18,2.93-.12,6.34-0.63,8.64.64l-1.53,4.69,2.07,0.41c0.1,0,.59.11,0.77,0.16-0.6-2.9-.89-2.66-0.09-5.92,1.8,0.06,6.94-.11,8.41.8,0.66,0.4-.18-0.29.73,0.67l0.46,0.7c0.24-.73.44-1.53,1.22-1.29L148.47-51c-0.17,1.92.63,4.4-.91,6.46l-22.19.59a69.78,69.78,0,0,1-7.76.21h0ZM89.55-57.5c-3.69-1.21-8.29-1.5-12.16-2.2l0.22,4.61c1.24-1,1-1,2.14-3.1L77.82-45.66,79.59-48l1.7,2.43,0.62-2.77c1.73,0.86,1.14,2.6,2.24,3.3l4.47,1.14c2.19-3.54,1.16-6.71.94-13.61h0Zm-245.78,38c5.77-.45,1.05,1.06,8.42-0.47,2.09-.44,7.41-0.33,10-0.48,9.86-.6,16.16.28,26.18-0.4,2.31-.16,4.81-1.56,11.58-1.76,8.79-.26,18-0.22,26.73-0.63,14.28-.68,22.58,1,38.39-0.57,10.76-1.09,27.44-3.28,38-2.52,4.33,0.31,8.8-.26,13.14-0.39,4-.11,8.13.23,12.29,0.18C38.3-27.11,41.12-28,49.82-27l20.84-1.64C75.78-28.86,80-28.78,85-29c10.94-.85,22.42-1.49,33.47-1.4,5.58,0,11.14.25,16.7,0,3-.12,11.73.16,14.18-1.9,1.14-1,15.88.68,19.14,0.28l31.75-1.41a41.88,41.88,0,0,0,8.39-.77l21.62-.67,0.92-2.45a0.79,0.79,0,0,1,.24.45c0.16,0.74.81,2.74,2.61,1.85l2.83-2.57,1.62,2.86c1.48-2.45.06-2.81,0.47-5.61,0.46-3.14-.35.26,3-3.67-8.64.25-5.85,0.32-6.77,0-0.14,0-.33-0.17-0.44-0.22a2.28,2.28,0,0,1-.43-0.24c-1.73.3-2.28,0.54-3.49-.26l-8.62.43-1.55-2.15-1.92,2c-6.69-.57-8.52.27-14.9,0.1l-0.64-2.24A2.86,2.86,0,0,1,201-44.19l-0.49-3.43-2.7,2.33c-4.15,2.35-3,.4-11.75,1.34L186-47.72c-1.15,1.74-.82,1.07-1.28,3-2.76-3.22-.33-1.62-2.12-2.45l0.31,2.72c-7.3.12-8,1-10.23-2.05l-0.93,2.43L161-43.91l-1-2.36c-2.12,2.28-1.48,2.29-5.14,2.36-8.22.14-5.95-.89-3.5-14.18l28.82,0.91c5.7-.28-0.86,1.33,9.91.19,1.67,2,.65,1.19,1.46,1.52,2-1.66,3-1.45,5.1-1.12,3.93,0.61,13.12.32,15.24,0.64,3.66,0.55,1.78,0,2.45,3.33,0.38,1.89-.41.27,0.39,1.14L215-55l3.09,1-0.41-1-0.15-.36c-0.55-1.34-.39.57-0.14-0.42l5.14,0.24c1.08,0.4-.72,1.17,2.09.56,1.9-.42.73,0.57,1.5-1.2-1.3.09-2.77-1.25-4.2-1.74-4-1.37-13.63,1-16.74-1.39-3.08.72-19.11-.46-26.33-0.38-3.53,0-4.16-.77-7.32-1-4.93-.39-4.65.67-8.24,1-2.74.22-4.74-1-7.8-1.18s-5.39,0-8.44-.21c-7.51-.63-37.5-1.45-42.29-0.87-8.88,1.09-22.71-3.31-32,1.33l4,0.6c0.25,7.62,1.5,12.69-1.56,16.44L63-43.41c0.64-2,.49.45,0.81-1.3A0.7,0.7,0,0,1,64.19-45L61-45.22c-0.4-2.12-.15-1.55-1-2.63-0.45,2-.19,1.43-1,2.42L52.2-45.9,54-43.5l-13.21.27c-6.34.18-7.29,1.21-10.65-2.56l-1.55,2.58-3.95,0-0.42-1.54A0.74,0.74,0,0,0,24-45.09c-2.34,0-5.76-.36-7.65.39-0.15.06-.27,0.15-0.41,0.22l-0.71.42c-1.33.56-1.17,0.18-3.4,0.11-1.67-.05-2.72,0-4.44-0.21-3-.29-4.33.41-7.86,0.47-7.65.14-3.62-1.23-6.18-2.59-0.86,2.29-1.15,3.19-5.6,2.58l-0.54-4.76-2.15-.94c0.82-5.48,1.4-5.81.59-10.05l-1.64.32L-16.59-43.7l-4-1.6-0.44.72c-0.9,1.05-.2.62-1.28,1a12.46,12.46,0,0,1-3.18.19c-16.12.09-13.61,2.65-14.49-5-1.49,3.47-.55,2.64-1.27,5.27l-1.42-1c-3.2-2.76-2.19-.7-2.61-1.93a0.55,0.55,0,0,0-.39-0.18l0.27-3.49L-45.91-50c-4-2.19.78,1.05-1.15-.78-1.23-1.17-1.2-2.47-1.92-5.06-0.58-2.11-1.05-5-2.1-7.06a6.54,6.54,0,0,0,.42,3.71c2.06,7.24.89,8,3.7,10.05-1.21,5.36-.48,2.52-0.34,5.67l-4.14.3-0.31-6.28c-3.18,1.45-2.19.24-3,.48-0.19,7.07.95,5.22-1.47,5.7-3.86.76-1.2-1.45-2.28-4.19L-59.52-43c-0.52-.28-1.81-0.85-1.95-1.38a0.73,0.73,0,0,0-.25-0.35l-4,1.45-1.68-5.9C-69.18-43.61-65.74-43.47-70-43l-0.85-14.67,3.15-.59a14.44,14.44,0,0,0-6.34-2.42c-4-.62-21.55,1.45-23.35,2.58l6.15,0.21,0.24,9-3.94.93c2.19,4.46,1.34,4.07-.11,5.15a7.08,7.08,0,0,1-.9-3.09,20.93,20.93,0,0,0-.4-3.06c-1.65,4.63.11,2.76-1.1,6.35-3.71-1.47-4.68-2.34-8.69-.63-2.22.94-2.26,0.69-5,.7-5.82,0-22.36,0-25.9.68l-1.52.79,1.15,1.06-3.7,1c-0.26-.84.29,0.73,0-0.76l-0.06-.27c-3.46-.22-4,0.86-6.17.63-0.92-.1-5-0.08-7.74-0.24-3.86-.23,2.22-0.66-0.26-0.63Z" transform="translate(156.42 62.93)"/></svg>