<svg version="1" xmlns="http://www.w3.org/2000/svg" width="933.333" height="933.333" viewBox="0 0 700.000000 700.000000"><path d="M53.2 116.7l-10.4 12.8 46.4.5 46.3.5 1.8 3.6c1.4 2.9 1.5 4.2.6 6.8-.6 1.7-1.9 3.6-2.9 4.1-1.2.6-19.5 1-46.9 1H43v64.1l49.3-.3 49.2-.3 6.7-3.3c10-4.9 16-13.7 17.4-25.3.7-5.9-1.5-16.5-4.1-20.6-1.3-1.9-1.2-2.7 1.3-8 2.2-4.9 2.6-7.1 2.6-14.3-.1-14.7-6-25.2-17.2-30.7l-5.7-2.8-39.5-.3-39.5-.2-10.3 12.7zM136 173c2.6 2.6 2.6 7.2 0 9.5-1.8 1.7-4.5 1.8-32.8 1.9l-30.7.1-.3-5.4c-.2-2.9-.1-6 .2-6.7.4-1.1 6.1-1.4 31.1-1.4 29.2 0 30.6.1 32.5 2zM201.7 156.8L172 209.5l18.2.3c16.2.2 18.4.1 19.5-1.4.7-1 9.3-15.9 19-33.1 15.8-28 17.9-31.2 19.1-29.6 1.9 2.6 19.2 36.2 19.2 37.4 0 .5-6.5.9-15.8.9h-15.8l-7.2 12.7-7.1 12.8 24.9.3c13.7.1 36.3.1 50.3 0l25.4-.3L292 157l-29.8-52.5-15.3-.2-15.4-.3-29.8 52.8zM336 157v53h29v-42h55v42h29V104h-29v39h-55v-39h-29v53zM465 157v53h29V104h-29v53zM536.1 155.4c-16 28.3-29.4 52.1-29.7 53-.5 1.4 1.4 1.6 17.9 1.6h18.5l18.2-32.3c10-17.7 18.5-32.5 18.9-33 .6-.6 21.1 37 21.1 38.7 0 .3-7.3.7-16.1.8l-16.2.3-6.8 12c-3.8 6.6-6.9 12.3-6.9 12.7 0 .5 22.5.8 50.1.8 30.3 0 49.9-.4 49.7-.9-.1-.5-13.6-24.4-29.8-53L595.5 104H565.2l-29.1 51.4zM507.5 217.9c-1.1.5-2.9 1.9-4 3.1-1.8 2-2 3.9-2.3 19.4-.4 20.2.3 23.7 5.2 26 3.1 1.5 10.7 1.6 75.5 1.4l72.1-.3 2.7-2.8 2.8-2.7v-39l-2.8-2.7-2.7-2.8-72.3-.2c-39.7-.1-73.1.2-74.2.6zm15.5 14.6v6.5h13v-13.1l3.3.3 3.2.3.3 15.7.3 15.8H536v-14h-13v14h-7v-32h7v6.5zm42.9-5.4c3.2 1.1 6.1 5.2 6.1 8.8 0 1.1-1.2 3.4-2.7 5.1-1.6 1.9-2.2 3.4-1.6 3.8 1.3.9 3.1 4.3 4.8 9.3l1.4 3.9h-3.8c-3.6 0-3.8-.2-5-4.3-1.7-5.5-3.7-7.7-7.3-7.7-2.8 0-2.8.1-2.8 6v6h-7v-15.3c0-8.5.3-15.7.7-16 1.1-1.1 13.7-.8 17.2.4zm22.9 4.8c2 3.3 4.2 6.8 4.8 7.8 1 1.6 1.7.9 6-5.9 4.7-7.5 5.1-7.8 8.7-7.8h3.7v32h-7v-20.5l-5.1 7.8c-2.7 4.2-5.4 7.5-5.8 7.2-.5-.2-2.8-3.7-5.2-7.7l-4.4-7.3-.3 10.2-.3 10.3H578v-32h3.5c3.2 0 3.9.5 7.3 5.9zm53.8-4c5.4 2.4 6.1 3.8 3.6 6.4-1.9 1.9-2.3 1.9-4.4.5-6.2-4-14.3-2.6-17.2 3.1-2.3 4.4-2 7.5 1.2 10.9 3.6 3.9 8.8 5 13.1 2.8 4.3-2.3 4.1-4.6-.4-4.6-3.1 0-3.5-.3-3.5-2.5 0-2.4.2-2.5 7-2.5h7v4.8c0 5.5-2 8-8.2 10.7-6.6 2.7-13.7 1.3-19.2-3.8-13.9-13.2 3-34 21-25.8z"/><path d="M555 235.5v4.5h3.8c4.1 0 6.2-1.4 6.2-4.1 0-2.8-2.9-4.9-6.6-4.9-3.4 0-3.4 0-3.4 4.5zM324 292.7c-22.3 1.3-53.1 6.2-75 12l-10.5 2.8-.3 4c-.3 3.7-.9 4.4-8.3 10-9.1 6.8-9.9 7.9-9.9 13.2 0 3.4-.7 4.6-6.1 9.8-14.1 13.9-25.4 34-28.4 50.6l-.6 3.5 6.2 2.7c3.4 1.5 6.3 2.6 6.4 2.4 2.5-4 11.8-15.2 17.9-21.6 29.2-30.3 66-47.9 111-53.2 12.4-1.5 42.1-.6 53.4 1.5 51.2 9.5 87 33.2 110.7 73.1 1 1.6 1.5 1.5 7-1.1 3.3-1.6 6.2-3 6.3-3.1 1-.5-5.5-18.6-9.3-25.8-5.6-10.8-11.1-18.2-20.2-27.4-6.9-7-7.3-7.6-7.3-12-.1-4.5-.2-4.7-7.5-10.5-7.2-5.7-7.5-6.1-7.5-10.2 0-4.9.6-4.6-16.5-8.8-23.9-5.9-55-10.8-76.1-12.2-10.8-.6-11.1-.6-11.7 1.5-.7 3-6.7 3.1-6.7.1 0-2.1-1.2-2.2-17-1.3zM182.5 402.3c-1.9 8.2-4.4 28.5-3.9 31.3.6 3.4.6 3.4-3 3.4-2.5 0-3.6.4-3.6 1.5 0 .9-.9 1.5-2.5 1.5H167v10.5c0 8.7.3 10.5 1.5 10.5.8 0 1.5.9 1.5 2 0 1.5.7 2 2.5 2 1.4 0 2.5.4 2.5 1 0 .5-.9 1-2 1-1.8 0-2 .7-2 6 0 3.5.4 6 1.1 6 .7 0 .8 4.4.4 13.7-.3 7.6-.8 28.2-1.1 45.7l-.5 31.9 10.1 13.3c8 10.5 10.7 13.3 12.8 13.6 2.6.3 2.7.5 3 7.3.2 5.5.8 7.5 2.4 9.2 2.1 2.2 2.8 2.3 19.5 2.3 17.1 0 17.4 0 19.8-2.5l2.5-2.4v-137l-2.4-2.8-2.4-2.8h-17.7c-17.4 0-17.7 0-19.6 2.4-1.2 1.5-1.9 3.9-1.9 6.7 0 4.2-.1 4.4-3 4.4-1.7 0-3.3.7-3.9 1.7-.7 1.3-.9-.9-.4-7.5.6-9 .6-9.2-1.6-9.2-1.9 0-2.2-.4-1.7-2.8.3-1.5.8-6.5 1.1-11.2.8-10.7 1.4-14.2 2.6-13.5 1 .7 1 .5 4.7-18.1l2.9-14.1-7.3-3.6c-7.3-3.7-7.4-3.7-7.9-1.4zM499.3 404.2c-4.9 2.3-6.3 3.5-6.3 5.1.1 5.1 5.8 29.7 7.2 31.1 1.1 1 1.8 4.7 2.2 12.3.4 5.9 1 11.6 1.2 12.5.4 1.3 0 1.8-1.7 1.8-2.2 0-2.2.2-1.5 9.2.6 8.8.5 9.1-1.2 7.5-1-1-2.8-1.7-4-1.7-1.9 0-2.2-.6-2.2-4.3 0-3.3-.6-4.9-2.3-6.5-2.7-2.5-4.1-2.7-23-2.4-13.2.2-13.9.3-16.2 2.7l-2.5 2.4v68c0 49.6.3 68.7 1.2 70.6 1.7 3.8 6.4 4.7 23.6 4.3 14.8-.3 15.5-.4 17.3-2.7 1.5-1.8 1.9-3.9 1.9-9.2 0-6.9 0-6.9 2.8-6.9 2.3 0 4.2-2 13-13.7l10.3-13.7-.5-32c-.3-17.7-.8-37.9-1.1-45-.4-8.5-.3-13.2.4-13.9.6-.6 1.1-3.7 1.1-6.9 0-5.1-.2-5.8-2-5.8-1.1 0-2-.5-2-1 0-.6 1.2-1 2.6-1 2 0 2.5-.4 2-1.6-.4-1.1.1-1.8 1.4-2.1 1.8-.5 2-1.4 2-10.9V440h-2.5c-1.4 0-2.5-.4-2.5-.9 0-.6-1.5-1.1-3.2-1.3-3.2-.3-3.3-.5-3.1-4.3.4-5.2-4-31.8-5.3-32.1-.5-.1-3.7 1.1-7.1 2.8zM335.5 433.6c-34.8 5.2-61.8 24.3-75.4 53.6-4.7 9.9-6.9 17.9-8 29-5.6 57.4 43.8 105.1 103.1 99.7 37.1-3.4 68.8-28 80.6-62.4 7.1-21 5.7-45.9-3.7-66.1-5-10.5-8.7-15.9-17.4-25.1-12.1-12.7-28.5-22.1-46.2-26.4-7.7-1.9-26.8-3.2-33-2.3zm-11.7 59.1l.3 7.3H284v18l16.3.2 16.2.3.3 7.2.3 7.3H285v33.1l-7.7-.3-7.8-.3-.3-40.3-.2-40.2 27.2.2 27.3.3.3 7.2zm41.6 21.9c7.8 16.1 14.3 29 14.6 28.9.3-.2 6.6-13.4 14-29.4l13.5-29.1 8 .3 8 .2.3 40.3.2 40.3-7.7-.3-7.8-.3-.5-20.8-.5-20.8-9.8 19.6-9.7 19.6-7.3-.3-7.2-.3-10.5-20.4-10.5-20.3-.5 21.8-.5 21.9-7.7.3-7.8.3v-81.2l7.7.3 7.7.3 14 29.1z"/></svg>