<svg id="Capa_1" data-name="Capa 1" xmlns="http://www.w3.org/2000/svg" viewBox="0 0 342.91621 342.91621">
  <defs>
    <style>
      .cls-1 {
        fill: #ffcb05;
      }

      .cls-2, .cls-3 {
        fill-rule: evenodd;
      }

      .cls-3 {
        fill: #fff;
      }
    </style>
  </defs>
  <title> safari-pinned-tab</title>
  <rect class="cls-1" x="-23.51819" y="-14.25253" width="389.95259" height="371.7391"/>
  <path class="cls-2" d="M164.59782,103.02117V50.7145h14.30851V69.88077h26.99245V50.7145h14.31346v52.30667H205.89879V82.5087H178.90633v20.51247ZM20.93495,71.62715v31.3652H64.94946C78.929,102.9696,85.66153,88.40449,78.4089,77.15529c5.88664-7.32572,3.39667-26.43238-13.13766-26.34755H31.0677L20.77641,63.62042l44.58906.01929c3.05437,1.26928,3.41262,6.3557.03933,7.90966l-44.46985.07778Zm14.4668,12.4036h29.948c2.5246.27528,3.61271,5.27859,0,6.32775l-29.948.07816v-6.4059Zm48.50326,19.077,29.62055-52.28033h14.81009l29.61944,52.28033H139.44326l-.90435-.05083H108.07348l7.40523-13.07039h15.65558l-10.20424-19.554-18.51184,32.67517Zm143.69973-.07222V50.80676h14.29837v52.22876Zm19.6932.04341,29.62018-52.25151h14.81046L321.348,103.07892H302.83581l-.904-.0512h-30.4653l7.40511-13.063H294.527L284.323,70.42168l-18.51221,32.65724Z"/>
  <g>
    <g>
      <g>
        <polygon class="cls-2" points="246.718 229.002 245.434 214.272 250.205 212.533 252.224 229.002 246.718 229.002"/>
        <polygon class="cls-2" points="253.899 215.686 256.32 215.674 256.32 226.114 254.382 226.121 253.899 215.686"/>
        <polygon class="cls-2" points="244.409 215.899 251.126 212.298 248.513 196.077 241.091 199.552 244.409 215.899"/>
        <polygon class="cls-2" points="249.981 214.331 253.932 214.323 254.566 228.01 251.911 228.003 249.981 214.331"/>
        <polygon class="cls-2" points="240.904 292.916 240.904 236.273 244.19 236.272 254.222 248.598 254.222 279.656 244.191 292.916 240.904 292.916"/>
        <rect x="220.01531" y="229.58696" width="21.579" height="72.491" rx="3.86043" ry="3.86043"/>
        <path class="cls-2" d="M235.62353,302.078v-72.565c5.31914-.55254,5.97814,2.90159,5.97077,4.31131v64.01647C241.46575,301.1379,239.37014,302.49236,235.62353,302.078Z"/>
        <path class="cls-2" d="M222.94305,301.991l-.01363-72.2744c-.80708.19928-3.08024,1.255-2.97157,4.86164l-.01473,63.33427A4.43735,4.43735,0,0,0,222.94305,301.991Z"/>
        <path class="cls-2" d="M245.38991,229.00237h8.09548l.00184,26.93461c-1.58617,3.79634-5.77849,4.8959-8.11206-.00111Z"/>
        <rect x="244.70254" y="228.94785" width="9.49894" height="5.91552"/>
      </g>
      <g>
        <polygon class="cls-2" points="91.294 228.832 92.578 214.102 87.807 212.362 85.789 228.832 91.294 228.832"/>
        <polygon class="cls-2" points="84.113 215.516 81.693 215.505 81.693 225.944 83.629 225.951 84.113 215.516"/>
        <polygon class="cls-2" points="93.603 215.73 86.886 212.128 89.5 195.907 96.921 199.382 93.603 215.73"/>
        <polygon class="cls-2" points="88.031 214.16 84.08 214.154 83.447 227.84 86.101 227.834 88.031 214.16"/>
        <polygon class="cls-2" points="97.107 292.746 97.107 236.104 93.823 236.102 83.789 248.429 83.789 279.486 93.822 292.747 97.107 292.746"/>
        <path d="M100.279,229.41677h13.85813a3.86006,3.86006,0,0,1,3.86006,3.86006v64.77051a3.86043,3.86043,0,0,1-3.86043,3.86043H100.27861a3.86006,3.86006,0,0,1-3.86006-3.86006V233.2772A3.86043,3.86043,0,0,1,100.279,229.41677Z"/>
        <path class="cls-2" d="M102.389,301.90777v-72.565c-5.31988-.55254-5.97888,2.90269-5.97151,4.31131v64.01647C96.54564,300.96771,98.64125,302.32218,102.389,301.90777Z"/>
        <path class="cls-2" d="M115.06944,301.82084l.01252-72.2744c.80708.19928,3.08024,1.255,2.97157,4.86164l.01584,63.33537A4.43663,4.43663,0,0,1,115.06944,301.82084Z"/>
        <path class="cls-2" d="M92.62185,228.83329H84.52747l-.00332,26.93313c1.58617,3.79781,5.77959,4.89626,8.11317,0Z"/>
        <rect x="83.8099" y="228.77877" width="9.50005" height="5.91515"/>
      </g>
      <g>
        <path class="cls-2" d="M90.41131,195.25159l6.25147,2.64484c36.41955-53.422,120.30471-46.19661,143.902.69841L247,195.58238C232.62875,129.69721,102.04012,130.715,90.41131,195.25159Z"/>
        <path class="cls-2" d="M228.78932,166.88l.18713-5.21747L221.5628,155.551l-.36541-4.42329c-15.73567-4.29694-31.01016-7.61514-50.77718-8.29293l.02063,1.78987-3.50312.12745.0722-1.91732c-17.85117.56175-32.60222,2.37667-50.20622,7.73965l-.22654,3.712-8.63955,6.74949-.47408,5.57073C157.78135,134.43987,200.89219,148.1455,228.78932,166.88Z"/>
      </g>
    </g>
    <path class="cls-2" d="M169.50556,302.12916c25.582,0,46.44783-20.233,46.44783-45.04069,0-24.80732-20.86585-45.04032-46.44783-45.04032-25.58235,0-46.44709,20.233-46.44709,45.04032C123.05847,281.89616,143.92321,302.12916,169.50556,302.12916Z"/>
    <path class="cls-3" d="M139.23986,253.8933l-.02615-8.94345h19.07524c.34037,0,.2829,0,.29211-.22654l-.0081-6.453c.0081-.22654-.4844-.67852-.824-.67852H131.9382c-.33963,0-.28327,0-.29137.22654l-.00737,38.71592c-.00847.22654.4844.67963.824.67963h6.453c.33926,0,.2829,0,.291-.22654l.02615-15.90586h15.8495c.28327,0,.22691,0,.235-.22544l-.028-6.28388c.0081-.22581-.48366-.67889-.76656-.67889ZM207.63541,238.214c.00847-.22654-.54075-.67963-.88-.67963h-6.566c-.17018,0-.2829,0-.31605.11382l-13.66843,29.26376-13.99517-28.9245c.03242-.11272-.66195-.45308-.83213-.45308h-6.622c-.33963,0-.22654,0-.235.22654l.00626,38.77338a.9424.9424,0,0,0,.76656.67963h6.50932c.33926,0,.2829,0,.29137-.22654l.10756-22.47154,10.65891,20.65993c-.08878.11382.60559.45308.77577.45308h6.11259a.35036.35036,0,0,0,.31642-.11272L200.158,255.02528l-.14071,21.509c-.00958.22654.48329.67963.82255.67963h6.45333c.33926,0,.2829,0,.291-.22654Z"/>
  </g>
</svg>
