<svg version="1" xmlns="http://www.w3.org/2000/svg" width="933.333" height="933.333" viewBox="0 0 700.000000 700.000000"><path d="M329.5 21.7c-40.1 1.5-85 6.6-122 13.9-22.4 4.4-61.7 14.6-64.2 16.6-.8.7-1.3 3.6-1.3 7.7l-.1 6.6L125.8 79c-8.8 6.9-16.6 13.4-17.3 14.5-.7 1.1-1.5 5.9-1.9 10.7l-.6 8.7-9.6 9.3c-28.6 27.6-48.5 62.4-56.3 98.2l-1.8 8.3 11.1 4.6c6.1 2.6 11.6 4.8 12.3 4.9.6.2 4.7-4.5 9.1-10.4 26.8-35.9 59.7-65.2 99.6-88.7 71.4-42 164.2-57.6 250.9-42.1 91.5 16.4 169.5 67.4 207.1 135.4l5.1 9.3 12.7-5.9 12.6-6-2.4-8.9c-9.8-36.6-30.3-70.5-59.4-98.2l-10-9.5V95.4l-14.4-11.7C556.9 70.9 557 71 557 59.7c0-4-.4-4.9-2.2-5.7-4.3-1.8-53.4-13.9-70.9-17.4-38.1-7.7-75.7-12.6-108.4-14.1-6.6-.3-13.7-.8-15.7-1.1-3.7-.4-3.8-.4-3.8 3 0 4.1-1.1 4.6-9.1 4.6H341v-4c0-3.2-.3-4-1.7-3.8-1 .1-5.4.3-9.8.5z"/><path d="M89.2 232.2l-9 11.3 40.8.3c39.5.2 40.8.3 42.6 2.3 2.3 2.5 2.2 8.3-.2 11-1.6 1.8-3.4 1.9-42.6 1.9H80v57.1l43.8-.3c42.2-.3 43.9-.4 48.3-2.4 6.7-3.1 12.3-8.6 15-14.7 3.1-7.2 3.1-17.2 0-24.4-2.2-5.1-2.3-5.4-.7-8.7 7.2-15.2 1.8-34.2-11.7-41.4l-5.2-2.7-35.6-.3-35.6-.3-9.1 11.3zm74 50.5c2.2 2 2.3 6.1.1 8.5-1.5 1.7-3.7 1.8-29.5 1.8H106v-12h27.7c24.3 0 27.9.2 29.5 1.7zM247.6 223.2c-.7 1.3-12.1 21.2-25.1 44.3-13 23.1-24.6 43.5-25.7 45.2l-2 3.3h33.7l16.5-29.5c9.1-16.2 16.9-29.3 17.3-29.2.5.1 4.9 8 9.9 17.5l9 17.2h-14c-10 0-14.2.4-14.9 1.2-.6.7-3.8 6.1-7.1 12l-6.1 10.8H329.8L303 268.7l-26.7-47.2-13.6-.3c-13.2-.2-13.7-.2-15.1 2zM342 268.5V316h26v-38h50v38h26v-95h-26v35h-50v-35h-26v47.5zM458 268.5V316h25v-95h-25v47.5zM523.3 263.8c-13.3 23.5-25.4 44.8-26.8 47.4l-2.7 4.8h33l16.7-29.5c9.3-16.2 17.1-29.5 17.4-29.5.4 0 4.8 7.9 9.8 17.5l9 17.5h-28.5l-6.5 11.7-6.6 11.8 44.6.3c24.5.1 44.8.1 45-.1.2-.2-11.7-21.6-26.3-47.6L574.7 221h-27.2l-24.2 42.8z"/><path d="M29.4 263.7c-4.9 30.5-5.1 31.8-3.3 33.2 1.3 1.1 1.6 2.4 1.2 4.3-.5 2.7-.7 2.8-7.4 2.8H13v3c0 2.9-.2 3-4.5 3H4v39.9l3.3.3c2.9.3 3.2.6 3.5 4 .3 3.8.4 3.8 4.8 3.8 3.7 0 4.4.3 4.4 2s-.7 2-4 2h-4v11.5c0 9.6.3 11.5 1.5 11.5 2.3 0 2.3 51.1 0 53-1.3 1.1-1.5 9.3-1.5 63.2v61.9L31.6 589l19.6 25.9 5.1.3 5.2.3.5 13.5c.6 15.5 1.4 17.6 8.5 21 4.2 2 5.6 2.1 35.4 1.8 29.6-.3 31.1-.4 33.8-2.4 1.5-1.1 3.8-3.6 5.1-5.4l2.2-3.3-.2-133.3-.3-133.3-2.1-2.8c-4.5-6.1-4.9-6.1-39.4-6.5-30.2-.2-31.7-.2-35 1.8-6.1 3.5-8 7.5-8 16.5v7.9h-5.2c-4.6 0-5.5.4-7.9 3.2l-2.8 3.3-.1-5.8c0-4.2.4-5.9 1.5-6.3 1.2-.5 1.5-2.8 1.5-12V362h-8.1l.5-4.3c.4-2.3 1.3-12.5 2.1-22.7 2.2-27.3 2.2-27.1 4.8-26.5 2.1.6 2.4-.4 8.6-31 3.5-17.3 6.2-31.7 6-31.9-.4-.4-27.9-13.6-28.3-13.6-.1 0-2.4 14.3-5.2 31.7zM650.3 239.3c-7.3 3.5-13.4 6.5-13.7 6.8-.4.4 9.2 50 11.9 61.7.5 1.9.9 2.1 2.5 1.2 1.5-.8 2.1-.8 2.4.2.4 1.2 4.7 49.9 4.6 52.5 0 .8-1.5 1.3-4 1.3h-4v11.5c0 9.6.3 11.5 1.5 11.5s1.5 1.3 1.5 5.7v5.7l-2.7-2.7c-2.1-1.9-4-2.7-7.8-2.9l-5-.3-.5-8.5c-.6-10.2-2.8-14-9.3-16.5-3.7-1.4-8.5-1.6-34.9-1.3-29.1.3-30.8.4-33.4 2.4-1.5 1.1-3.7 3.3-4.8 4.8-2.1 2.7-2.1 3.2-2.4 134.9l-.2 132.2 2.2 4.5c4 7.8 4 7.8 40.4 8.2l32.1.2 3.5-2.4c5.8-3.9 6.3-5.3 6.8-20l.5-13.5 5.2-.3 5.3-.3 19.5-25.9 19.5-25.9v-62.3c-.1-53.2-.3-62.6-1.5-64.2-2.2-3-2.2-51.6 0-51.6 1.2 0 1.5-1.9 1.5-11.4v-11.5l-3.7-.3c-2.7-.2-3.9-.8-4.1-2.1-.3-1.4.4-1.7 4.8-1.7h5.2l-.7-4-.7-4h8.2v-41h-5c-4.6 0-5-.2-5-2.5s-.3-2.4-6.7-2.7c-6.7-.3-6.8-.3-7.1-3.3-.3-1.9.2-3.3 1.3-4.1 1.5-1.2 1.3-3.4-3-30.1-5.4-34.1-5.5-34.3-6.3-34.2-.4 0-6.6 2.8-13.9 6.2zM336.5 329.1c-44.8 4.4-87.2 30.1-110.8 67.2-9.6 15-17.1 34.3-20.3 51.9-2.2 12.4-2.2 35.2 0 47.8 3.7 20.6 13.7 43.7 26.2 60.3 3.5 4.7 6.4 8.8 6.4 9.1 0 .3-11.1.6-24.7.6-27.6 0-29.6.4-36 7-6.9 7-6.8 6.6-6.8 46.5v36.1l2.6 4.9c3.2 6.2 9.3 11 15.9 12.4 7.2 1.5 317.8 1.5 325 0 6.6-1.4 12.7-6.2 15.9-12.4l2.6-4.9v-36.1c0-39.9 0-39.8-6.9-46.7-6.3-6.3-8.5-6.8-35.8-6.8-13.7 0-24.8-.3-24.8-.6s1.7-2.7 3.9-5.3c14.2-17 25.1-41.3 29.2-64.9 7.6-44.8-7.1-90.1-40.1-123.1-31.7-31.7-76.3-47.5-121.5-43zm-12.7 95.1c.7.7 1.2 4.4 1.2 9.5v8.3h-49v22h19.4c15.4 0 19.6.3 20.5 1.4.8.9 1.1 4.3.9 9.3l-.3 7.8-20.2.3-20.3.2v40.1l-9.2-.3-9.3-.3-.3-49.8-.2-49.7h32.8c24.2 0 33.1.3 34 1.2zm33.8-.4c.6.4 8.9 16.8 18.4 36.5 10.4 21.4 17.6 35.3 18 34.5.4-.7 7.9-16.6 16.6-35.3 8.7-18.7 16.2-34.6 16.7-35.3.7-.9 3.6-1.2 10.1-1l9.1.3.8 48.5c.4 26.6.5 49.1.2 49.8-.3.9-2.8 1.2-9.7 1l-9.3-.3-.5-26.3-.5-26.3-11.9 24.6-11.9 24.6-9.1-.3-9.1-.3-13.2-25.5-13.2-25.5-.3 27.5-.3 27.5h-19l-.3-49.8-.2-49.7h8.7c4.9 0 9.3.4 9.9.8zM254.8 594.6c8.6 3.6 13.1 12.1 13.4 25.2.1 10-1.7 15.6-6.7 20.8-10.1 10.6-27.4 7.3-34.1-6.4-2.3-4.7-3-16.8-1.5-23.8 3.1-13.6 16.5-21 28.9-15.8zm41.9 14.7c5.6 8.9 10.9 17.1 11.7 18.2 1.4 1.8 1.5.4 1.6-16.3V593h9v53h-9.5l-11-17.8-11-17.7-.3 17.8-.2 17.7h-10v-25.8c0-14.2.3-26.2.7-26.5.3-.4 2.5-.7 4.7-.7h4.1l10.2 16.3zm42.3 6.2V638h24v8h-34v-25.8c0-14.2.3-26.2.7-26.5.3-.4 2.6-.7 5-.7h4.3v22.5zm40 4V646h-9v-53h9v26.5zm31.7-8.1l11.3 17.9.2-17.9.3-17.9h9l.3 26.2.2 26.3h-9.8l-10.8-17.4-10.9-17.5-.3 17.5-.2 17.4h-10v-53.1l4.8.3 4.7.3 11.2 17.9zm66.1-14.2l.3 3.8H452v14h21v8h-21v15h25v8h-35v-25.8c0-14.2.3-26.2.7-26.6.4-.3 8.1-.5 17.2-.4l16.6.3.3 3.7z"/><path d="M241.2 602.3c-4.2 2-6.4 8.1-6.4 17.7 0 9 1.1 12.8 5 16.3 4.8 4.4 13.6 2.6 16.7-3.3 2.1-4.1 3-17.4 1.6-22.7-2.1-7.7-9.9-11.4-16.9-8z"/></svg>