<svg version="1" xmlns="http://www.w3.org/2000/svg" width="933.333" height="933.333" viewBox="0 0 700.000000 700.000000"><path d="M322.7 56.6c-13.3 1.6-29.5 4.7-40.7 7.8-8.2 2.2-8.5 2.4-8.8 5.4-.3 2.4-1.7 4.1-7.3 8.3-6.2 4.7-6.9 5.7-6.9 8.7 0 2.8-1.1 4.6-6.1 10-3.4 3.6-7.9 9.2-10 12.5-3.9 6-9.1 18.5-10.2 24.4-.6 3.1-.4 3.3 4.1 5.3l4.7 2.1 2.5-3.3c22.3-29.2 51-46.7 87-52.9 14.8-2.5 37.8-2.8 50.5-.5 19.8 3.6 39.4 11.1 53.6 20.6 9 6 24.6 22.2 29.3 30.3 2.1 3.7 4 6.7 4.2 6.7.2 0 2.4-1 4.9-2.2 4.5-2.2 4.6-2.4 4-5.8-1-5.3-6.6-17.8-11-24.4-2.1-3.3-6.7-8.9-10.2-12.5-5.1-5.3-6.3-7.2-6.3-9.8 0-2.8-.9-4-6-8-5.1-4.1-6-5.3-6-8.1 0-3.9.1-3.9-18.2-8.1C395 57.4 358 53 358 55.7c0 1.7-5.1 2.3-5.7.7-.7-1.8-14.3-1.7-29.6.2zM228.5 149.7c-1.1 6.5-1.8 13-1.7 14.5.1 2.4-.3 2.8-2.3 2.8-1.4 0-2.5.4-2.5 1 0 .5-.9 1-2 1-1.8 0-2 .7-2 8 0 6.4.3 8 1.5 8 .8 0 1.5.6 1.5 1.4 0 .8 1 1.7 2.3 1.9 2.1.4 2.1.5.2 1.1-1.9.7-2 1.7-2.3 39.9l-.3 39.2 7.8 10.8c4.7 6.4 8.7 10.9 10.1 11.3 1.8.5 2.2 1.3 2.2 4.6 0 4 1.4 7.7 3.4 9 .6.4 7 .8 14.2.8 12 0 13.2-.2 15-2.1 1.8-2 1.9-4.4 1.9-55 0-51.5-.1-52.9-2-54.8-1.8-1.7-3.7-2-15.4-2.3-12.9-.3-13.4-.2-15.2 2.1-1 1.3-1.9 3.6-1.9 5.2 0 2.1-.5 2.9-1.8 2.9-1 0-2.3.5-3 1.2-.9.9-1.1-.2-.6-5 .6-5.1.4-6.5-.9-7.5s-1.4-2.5-.6-10.6c.5-5.2 1.3-9.7 1.8-10.1 1-.5 6.6-24.9 5.9-25.5-.5-.4-10.7-5.5-11.1-5.5-.2 0-1.2 5.3-2.2 11.7zM474.7 141.1c-4.9 2.5-5.6 3.3-5.2 5.2.3 1.2 1.4 6.7 2.5 12.2 1.1 5.4 2.5 10.2 3 10.5.7.5 2.9 14.9 3 20.2 0 .5-.7.8-1.6.8-1.4 0-1.6.9-1.1 6.6.3 4.8.2 6.3-.6 5.5-.6-.6-1.9-1.1-2.9-1.1-1.3 0-1.8-.8-1.8-3 0-1.7-.9-3.9-2-5-1.8-1.8-3.3-2-15.3-2-11.7 0-13.6.2-15 1.8-1.5 1.7-1.7 7-1.7 55.4 0 50 .1 53.6 1.8 55.1 1.4 1.3 4.4 1.6 15 1.8 16.1.2 17.2-.3 17.2-8.8 0-4.5.3-5.3 1.8-5.3 1.2 0 4.9-3.9 10.1-10.7l8.2-10.8-.3-39.7c-.2-31-.6-39.8-1.5-39.8-.7 0-1.3-.5-1.3-1 0-.6.7-1 1.5-1s1.5-.5 1.5-1c0-.6.7-1 1.5-1 1.2 0 1.5-1.6 1.5-8.5 0-7.8-.2-8.5-2-8.5-1.1 0-2-.5-2-1 0-.6-1.2-1-2.6-1-2.1 0-2.5-.4-2.1-1.9.4-1.5-2.6-23.5-3.6-26.3-.1-.3-2.8.7-6 2.3zM348.5 177c-23.2 3.1-42.5 19.7-49 42.4-2.5 8.5-2.2 22.5.5 30.7 6.3 18.8 21.1 32.8 40.5 38.5 7.3 2.1 21.7 2.3 29.5.5 20.6-4.9 38.3-21.9 43.5-41.8 1.9-7.4 1.9-20.3 0-27.8-3.4-12.7-13.2-26.1-24.9-33.7-10.8-7-26.9-10.5-40.1-8.8zm-3 41v3.5l-9.7.3-9.8.3v7.8l7.8.3 7.7.3.3 3.7.3 3.8H326v16.1l-3.2-.3-3.3-.3-.3-19.8-.2-19.8 13.2.3 13.3.3v3.5zm20.1 10.4c3.7 8 7 14.3 7.3 14.1.4-.2 3.5-6.7 7.1-14.4l6.5-14.1h7.5v40.1l-3.2-.3-3.3-.3-.5-10.3-.5-10.3-4.8 9.6-4.7 9.6-3.7-.3c-3.5-.3-3.8-.7-8.9-10.3l-5.3-10-.3 11-.3 11h-7l-.3-19.8-.2-19.7H358.7l6.9 14.4zM60.3 366.7l-10.2 12.8 45.4.3 45.4.2 2 2.6c2.6 3.3 2.7 8.4.4 11.3-1.8 2.2-2.3 2.2-47.5 2.8l-45.8.6v63.8l48.3-.3c47.5-.3 48.3-.4 53.9-2.6 6.5-2.6 13.7-9 16.6-14.8 4.8-9.5 4.9-20.6.2-31l-2-4.6 2.2-4.1c3.3-6.4 3.7-21.2.8-28.9-2.8-7.5-9.5-14.9-16.2-17.9-5.3-2.4-5.6-2.4-44.3-2.7l-39-.3-10.2 12.8zm83.1 57.5c2.2 3.1 2 6.4-.4 8.8-1.9 1.9-3.3 2-33 2H79v-13h31.4c31.4 0 31.5 0 33 2.2zM238.2 355.2c-.5.7-13.2 22.9-28.2 49.3-14.9 26.4-28.3 49.9-29.6 52.2l-2.5 4.3h37.9l18.7-33.1c10.3-18.1 19.1-32.7 19.5-32.2.4.4 5.1 9.2 10.5 19.5l9.7 18.8h-15.9l-15.8.1-7.3 13c-4.1 7.2-7.2 13.2-7 13.5.3.2 23 .3 50.6.2l50-.3-30.1-53.2-30.2-53.3h-14.6c-10.5 0-14.9.4-15.7 1.2zM342.2 407.2l.3 53.3h29l.3-20.8.2-20.7h54l.2 20.7.3 20.8h29l.3-53.3.2-53.3-14.7.3-14.8.3-.3 19.2-.2 19.3h-54l-.2-19.3-.3-19.2-14.8-.3-14.7-.3.2 53.3zM471 407.5V461h29V354h-29v53.5zM545 400.7c-14.6 25.7-28.2 49.7-30.3 53.5l-3.8 6.8h37.7l18.5-32.6c10.2-17.9 18.9-32.6 19.4-32.6.6 0 20.5 36.7 20.5 37.9 0 .2-7.1.3-15.8.3h-15.9l-7.3 13c-4 7.2-7 13.3-6.8 13.6.3.2 23 .3 50.6.2l50.1-.3-30.2-53.2-30.2-53.3h-30L545 400.7zM45.5 494.9C38 496.7 32 501.8 28.6 509c-2.1 4.4-2.1 5.6-2.1 65 0 56.2.1 60.8 1.8 65.2 2.2 5.6 9.2 12.3 14.6 13.8 2.5.8 100.3 1 311.1.8l307.5-.3 4.5-3c6.4-4.4 9.9-9.8 11.1-17.6.6-4 .9-28.1.7-62.9-.3-54.9-.4-56.6-2.4-61-1.1-2.5-3.9-6.2-6.2-8.2-8.2-7.4 19.6-6.8-317.6-6.7-166.7.1-304.4.4-306.1.8zm100.8 27.9c12.9 5.9 21.8 18.2 25.1 34.5 2.1 10.3 2.2 30.3.2 39.1-4.7 20.2-18.7 34-37.6 36.9-24.1 3.7-45.6-11.7-51.6-37-2-8.3-2.2-30.2-.4-38.8 2.8-13.5 11.3-26.7 20.8-32.2 9-5.3 13.7-6.4 25.7-6 9.7.3 11.8.7 17.8 3.5zm91.2 36.9l25 39.7.3-39.7.2-39.7h19v112h-19.5L238 593l-24.5-39-.3 39-.2 39h-20V520h19.6l24.9 39.7zM324 568v48h51v16h-70V520h19v48zm87 8v56h-20V520h20v56zm68-16.8l24.5 39.1.3-39.1.2-39.2h20v112h-19.8l-24.9-39.6-24.8-39.6-.3 39.6-.2 39.6h-19V520h9.8l9.7.1 24.5 39.1zM619 528v8h-53v31h46v15h-46v34h54v16h-73V520h72v8z"/><path d="M122.3 535.1c-15.1 2.8-22.3 15.9-22.3 40.7 0 19.7 4.1 30.9 13.8 37.7 4.1 2.8 5 3 13.2 3s9.1-.2 13.2-3c9.1-6.5 12.5-15.4 13.4-35.5.9-18.8-2.2-29.8-10.4-37.2-5.6-5.1-13.2-7.2-20.9-5.7z"/></svg>