<?xml version="1.0" standalone="no"?>
<!DOCTYPE svg PUBLIC "-//W3C//DTD SVG 20010904//EN"
 "http://www.w3.org/TR/2001/REC-SVG-20010904/DTD/svg10.dtd">
<svg version="1.0" xmlns="http://www.w3.org/2000/svg"
 width="16.000000pt" height="16.000000pt" viewBox="0 0 16.000000 16.000000"
 preserveAspectRatio="xMidYMid meet">
<metadata>
Created by potrace 1.11, written by Peter Selinger 2001-2013
</metadata>
<g transform="translate(0.000000,16.000000) scale(0.006250,-0.006250)"
fill="#000000" stroke="none">
<path d="M193 2136 c-18 -24 -33 -46 -33 -49 0 -4 77 -7 171 -7 l170 0 -3 -22
c-3 -23 -5 -23 -175 -26 l-173 -2 0 -120 0 -120 186 0 c204 0 225 5 258 60 18
31 21 82 6 109 -6 12 -5 30 2 53 15 49 2 106 -32 140 l-28 28 -159 0 -158 -1
-32 -43z m307 -226 c0 -19 -7 -20 -115 -20 -108 0 -115 1 -115 20 0 19 7 20
115 20 108 0 115 -1 115 -20z"/>
<path d="M737 1992 c-59 -104 -107 -192 -107 -195 0 -4 31 -7 69 -7 l69 0 57
103 c81 143 73 138 112 70 18 -32 33 -61 33 -65 0 -5 -25 -8 -55 -8 -54 0 -54
0 -81 -45 -14 -25 -24 -48 -22 -51 3 -2 87 -3 186 -2 l181 3 -107 190 -107
190 -61 3 -61 3 -106 -189z"/>
<path d="M1230 1985 l0 -195 55 0 55 0 0 75 0 75 95 0 95 0 0 -75 0 -75 60 0
60 0 0 195 0 195 -60 0 -60 0 0 -70 0 -70 -95 0 -95 0 0 70 0 70 -55 0 -55 0
0 -195z"/>
<path d="M1700 1985 l0 -195 55 0 55 0 0 195 0 195 -55 0 -55 0 0 -195z"/>
<path d="M1952 1985 l-110 -195 73 0 74 0 63 115 c35 63 65 115 68 115 5 0 70
-115 70 -124 0 -3 -26 -6 -57 -8 -56 -3 -57 -4 -85 -50 l-27 -48 190 0 191 0
-35 63 c-20 34 -69 121 -109 192 l-73 130 -61 3 -61 3 -111 -196z"/>
<path d="M1841 1756 c-8 -9 -11 -43 -9 -93 l3 -78 280 -3 c323 -3 305 -8 305
94 0 98 13 94 -299 94 -219 0 -271 -3 -280 -14z m503 -26 c38 -14 33 -32 -7
-25 -24 5 -37 2 -46 -9 -25 -30 9 -67 47 -51 16 8 16 8 0 12 -27 7 -21 23 7
23 20 0 25 -5 25 -25 0 -51 -75 -58 -106 -9 -25 38 -5 73 53 93 1 1 13 -3 27
-9z m-434 -20 c0 -15 7 -20 25 -20 18 0 25 5 25 20 0 11 7 20 15 20 13 0 15
-11 13 -57 -2 -34 -8 -58 -15 -61 -9 -2 -13 7 -13 27 0 26 -4 31 -25 31 -21 0
-25 -5 -25 -31 0 -20 -4 -29 -12 -27 -8 3 -14 27 -16 61 -2 46 0 57 13 57 8 0
15 -9 15 -20z m176 -25 c0 -22 4 -48 8 -57 6 -13 4 -18 -6 -18 -8 0 -20 11
-26 25 -15 32 -32 32 -32 -1 0 -16 -5 -24 -12 -22 -8 3 -14 27 -16 62 l-3 57
43 -3 c43 -3 43 -3 44 -43z m73 18 l13 -27 16 27 c9 15 25 27 35 27 16 0 18
-7 15 -57 -3 -66 -28 -89 -28 -26 l0 38 -19 -29 -20 -30 -13 29 -13 29 -5 -32
c-8 -52 -25 -38 -28 23 -3 48 -1 55 16 55 11 0 24 -12 31 -27z"/>
<path d="M2030 1695 c0 -8 7 -15 15 -15 8 0 15 7 15 15 0 8 -7 15 -15 15 -8 0
-15 -7 -15 -15z"/>
<path d="M1131 1489 c-141 -13 -261 -43 -261 -64 0 -8 -16 -26 -35 -41 -19
-14 -35 -34 -35 -43 0 -10 -12 -28 -26 -42 -57 -53 -110 -174 -120 -275 -5
-49 -11 -63 -25 -67 -15 -4 -19 -14 -19 -45 0 -23 4 -43 9 -46 4 -3 6 -91 4
-196 l-4 -191 41 -55 c22 -30 45 -54 50 -54 6 0 10 -13 10 -29 0 -17 6 -31 16
-35 23 -9 117 -7 132 2 9 7 12 68 10 273 l-3 264 -75 0 c-70 0 -75 -1 -78 -22
-2 -13 -7 -23 -12 -23 -12 0 -24 104 -16 138 4 15 13 55 20 89 40 186 333 348
596 330 154 -11 286 -64 378 -151 96 -90 106 -112 144 -300 7 -36 6 -51 -3
-56 -6 -5 -9 -17 -6 -29 7 -28 -6 -27 -18 2 -8 18 -19 23 -64 25 -30 2 -65 1
-78 -3 l-23 -5 0 -259 c0 -211 3 -261 14 -270 9 -7 39 -11 77 -9 61 3 64 4 74
33 5 17 12 32 15 35 3 3 23 26 43 51 l38 47 -3 198 c-2 151 0 198 10 201 7 3
12 21 12 44 0 33 -4 40 -25 45 -14 3 -23 9 -21 13 5 8 -12 111 -24 136 -4 11
-19 45 -33 75 -13 30 -43 76 -66 102 -22 25 -41 53 -41 61 0 9 -11 24 -24 34
-13 10 -26 28 -30 39 -5 17 -25 25 -104 43 -139 30 -274 44 -285 28 -7 -9 -10
-9 -14 1 -2 6 -12 11 -21 11 -9 -1 -55 -5 -101 -10z"/>
<path d="M1153 962 c-155 -55 -239 -179 -231 -340 4 -93 30 -153 94 -216 54
-54 115 -84 198 -99 158 -27 328 73 381 224 22 61 19 167 -6 234 -27 71 -100
147 -176 182 -77 35 -186 41 -260 15z m35 -204 l3 -28 -75 0 -76 0 0 -30 0
-30 60 0 60 0 0 -30 0 -30 -60 0 -60 0 0 -60 0 -60 -30 0 -30 0 0 150 0 151
103 -3 102 -3 3 -27z m148 -73 c26 -58 50 -105 54 -105 3 0 26 47 52 103 43
95 48 102 77 105 l31 3 0 -150 0 -151 -30 0 -30 0 0 73 -1 72 -35 -67 c-30
-59 -38 -68 -62 -68 -24 0 -32 9 -64 73 l-37 72 0 -77 -1 -78 -30 0 -30 0 0
150 0 150 29 0 c26 0 32 -7 77 -105z"/>
</g>
</svg>
