<svg id="Layer_1" xmlns="http://www.w3.org/2000/svg" viewBox="0 0 445 49"><style>.st0{fill:#fff}</style><title>bahia</title><path d="M292.5 23.5l-.4-4 1.3-.5.5 4.5h-1.4zm1.9-3.7h.7v2.8h-.5l-.2-2.8z"/><path d="M291.8 19.9l1.8-1-.7-4.4-2 .9.9 4.5zm1.5-.4h1.1l.2 3.7h-.7l-.6-3.7zm-2.4 21.3V25.4h.9l2.7 3.3v8.4l-2.7 3.6h-.9v.1z"/><path d="M286.3 23.6h3.8c.6 0 1 .5 1 1v17.6c0 .6-.5 1-1 1h-3.8c-.6 0-1-.5-1-1V24.7c-.1-.6.4-1.1 1-1.1z"/><path d="M289.4 43.3V23.6c1.4-.1 1.6.8 1.6 1.2v17.4c0 .8-.5 1.2-1.6 1.1zm-3.4 0V23.6c-.6.2-.9.7-.8 1.3v17.2c0 .6.3 1 .8 1.2zm6.1-19.9h2.2v7.3c-.4 1-1.6 1.3-2.2 0v-7.3z"/><path d="M291.9 23.4h2.6V25h-2.6v-1.6zm-41.6 0l.4-4-1.3-.5-.6 4.5h1.5zm-2-3.6h-.7v2.8h.5l.2-2.8z"/><path d="M250.9 19.9l-1.8-1 .7-4.4 2 .9-.9 4.5zm-1.5-.5h-1.1l-.2 3.7h.7l.6-3.7zm2.4 21.4V25.4h-.9l-2.7 3.4v8.4l2.7 3.6h.9z"/><path d="M252.7 23.6h3.8c.6 0 1 .5 1 1v17.6c0 .6-.5 1-1 1h-3.8c-.6 0-1.1-.5-1.1-1V24.6c0-.6.5-1 1.1-1z"/><path d="M253.3 43.3V23.5c-1.4-.1-1.6.8-1.6 1.2v17.4c0 .9.6 1.3 1.6 1.2zm3.4-.1V23.6c.6.2.9.7.8 1.3v17.2c0 .5-.3 1-.8 1.1zm-6.1-19.8h-2.2v7.3c.4 1 1.6 1.3 2.2 0v-7.3z"/><path d="M248.2 23.4h2.6V25h-2.6v-1.6zm1.8-9.1l1.7.7c9.9-14.5 32.7-12.5 39.1.2l1.8-.8c-4-17.9-39.4-17.6-42.6-.1z"/><path d="M287.6 6.6V5.2l-2-1.7-.1-1.2C281 1 276.4.2 271.7 0v.5h-1V0c-4.6.1-9.2.8-13.6 2.1l-.1 1-2.3 1.9-.1 1.5c13.7-8.7 25.4-5 33 .1zm-16.1 36.7c6.9.1 12.5-5.4 12.6-12.2-.1-6.9-5.8-12.3-12.6-12.2-6.9-.1-12.5 5.4-12.6 12.2.1 6.8 5.7 12.3 12.6 12.2z"/><path class="st0" d="M263.3 30.2v-2.4h5.2c.1 0 .1 0 .1-.1V26c0-.1-.1-.2-.2-.2h-7c-.1 0-.1 0-.1.1v10.5c0 .1.1.2.2.2h1.8c.1 0 .1 0 .1-.1v-4.3h4.3c.1 0 .1 0 .1-.1v-1.7c0-.1-.1-.2-.2-.2h-4.3zm18.6-4.3c0-.1-.1-.2-.2-.2h-1.9l-3.7 7.9-3.8-7.9c-.1-.1-.1-.1-.2-.1h-1.8c-.1 0-.1 0-.1.1v10.5c0 .1.1.2.2.2h1.8c.1 0 .1 0 .1-.1v-6.1l2.9 5.6c.1.1.1.1.2.1h1.8l2.7-5.6v5.8c0 .1.1.2.2.2h1.7c.1 0 .1 0 .1-.1V25.9z"/><path d="M116.3 42.3V0h11.6v15.5h21.8V0h11.6v42.3h-11.6V25.7h-21.8v16.6h-11.6zM.1 16.9v25.4h35.6c11.3 0 16.8-11.8 10.9-20.9C51.3 15.5 49.3 0 36 .1H8.3L0 10.4h36.1c1.8.9 2.5 3.1 1.6 4.8-.3.7-.9 1.2-1.6 1.6l-36 .1zm11.7 10H36c2 .2 2.9 4.3 0 5.1l-24.2.1v-5.2zm39.3 15.4L75.1 0h12l24 42.3H70.6l6-10.6h12.7L81 16 66 42.4l-14.9-.1zm116.2 0V.1h11.6v42.2h-11.6zm15.9 0l24-42.3h12l24 42.3h-40.5l6-10.6h12.7l-8.3-15.8-15 26.4h-14.9zm249.8.1H315.5c-6.6 0-12-5.4-12-12V12c0-6.6 5.4-12 12-12H433c6.6 0 12 5.4 12 12v18.4c0 6.6-5.4 12-12 12z"/><path class="st0" d="M333.5 22c0 2.5-.4 4.7-1.3 6.6s-2.1 3.3-3.7 4.4-3.5 1.5-5.6 1.5c-2.1 0-3.9-.5-5.5-1.5s-2.9-2.5-3.8-4.3-1.3-4-1.3-6.5v-1.4c0-2.5.4-4.7 1.3-6.6s2.1-3.4 3.7-4.4 3.5-1.5 5.5-1.5 3.9.5 5.5 1.5 2.9 2.4 3.7 4.3 1.3 4.1 1.3 6.6V22zm-4.4-1.4c0-2.8-.5-5-1.6-6.5s-2.6-2.3-4.6-2.3c-1.9 0-3.4.8-4.5 2.3s-1.6 3.6-1.7 6.4V22c0 2.8.5 5 1.6 6.5s2.6 2.3 4.6 2.3c2 0 3.5-.8 4.5-2.3s1.6-3.7 1.6-6.6v-1.3zm29.2 13.5h-4.4l-11.4-18.2v18.2H338V8.5h4.4l11.4 18.2V8.5h4.4v25.6zm9.7-3.6h11.6v3.6h-16.1V8.5h4.4v22zm19.7 3.6h-4.4V8.5h4.4v25.6zm25.8 0H409l-11.4-18.2v18.2h-4.4V8.5h4.4L409 26.7V8.5h4.4v25.6zm20.2-11.4h-10.5v7.8h12.3v3.6h-16.7V8.5h16.6v3.6h-12.2v7.1h10.5v3.5z"/></svg>